<?xml version="1.0" encoding="UTF-8" standalone="no"?>
<svg width="709px" height="416px" viewBox="0 0 709 416" version="1.1" xmlns="http://www.w3.org/2000/svg" xmlns:xlink="http://www.w3.org/1999/xlink" xmlns:sketch="http://www.bohemiancoding.com/sketch/ns">
    <!-- Generator: Sketch 3.5.1 (25234) - http://www.bohemiancoding.com/sketch -->
    <title>Group 8</title>
    <desc>Created with Sketch.</desc>
    <defs>
        <path id="path-1" d="M706.791861,195.390946 C697.277842,166.262384 585.248198,208.025454 521.896857,196.70878 C472.112475,187.815621 456.627007,154.642669 412.348328,154.642669 C379.513666,154.642669 366.105153,187.203277 317.996474,187.203279 C269.887796,187.203281 280.074693,86.8692673 268.822093,43.5499513 C257.569493,0.230635355 232.04521,0.284231064 227.962861,0.284228494 C223.880512,0.284225924 195.202042,-6.86717555 175.761775,50.5737402 C156.321508,108.014656 145.678014,143.460287 91.9941256,143.460287 C65.8629806,143.460287 50.0455983,125.25352 23.7767659,125.253519 C-2.49206655,125.253518 0.0833071045,154.642665 0.0833071045,154.642665 C0.0497647277,154.927109 -2.52560892,184.316256 23.7432235,184.316255 C50.0120559,184.316254 65.8294382,166.109487 91.9605832,166.109487 C145.644471,166.109487 179.001284,198.551763 191.741877,326.022212 C200.156817,410.214221 213.999342,416 226.61926,416 C239.239179,416 248.054777,403.571517 256.860869,352.986084 C265.666962,302.400651 273.069805,230.249646 317.962932,225.030291 C362.856059,219.810936 356.692135,301.441214 412.348311,301.441215 C468.004487,301.441216 450.183026,238.648103 521.89684,225.030299 C583.412013,213.349125 693.863263,251.127433 705.948667,227.648988 C707.952314,223.756481 709.000001,218.316081 709,210.868296 C708.989801,208.544335 708.895981,201.833016 706.791861,195.390946 Z"></path>
    </defs>
    <g id="Page-1" stroke="none" stroke-width="1" fill="none" fill-rule="evenodd" sketch:type="MSPage">
        <g id="Group-8" sketch:type="MSLayerGroup">
            <mask id="mask-2" sketch:name="Mask" fill="white">
                <use xlink:href="#path-1"></use>
            </mask>
            <g id="Mask"></g>
            <g mask="url(#mask-2)" stroke-linecap="square" stroke="#C3C3C3" sketch:type="MSShapeGroup">
                <g transform="translate(313.000000, 208.000000) rotate(-30.000000) translate(-313.000000, -208.000000) translate(-166.000000, -272.000000)">
                    <path d="M495.5,0.722582023 L495.5,959.125244" id="Line-Copy-47"></path>
                    <path d="M540.5,0.722582023 L540.5,959.125244" id="Line-Copy-51"></path>
                    <path d="M585.5,0.722582023 L585.5,959.125244" id="Line-Copy-55"></path>
                    <path d="M630.5,0.722582023 L630.5,959.125244" id="Line-Copy-59"></path>
                    <path d="M675.5,0.722582023 L675.5,959.125244" id="Line-Copy-63"></path>
                    <path d="M720.5,0.722582023 L720.5,959.125244" id="Line-Copy-67"></path>
                    <path d="M765.5,0.722582023 L765.5,959.125244" id="Line-Copy-71"></path>
                    <path d="M877.5,0.722582023 L877.5,959.125244" id="Line-Copy-79"></path>
                    <path d="M810.5,0.722582023 L810.5,959.125244" id="Line-Copy-75"></path>
                    <path d="M922.5,0.722582023 L922.5,959.125244" id="Line-Copy-80"></path>
                    <path d="M506.5,0.722582023 L506.5,959.125244" id="Line-Copy-48"></path>
                    <path d="M551.5,0.722582023 L551.5,959.125244" id="Line-Copy-52"></path>
                    <path d="M596.5,0.722582023 L596.5,959.125244" id="Line-Copy-56"></path>
                    <path d="M641.5,0.722582023 L641.5,959.125244" id="Line-Copy-60"></path>
                    <path d="M686.5,0.722582023 L686.5,959.125244" id="Line-Copy-64"></path>
                    <path d="M731.5,0.722582023 L731.5,959.125244" id="Line-Copy-68"></path>
                    <path d="M776.5,0.722582023 L776.5,959.125244" id="Line-Copy-72"></path>
                    <path d="M889.5,0.722582023 L889.5,959.125244" id="Line-Copy-81"></path>
                    <path d="M821.5,0.722582023 L821.5,959.125244" id="Line-Copy-76"></path>
                    <path d="M934.5,0.722582023 L934.5,959.125244" id="Line-Copy-82"></path>
                    <path d="M517.5,0.722582023 L517.5,959.125244" id="Line-Copy-49"></path>
                    <path d="M562.5,0.722582023 L562.5,959.125244" id="Line-Copy-53"></path>
                    <path d="M607.5,0.722582023 L607.5,959.125244" id="Line-Copy-57"></path>
                    <path d="M652.5,0.722582023 L652.5,959.125244" id="Line-Copy-61"></path>
                    <path d="M697.5,0.722582023 L697.5,959.125244" id="Line-Copy-65"></path>
                    <path d="M742.5,0.722582023 L742.5,959.125244" id="Line-Copy-69"></path>
                    <path d="M855.5,0.722582023 L855.5,959.125244" id="Line-Copy-83"></path>
                    <path d="M787.5,0.722582023 L787.5,959.125244" id="Line-Copy-73"></path>
                    <path d="M900.5,0.722582023 L900.5,959.125244" id="Line-Copy-84"></path>
                    <path d="M832.5,0.722582023 L832.5,959.125244" id="Line-Copy-77"></path>
                    <path d="M945.5,0.722582023 L945.5,959.125244" id="Line-Copy-85"></path>
                    <path d="M529.5,0.722582023 L529.5,959.125244" id="Line-Copy-50"></path>
                    <path d="M574.5,0.722582023 L574.5,959.125244" id="Line-Copy-54"></path>
                    <path d="M619.5,0.722582023 L619.5,959.125244" id="Line-Copy-58"></path>
                    <path d="M664.5,0.722582023 L664.5,959.125244" id="Line-Copy-62"></path>
                    <path d="M709.5,0.722582023 L709.5,959.125244" id="Line-Copy-66"></path>
                    <path d="M754.5,0.722582023 L754.5,959.125244" id="Line-Copy-70"></path>
                    <path d="M866.5,0.722582023 L866.5,959.125244" id="Line-Copy-86"></path>
                    <path d="M799.5,0.722582023 L799.5,959.125244" id="Line-Copy-74"></path>
                    <path d="M911.5,0.722582023 L911.5,959.125244" id="Line-Copy-87"></path>
                    <path d="M844.5,0.722582023 L844.5,959.125244" id="Line-Copy-78"></path>
                    <path d="M956.5,0.722582023 L956.5,959.125244" id="Line-Copy-88"></path>
                    <path d="M484.5,0.722582023 L484.5,959.125244" id="Line"></path>
                    <path d="M12.5,0.722582023 L12.5,959.125244" id="Line-Copy-47"></path>
                    <path d="M57.5,0.722582023 L57.5,959.125244" id="Line-Copy-51"></path>
                    <path d="M102.5,0.722582023 L102.5,959.125244" id="Line-Copy-55"></path>
                    <path d="M147.5,0.722582023 L147.5,959.125244" id="Line-Copy-59"></path>
                    <path d="M192.5,0.722582023 L192.5,959.125244" id="Line-Copy-63"></path>
                    <path d="M237.5,0.722582023 L237.5,959.125244" id="Line-Copy-67"></path>
                    <path d="M282.5,0.722582023 L282.5,959.125244" id="Line-Copy-71"></path>
                    <path d="M394.5,0.722582023 L394.5,959.125244" id="Line-Copy-79"></path>
                    <path d="M327.5,0.722582023 L327.5,959.125244" id="Line-Copy-75"></path>
                    <path d="M439.5,0.722582023 L439.5,959.125244" id="Line-Copy-80"></path>
                    <path d="M23.5,0.722582023 L23.5,959.125244" id="Line-Copy-48"></path>
                    <path d="M68.5,0.722582023 L68.5,959.125244" id="Line-Copy-52"></path>
                    <path d="M113.5,0.722582023 L113.5,959.125244" id="Line-Copy-56"></path>
                    <path d="M158.5,0.722582023 L158.5,959.125244" id="Line-Copy-60"></path>
                    <path d="M203.5,0.722582023 L203.5,959.125244" id="Line-Copy-64"></path>
                    <path d="M248.5,0.722582023 L248.5,959.125244" id="Line-Copy-68"></path>
                    <path d="M293.5,0.722582023 L293.5,959.125244" id="Line-Copy-72"></path>
                    <path d="M406.5,0.722582023 L406.5,959.125244" id="Line-Copy-81"></path>
                    <path d="M338.5,0.722582023 L338.5,959.125244" id="Line-Copy-76"></path>
                    <path d="M451.5,0.722582023 L451.5,959.125244" id="Line-Copy-82"></path>
                    <path d="M34.5,0.722582023 L34.5,959.125244" id="Line-Copy-49"></path>
                    <path d="M79.5,0.722582023 L79.5,959.125244" id="Line-Copy-53"></path>
                    <path d="M124.5,0.722582023 L124.5,959.125244" id="Line-Copy-57"></path>
                    <path d="M169.5,0.722582023 L169.5,959.125244" id="Line-Copy-61"></path>
                    <path d="M214.5,0.722582023 L214.5,959.125244" id="Line-Copy-65"></path>
                    <path d="M259.5,0.722582023 L259.5,959.125244" id="Line-Copy-69"></path>
                    <path d="M372.5,0.722582023 L372.5,959.125244" id="Line-Copy-83"></path>
                    <path d="M304.5,0.722582023 L304.5,959.125244" id="Line-Copy-73"></path>
                    <path d="M417.5,0.722582023 L417.5,959.125244" id="Line-Copy-84"></path>
                    <path d="M349.5,0.722582023 L349.5,959.125244" id="Line-Copy-77"></path>
                    <path d="M462.5,0.722582023 L462.5,959.125244" id="Line-Copy-85"></path>
                    <path d="M46.5,0.722582023 L46.5,959.125244" id="Line-Copy-50"></path>
                    <path d="M91.5,0.722582023 L91.5,959.125244" id="Line-Copy-54"></path>
                    <path d="M136.5,0.722582023 L136.5,959.125244" id="Line-Copy-58"></path>
                    <path d="M181.5,0.722582023 L181.5,959.125244" id="Line-Copy-62"></path>
                    <path d="M226.5,0.722582023 L226.5,959.125244" id="Line-Copy-66"></path>
                    <path d="M271.5,0.722582023 L271.5,959.125244" id="Line-Copy-70"></path>
                    <path d="M383.5,0.722582023 L383.5,959.125244" id="Line-Copy-86"></path>
                    <path d="M316.5,0.722582023 L316.5,959.125244" id="Line-Copy-74"></path>
                    <path d="M428.5,0.722582023 L428.5,959.125244" id="Line-Copy-87"></path>
                    <path d="M361.5,0.722582023 L361.5,959.125244" id="Line-Copy-78"></path>
                    <path d="M473.5,0.722582023 L473.5,959.125244" id="Line-Copy-88"></path>
                    <path d="M1.5,0.722582023 L1.5,959.125244" id="Line"></path>
                </g>
            </g>
        </g>
    </g>
</svg>