<?xml version="1.0" encoding="UTF-8" standalone="no"?>
<svg width="699px" height="699px" viewBox="0 0 699 699" version="1.1" xmlns="http://www.w3.org/2000/svg" xmlns:xlink="http://www.w3.org/1999/xlink" xmlns:sketch="http://www.bohemiancoding.com/sketch/ns">
    <!-- Generator: Sketch 3.5.1 (25234) - http://www.bohemiancoding.com/sketch -->
    <title>Development</title>
    <desc>Created with Sketch.</desc>
    <defs></defs>
    <g id="Page-1" stroke="none" stroke-width="1" fill="none" fill-rule="evenodd" sketch:type="MSPage">
        <path d="M106.196373,351.743869 C106.196373,288.602598 87.5707349,152.584163 87.5707349,152.584163 C82.3668052,111.494919 111.45261,82.4679394 152.556169,87.5462595 C152.556169,87.5462595 289.972394,106.231245 353.813552,106.231245 C414.769651,106.231245 546.444784,87.8029235 546.444784,87.8029235 C587.523147,82.4913705 616.537113,111.483685 611.452419,152.591525 C611.452419,152.591525 592.775553,289.781659 592.775553,353.512461 C592.775553,414.568028 611.215289,546.442017 611.215289,546.442017 C616.52189,587.51637 587.525039,616.423859 546.436151,611.220802 C546.436151,611.220802 414.216571,592.767972 352.983932,592.767972 C289.419314,592.767972 152.556636,611.428579 152.556636,611.428579 C111.461984,616.611844 82.519166,587.530031 87.7051911,546.419239 C87.7051911,546.419239 106.196373,413.388967 106.196373,351.743869 Z" id="Development" fill="#EAEAEA" sketch:type="MSShapeGroup" transform="translate(349.500000, 349.500000) rotate(-45.000000) translate(-349.500000, -349.500000) "></path>
    </g>
</svg>