<?xml version="1.0" encoding="UTF-8" standalone="no"?>
<svg width="158px" height="125px" viewBox="0 0 158 125" version="1.1" xmlns="http://www.w3.org/2000/svg" xmlns:xlink="http://www.w3.org/1999/xlink" xmlns:sketch="http://www.bohemiancoding.com/sketch/ns">
    <!-- Generator: Sketch 3.5.1 (25234) - http://www.bohemiancoding.com/sketch -->
    <title>Start</title>
    <desc>Created with Sketch.</desc>
    <defs></defs>
    <g id="Page-1" stroke="none" stroke-width="1" fill="none" fill-rule="evenodd" sketch:type="MSPage">
        <path d="M19.0368083,65.8806402 C19.0368083,60.5475194 18.033491,40.4701284 18.033491,40.4701284 C17.2663363,23.9247158 30.0671991,9.97053405 46.6260823,9.23624602 C46.6260823,9.23624602 74.1548982,8.33879507 86.1985205,6.72087315 C98.0873576,5.12374484 118.928803,-0.188398045 118.928803,-0.188398045 C135.040033,-4.03187847 144.981254,5.9135092 141.192934,22.044447 C141.192934,22.044447 136.10637,42.5733824 134.499963,52.8300371 C133.285668,60.5831266 132.42783,76.1675637 132.42783,76.1675637 C131.288866,92.6926775 116.991943,107.265547 100.481851,108.763404 C100.481851,108.763404 82.8548356,110.196368 75.6404174,111.316688 C64.7680253,113.005051 45.9376467,117.330402 45.9376467,117.330402 C29.7594524,120.87506 17.3219963,110.341866 18.099003,93.7896547 C18.099003,93.7896547 19.0368083,78.3104841 19.0368083,65.8806402 Z" id="Start" fill="#FFFFFF" sketch:type="MSShapeGroup" transform="translate(80.000000, 58.500000) rotate(-135.000000) translate(-80.000000, -58.500000) "></path>
    </g>
</svg>