<?xml version="1.0" encoding="UTF-8" standalone="no"?>
<svg width="351px" height="351px" viewBox="0 0 351 351" version="1.1" xmlns="http://www.w3.org/2000/svg" xmlns:xlink="http://www.w3.org/1999/xlink" xmlns:sketch="http://www.bohemiancoding.com/sketch/ns">
    <!-- Generator: Sketch 3.5.1 (25234) - http://www.bohemiancoding.com/sketch -->
    <title>Development Copy</title>
    <desc>Created with Sketch.</desc>
    <defs></defs>
    <g id="Page-1" stroke="none" stroke-width="1" fill="none" fill-rule="evenodd" sketch:type="MSPage">
        <path d="M53.3775594,176.386057 C53.3775594,144.755056 44.0371539,76.5354386 44.0371539,76.5354386 C41.4356152,55.995918 55.9803898,41.4868328 76.5311019,44.0261281 C76.5311019,44.0261281 145.441264,53.3950287 177.422877,53.3950287 C207.959202,53.3950287 274.001745,44.1534272 274.001745,44.1534272 C294.536517,41.4979977 309.039653,55.9959797 306.497166,76.5488711 C306.497166,76.5488711 297.13233,145.345714 297.13233,177.272043 C297.13233,207.858197 306.379649,274.000414 306.379649,274.000414 C309.032598,294.533146 294.531896,308.982951 273.997585,306.382406 C273.997585,306.382406 207.682133,297.128532 177.007273,297.128532 C145.164195,297.128532 76.5314742,306.485225 76.5314742,306.485225 C55.983818,309.077092 41.5124657,294.534465 44.1057062,273.979418 C44.1057062,273.979418 53.3775594,207.267539 53.3775594,176.386057 Z" id="Development-Copy" fill="#EAEAEA" sketch:type="MSShapeGroup" transform="translate(175.261977, 175.261977) rotate(-45.000000) translate(-175.261977, -175.261977) "></path>
    </g>
</svg>