<?xml version="1.0" encoding="UTF-8" standalone="no"?>
<svg width="1420px" height="770px" viewBox="0 0 1420 770" version="1.1" xmlns="http://www.w3.org/2000/svg" xmlns:xlink="http://www.w3.org/1999/xlink">
    <!-- Generator: Sketch 3.6 (26304) - http://www.bohemiancoding.com/sketch -->
    <title>Design Copy 6</title>
    <desc>Created with Sketch.</desc>
    <defs></defs>
    <g id="Page-1" stroke="none" stroke-width="1" fill="none" fill-rule="evenodd">
        <path d="M1415.58684,398.782042 C1396.57222,340.594939 1172.67094,424.020687 1046.05761,401.414544 C946.559065,383.649602 915.609971,317.383441 827.115065,317.383441 C761.492052,317.383441 734.693937,382.426387 638.544434,382.426391 C542.394932,382.426394 562.754358,181.999555 540.265029,95.4650559 C517.7757,8.93055691 466.763135,0.0376194935 458.604194,0.0376143591 C450.445254,0.0376092248 393.128765,-5.24800285 354.27565,109.49575 C315.422534,224.239502 294.150558,295.045557 186.858499,295.045557 C134.633066,295.045557 103.02061,258.675791 50.5199961,258.675789 C-1.98061819,258.675787 0.16649671,317.383433 0.16649671,317.383433 C0.0994592654,317.951638 -2.04765564,376.659284 50.4529586,376.659282 C102.953573,376.65928 115.124982,372.993506 181.999993,372.426392 C259.832557,371.766355 322.192315,401.859506 368.213315,589.730557 C398.869263,714.877014 403.660699,769.147522 440.498413,769.147522 C473.25866,769.147522 476.899159,742.79559 508.860016,630.712891 C548.307495,492.375549 580.057373,457.989502 618.477397,457.989484 C696.72933,457.989448 715.881178,610.627651 827.11503,610.627653 C938.348882,610.627655 902.731098,485.192373 1046.05758,457.989501 C1169.00116,434.655232 1389.74787,510.121034 1413.90164,463.220583 C1417.90611,455.444927 1420,444.577205 1420,429.699538 C1419.97962,425.057203 1419.79211,411.650698 1415.58684,398.782042 Z" id="Design-Copy-6" fill="#0F0D20"></path>
    </g>
</svg>