<?xml version="1.0" encoding="UTF-8" standalone="no"?>
<svg width="351px" height="350px" viewBox="0 0 351 350" version="1.1" xmlns="http://www.w3.org/2000/svg" xmlns:xlink="http://www.w3.org/1999/xlink" xmlns:sketch="http://www.bohemiancoding.com/sketch/ns">
    <!-- Generator: Sketch 3.5.1 (25234) - http://www.bohemiancoding.com/sketch -->
    <title>Group 9</title>
    <desc>Created with Sketch.</desc>
    <defs>
        <path id="path-1" d="M9.37755938,132.386057 C9.37755938,100.755056 0.0371538512,32.5354386 0.0371538512,32.5354386 C-2.56438477,11.995918 11.9803898,-2.51316715 32.5311019,0.0261280852 C32.5311019,0.0261280852 101.441264,9.39502872 133.422877,9.39502872 C163.959202,9.39502872 230.001745,0.153427187 230.001745,0.153427187 C250.536517,-2.50200231 265.039653,11.9959797 262.497166,32.5488711 C262.497166,32.5488711 253.13233,101.345714 253.13233,133.272043 C253.13233,163.858197 262.379649,230.000414 262.379649,230.000414 C265.032598,250.533146 250.531896,264.982951 229.997585,262.382406 C229.997585,262.382406 163.682133,253.128532 133.007273,253.128532 C101.164195,253.128532 32.5314742,262.485225 32.5314742,262.485225 C11.983818,265.077092 -2.48753429,250.534465 0.105706189,229.979418 C0.105706189,229.979418 9.37755938,163.267539 9.37755938,132.386057 Z"></path>
    </defs>
    <g id="Page-1" stroke="none" stroke-width="1" fill="none" fill-rule="evenodd" sketch:type="MSPage">
        <g id="Group-9" sketch:type="MSLayerGroup" transform="translate(175.969083, 174.969083) rotate(-45.000000) translate(-175.969083, -174.969083) translate(44.469083, 43.469083)">
            <mask id="mask-2" sketch:name="Mask" fill="white">
                <use xlink:href="#path-1"></use>
            </mask>
            <g id="Mask"></g>
            <g mask="url(#mask-2)" stroke-linecap="square" stroke="#C3C3C3" sketch:type="MSShapeGroup">
                <g transform="translate(131.733592, 109.557621) rotate(-345.000000) translate(-131.733592, -109.557621) translate(-127.766408, -190.442379)">
                    <path d="M495.135171,0.7592349 L495.135171,599.760899" id="Line-Copy-47"></path>
                    <path d="M506.135171,0.7592349 L506.135171,599.760899" id="Line-Copy-48"></path>
                    <path d="M517.135171,0.7592349 L517.135171,599.760899" id="Line-Copy-49"></path>
                    <path d="M484.135171,0.7592349 L484.135171,599.760899" id="Line"></path>
                    <path d="M12.1351708,0.7592349 L12.1351708,599.760899" id="Line-Copy-47"></path>
                    <path d="M57.1351708,0.7592349 L57.1351708,599.760899" id="Line-Copy-51"></path>
                    <path d="M102.135171,0.7592349 L102.135171,599.760899" id="Line-Copy-55"></path>
                    <path d="M147.135171,0.7592349 L147.135171,599.760899" id="Line-Copy-59"></path>
                    <path d="M192.135171,0.7592349 L192.135171,599.760899" id="Line-Copy-63"></path>
                    <path d="M237.135171,0.7592349 L237.135171,599.760899" id="Line-Copy-67"></path>
                    <path d="M282.135171,0.7592349 L282.135171,599.760899" id="Line-Copy-71"></path>
                    <path d="M394.135171,0.7592349 L394.135171,599.760899" id="Line-Copy-79"></path>
                    <path d="M327.135171,0.7592349 L327.135171,599.760899" id="Line-Copy-75"></path>
                    <path d="M439.135171,0.7592349 L439.135171,599.760899" id="Line-Copy-80"></path>
                    <path d="M23.1351708,0.7592349 L23.1351708,599.760899" id="Line-Copy-48"></path>
                    <path d="M68.1351708,0.7592349 L68.1351708,599.760899" id="Line-Copy-52"></path>
                    <path d="M113.135171,0.7592349 L113.135171,599.760899" id="Line-Copy-56"></path>
                    <path d="M158.135171,0.7592349 L158.135171,599.760899" id="Line-Copy-60"></path>
                    <path d="M203.135171,0.7592349 L203.135171,599.760899" id="Line-Copy-64"></path>
                    <path d="M248.135171,0.7592349 L248.135171,599.760899" id="Line-Copy-68"></path>
                    <path d="M293.135171,0.7592349 L293.135171,599.760899" id="Line-Copy-72"></path>
                    <path d="M406.135171,0.7592349 L406.135171,599.760899" id="Line-Copy-81"></path>
                    <path d="M338.135171,0.7592349 L338.135171,599.760899" id="Line-Copy-76"></path>
                    <path d="M451.135171,0.7592349 L451.135171,599.760899" id="Line-Copy-82"></path>
                    <path d="M34.1351708,0.7592349 L34.1351708,599.760899" id="Line-Copy-49"></path>
                    <path d="M79.1351708,0.7592349 L79.1351708,599.760899" id="Line-Copy-53"></path>
                    <path d="M124.135171,0.7592349 L124.135171,599.760899" id="Line-Copy-57"></path>
                    <path d="M169.135171,0.7592349 L169.135171,599.760899" id="Line-Copy-61"></path>
                    <path d="M214.135171,0.7592349 L214.135171,599.760899" id="Line-Copy-65"></path>
                    <path d="M259.135171,0.7592349 L259.135171,599.760899" id="Line-Copy-69"></path>
                    <path d="M372.135171,0.7592349 L372.135171,599.760899" id="Line-Copy-83"></path>
                    <path d="M304.135171,0.7592349 L304.135171,599.760899" id="Line-Copy-73"></path>
                    <path d="M417.135171,0.7592349 L417.135171,599.760899" id="Line-Copy-84"></path>
                    <path d="M349.135171,0.7592349 L349.135171,599.760899" id="Line-Copy-77"></path>
                    <path d="M462.135171,0.7592349 L462.135171,599.760899" id="Line-Copy-85"></path>
                    <path d="M46.1351708,0.7592349 L46.1351708,599.760899" id="Line-Copy-50"></path>
                    <path d="M91.1351708,0.7592349 L91.1351708,599.760899" id="Line-Copy-54"></path>
                    <path d="M136.135171,0.7592349 L136.135171,599.760899" id="Line-Copy-58"></path>
                    <path d="M181.135171,0.7592349 L181.135171,599.760899" id="Line-Copy-62"></path>
                    <path d="M226.135171,0.7592349 L226.135171,599.760899" id="Line-Copy-66"></path>
                    <path d="M271.135171,0.7592349 L271.135171,599.760899" id="Line-Copy-70"></path>
                    <path d="M383.135171,0.7592349 L383.135171,599.760899" id="Line-Copy-86"></path>
                    <path d="M316.135171,0.7592349 L316.135171,599.760899" id="Line-Copy-74"></path>
                    <path d="M428.135171,0.7592349 L428.135171,599.760899" id="Line-Copy-87"></path>
                    <path d="M361.135171,0.7592349 L361.135171,599.760899" id="Line-Copy-78"></path>
                    <path d="M473.135171,0.7592349 L473.135171,599.760899" id="Line-Copy-88"></path>
                    <path d="M1.13517077,0.7592349 L1.13517077,599.760899" id="Line"></path>
                </g>
            </g>
        </g>
    </g>
</svg>