<?xml version="1.0" encoding="UTF-8" standalone="no"?>
<svg width="1377px" height="840px" viewBox="0 0 1377 840" version="1.1" xmlns="http://www.w3.org/2000/svg" xmlns:xlink="http://www.w3.org/1999/xlink">
    <!-- Generator: Sketch 3.6 (26304) - http://www.bohemiancoding.com/sketch -->
    <title>Design Copy 4</title>
    <desc>Created with Sketch.</desc>
    <defs></defs>
    <g id="Page-1" stroke="none" stroke-width="1" fill="none" fill-rule="evenodd">
        <path d="M1372.58684,398.782042 C1353.57222,340.594939 1129.67094,424.020687 1003.05761,401.414544 C903.559065,383.649602 872.609971,317.383441 784.115065,317.383441 C718.492052,317.383441 691.693937,382.426387 595.544434,382.426391 C499.394932,382.426394 519.754358,181.999555 497.265029,95.4650559 C474.7757,8.93055691 423.763135,0.0376194935 415.604194,0.0376143591 C407.445254,0.0376092248 350.128765,-5.24800285 311.27565,109.49575 C272.422534,224.239502 251.150558,385.045557 143.858499,385.045557 C91.6330656,385.045557 96.1431808,348.675812 47.5199961,348.675789 C-1.10318867,348.675766 0.16649671,407.383433 0.16649671,407.383433 C0.0994592654,407.951638 -5.04765564,466.659284 47.4529586,466.659282 C99.9535729,466.65928 124.596791,435.514277 175.891617,429.699524 C227.670258,423.829926 317.750098,405.096078 343.213315,659.730557 C360.031326,827.91219 387.696851,839.469841 412.918889,839.469841 C438.140927,839.469841 455.759688,814.642751 473.359453,713.593485 C490.959218,612.544218 505.754462,468.415647 595.477397,457.989484 C685.200332,447.563322 672.881178,610.627651 784.11503,610.627653 C895.348882,610.627655 859.731098,485.192373 1003.05758,457.989501 C1126.00116,434.655232 1346.74787,510.121034 1370.90164,463.220583 C1374.90611,455.444927 1377,444.577205 1377,429.699538 C1376.97962,425.057203 1376.79211,411.650698 1372.58684,398.782042 Z" id="Design-Copy-4" fill="#0F0D20"></path>
    </g>
</svg>