<?xml version="1.0" encoding="UTF-8" standalone="no"?>
<svg width="735px" height="524px" viewBox="0 0 735 524" version="1.1" xmlns="http://www.w3.org/2000/svg" xmlns:xlink="http://www.w3.org/1999/xlink" xmlns:sketch="http://www.bohemiancoding.com/sketch/ns">
    <!-- Generator: Sketch 3.5.1 (25234) - http://www.bohemiancoding.com/sketch -->
    <title>Content</title>
    <desc>Created with Sketch.</desc>
    <defs>
        <path id="path-1" d="M136.056274,4.66630643e-06 C277.949655,-5.83288297e-06 570.975975,4.66630643e-06 570.975975,4.66630643e-06 C570.975975,4.66630643e-06 726.574458,0.0770081669 734.002026,170.635032 C739.904726,306.177741 563.197905,523.933969 224.785628,523.933969 C94.1464642,523.933969 0.0343004329,434.050819 0.0343004324,191.367785 C0.0343004322,94.2712663 -5.83710718,1.51654959e-05 136.056274,4.66630643e-06 Z"></path>
    </defs>
    <g id="Page-1" stroke="none" stroke-width="1" fill="none" fill-rule="evenodd" sketch:type="MSPage">
        <g id="Content" sketch:type="MSLayerGroup">
            <mask id="mask-2" sketch:name="Mask" fill="white">
                <use xlink:href="#path-1"></use>
            </mask>
            <use id="Mask" sketch:type="MSShapeGroup" xlink:href="#path-1"></use>
            <g id="line-group" mask="url(#mask-2)" stroke-linecap="square">
                <g transform="translate(-318.750000, -461.470167)">
                    <g id="Lines" transform="translate(0.000000, 270.128878)">
                        <path d="M0,450.214799 L389.711431,225.107399" id="Line" stroke="#3A3656" sketch:type="MSShapeGroup"></path>
                        <path d="M0,465.221959 L389.711431,240.114558" id="Line-Copy-16" stroke="#3A3656" sketch:type="MSShapeGroup"></path>
                        <path d="M0,480.229119 L389.711431,255.121718" id="Line-Copy-17" stroke="#3A3656" sketch:type="MSShapeGroup"></path>
                        <path d="M0,495.236278 L389.711431,270.128878" id="Line-Copy-18" stroke="#3A3656" sketch:type="MSShapeGroup"></path>
                        <path d="M0,510.243438 L389.711431,285.136038" id="Line-Copy-19" stroke="#3A3656" sketch:type="MSShapeGroup"></path>
                        <path d="M0,525.250598 L389.711431,300.143198" id="Line-Copy-20" stroke="#3A3656" sketch:type="MSShapeGroup"></path>
                        <path d="M0,540.257758 L389.711431,315.150358" id="Line-Copy-21" stroke="#3A3656" sketch:type="MSShapeGroup"></path>
                        <path d="M0,555.264918 L389.711431,330.157518" id="Line-Copy-22" stroke="#3A3656" sketch:type="MSShapeGroup"></path>
                        <path d="M0,570.272078 L389.711431,345.164678" id="Line-Copy-23" stroke="#3A3656" sketch:type="MSShapeGroup"></path>
                        <path d="M0,585.279238 L389.711431,360.171838" id="Line-Copy-24" stroke="#3A3656" sketch:type="MSShapeGroup"></path>
                        <path d="M0,600.286398 L389.711431,375.178998" id="Line-Copy-25" stroke="#3A3656" sketch:type="MSShapeGroup"></path>
                        <path d="M0,615.293558 L389.711431,390.186158" id="Line-Copy-26" stroke="#3A3656" sketch:type="MSShapeGroup"></path>
                        <path d="M0,630.300718 L389.711431,405.193317" id="Line-Copy-27" stroke="#3A3656" sketch:type="MSShapeGroup"></path>
                        <path d="M0,645.307878 L389.711431,420.200477" id="Line-Copy-28" stroke="#3A3656" sketch:type="MSShapeGroup"></path>
                        <path d="M0,660.315037 L389.711431,435.207637" id="Line-Copy-29" stroke="#3A3656" sketch:type="MSShapeGroup"></path>
                        <path d="M0,675.322197 L389.711431,450.214797" id="Line-Copy-30" stroke="#3A3656" sketch:type="MSShapeGroup"></path>
                        <path d="M0,435.207639 L389.711431,210.100239" id="Line-Copy" stroke="#3A3656" sketch:type="MSShapeGroup"></path>
                        <path d="M0,420.200479 L389.711431,195.093079" id="Line-Copy-2" stroke="#3A3656" sketch:type="MSShapeGroup"></path>
                        <path d="M0,405.193319 L389.711431,180.085919" id="Line-Copy-3" stroke="#3A3656" sketch:type="MSShapeGroup"></path>
                        <path d="M0,390.186159 L389.711431,165.078759" id="Line-Copy-4" stroke="#3A3656" sketch:type="MSShapeGroup"></path>
                        <path d="M0,375.178999 L389.711431,150.071599" id="Line-Copy-5" stroke="#3A3656" sketch:type="MSShapeGroup"></path>
                        <path d="M0,360.171839 L389.711431,135.064439" id="Line-Copy-6" stroke="#3A3656" sketch:type="MSShapeGroup"></path>
                        <path d="M0,345.164679 L389.711431,120.057279" id="Line-Copy-7" stroke="#3A3656" sketch:type="MSShapeGroup"></path>
                        <path d="M0,330.15752 L389.711431,105.050119" id="Line-Copy-8" stroke="#3A3656" sketch:type="MSShapeGroup"></path>
                        <path d="M0,315.15036 L389.711431,90.0429594" id="Line-Copy-9" stroke="#3A3656" sketch:type="MSShapeGroup"></path>
                        <path d="M0,300.1432 L389.711431,75.0357995" id="Line-Copy-10" stroke="#3A3656" sketch:type="MSShapeGroup"></path>
                        <path d="M0,285.13604 L389.711431,60.0286396" id="Line-Copy-11" stroke="#3A3656" sketch:type="MSShapeGroup"></path>
                        <path d="M0,270.12888 L389.711431,45.0214797" id="Line-Copy-12" stroke="#3A3656" sketch:type="MSShapeGroup"></path>
                        <path d="M0,255.12172 L389.711431,30.0143198" id="Line-Copy-13" stroke="#3A3656" sketch:type="MSShapeGroup"></path>
                        <path d="M0,240.11456 L389.711431,15.0071599" id="Line-Copy-14" stroke="#3A3656" sketch:type="MSShapeGroup"></path>
                        <path d="M0,225.1074 L389.711431,0" id="Line-Copy-15" stroke="#3A3656" sketch:type="MSShapeGroup"></path>
                    </g>
                    <g id="Lines-Copy-4" transform="translate(780.000000, 0.000000)">
                        <path d="M0,465.221959 L389.711431,240.114558" id="Line-Copy-16" stroke="#3A3656" sketch:type="MSShapeGroup"></path>
                        <path d="M0,480.229119 L389.711431,255.121718" id="Line-Copy-17" stroke="#3A3656" sketch:type="MSShapeGroup"></path>
                        <path d="M0,495.236278 L389.711431,270.128878" id="Line-Copy-18" stroke="#3A3656" sketch:type="MSShapeGroup"></path>
                        <path d="M0,510.243438 L389.711431,285.136038" id="Line-Copy-19" stroke="#3A3656" sketch:type="MSShapeGroup"></path>
                        <path d="M0,525.250598 L389.711431,300.143198" id="Line-Copy-20" stroke="#3A3656" sketch:type="MSShapeGroup"></path>
                        <path d="M0,540.257758 L389.711431,315.150358" id="Line-Copy-21" stroke="#3A3656" sketch:type="MSShapeGroup"></path>
                        <path d="M0,555.264918 L389.711431,330.157518" id="Line-Copy-22" stroke="#3A3656" sketch:type="MSShapeGroup"></path>
                        <path d="M0,570.272078 L389.711431,345.164678" id="Line-Copy-23" stroke="#3A3656" sketch:type="MSShapeGroup"></path>
                        <path d="M0,585.279238 L389.711431,360.171838" id="Line-Copy-24" stroke="#3A3656" sketch:type="MSShapeGroup"></path>
                        <path d="M0,600.286398 L389.711431,375.178998" id="Line-Copy-25" stroke="#3A3656" sketch:type="MSShapeGroup"></path>
                        <path d="M0,615.293558 L389.711431,390.186158" id="Line-Copy-26" stroke="#3A3656" sketch:type="MSShapeGroup"></path>
                        <path d="M0,630.300718 L389.711431,405.193317" id="Line-Copy-27" stroke="#3A3656" sketch:type="MSShapeGroup"></path>
                        <path d="M0,645.307878 L389.711431,420.200477" id="Line-Copy-28" stroke="#3A3656" sketch:type="MSShapeGroup"></path>
                        <path d="M0,660.315037 L389.711431,435.207637" id="Line-Copy-29" stroke="#3A3656" sketch:type="MSShapeGroup"></path>
                        <path d="M0,675.322197 L389.711431,450.214797" id="Line-Copy-30" stroke="#3A3656" sketch:type="MSShapeGroup"></path>
                    </g>
                    <g id="Lines-Copy-2" transform="translate(0.000000, 735.350835)">
                        <path d="M0,450.214799 L389.711431,225.107399" id="Line" stroke="#3A3656" sketch:type="MSShapeGroup"></path>
                        <path d="M0,465.221959 L389.711431,240.114558" id="Line-Copy-16" stroke="#3A3656" sketch:type="MSShapeGroup"></path>
                        <path d="M0,435.207639 L389.711431,210.100239" id="Line-Copy" stroke="#3A3656" sketch:type="MSShapeGroup"></path>
                        <path d="M0,420.200479 L389.711431,195.093079" id="Line-Copy-2" stroke="#3A3656" sketch:type="MSShapeGroup"></path>
                        <path d="M0,405.193319 L389.711431,180.085919" id="Line-Copy-3" stroke="#3A3656" sketch:type="MSShapeGroup"></path>
                        <path d="M0,390.186159 L389.711431,165.078759" id="Line-Copy-4" stroke="#3A3656" sketch:type="MSShapeGroup"></path>
                        <path d="M0,375.178999 L389.711431,150.071599" id="Line-Copy-5" stroke="#3A3656" sketch:type="MSShapeGroup"></path>
                        <path d="M0,360.171839 L389.711431,135.064439" id="Line-Copy-6" stroke="#3A3656" sketch:type="MSShapeGroup"></path>
                        <path d="M0,345.164679 L389.711431,120.057279" id="Line-Copy-7" stroke="#3A3656" sketch:type="MSShapeGroup"></path>
                        <path d="M0,330.15752 L389.711431,105.050119" id="Line-Copy-8" stroke="#3A3656" sketch:type="MSShapeGroup"></path>
                        <path d="M0,315.15036 L389.711431,90.0429594" id="Line-Copy-9" stroke="#3A3656" sketch:type="MSShapeGroup"></path>
                        <path d="M0,300.1432 L389.711431,75.0357995" id="Line-Copy-10" stroke="#3A3656" sketch:type="MSShapeGroup"></path>
                        <path d="M0,285.13604 L389.711431,60.0286396" id="Line-Copy-11" stroke="#3A3656" sketch:type="MSShapeGroup"></path>
                        <path d="M0,270.12888 L389.711431,45.0214797" id="Line-Copy-12" stroke="#3A3656" sketch:type="MSShapeGroup"></path>
                        <path d="M0,255.12172 L389.711431,30.0143198" id="Line-Copy-13" stroke="#3A3656" sketch:type="MSShapeGroup"></path>
                        <path d="M0,240.11456 L389.711431,15.0071599" id="Line-Copy-14" stroke="#3A3656" sketch:type="MSShapeGroup"></path>
                        <path d="M0,225.1074 L389.711431,0" id="Line-Copy-15" stroke="#3A3656" sketch:type="MSShapeGroup"></path>
                    </g>
                    <g id="Lines-Copy-5" transform="translate(780.000000, 465.221957)">
                        <path d="M0,450.214799 L389.711431,225.107399" id="Line" stroke="#3A3656" sketch:type="MSShapeGroup"></path>
                        <path d="M0,465.221959 L389.711431,240.114558" id="Line-Copy-16" stroke="#3A3656" sketch:type="MSShapeGroup"></path>
                        <path d="M0,480.229119 L389.711431,255.121718" id="Line-Copy-17" stroke="#3A3656" sketch:type="MSShapeGroup"></path>
                        <path d="M0,495.236278 L389.711431,270.128878" id="Line-Copy-18" stroke="#3A3656" sketch:type="MSShapeGroup"></path>
                        <path d="M0,510.243438 L389.711431,285.136038" id="Line-Copy-19" stroke="#3A3656" sketch:type="MSShapeGroup"></path>
                        <path d="M0,525.250598 L389.711431,300.143198" id="Line-Copy-20" stroke="#3A3656" sketch:type="MSShapeGroup"></path>
                        <path d="M0,540.257758 L389.711431,315.150358" id="Line-Copy-21" stroke="#3A3656" sketch:type="MSShapeGroup"></path>
                        <path d="M0,555.264918 L389.711431,330.157518" id="Line-Copy-22" stroke="#3A3656" sketch:type="MSShapeGroup"></path>
                        <path d="M0,570.272078 L389.711431,345.164678" id="Line-Copy-23" stroke="#3A3656" sketch:type="MSShapeGroup"></path>
                        <path d="M0,585.279238 L389.711431,360.171838" id="Line-Copy-24" stroke="#3A3656" sketch:type="MSShapeGroup"></path>
                        <path d="M0,600.286398 L389.711431,375.178998" id="Line-Copy-25" stroke="#3A3656" sketch:type="MSShapeGroup"></path>
                        <path d="M0,615.293558 L389.711431,390.186158" id="Line-Copy-26" stroke="#3A3656" sketch:type="MSShapeGroup"></path>
                        <path d="M0,630.300718 L389.711431,405.193317" id="Line-Copy-27" stroke="#3A3656" sketch:type="MSShapeGroup"></path>
                        <path d="M0,645.307878 L389.711431,420.200477" id="Line-Copy-28" stroke="#3A3656" sketch:type="MSShapeGroup"></path>
                        <path d="M0,660.315037 L389.711431,435.207637" id="Line-Copy-29" stroke="#3A3656" sketch:type="MSShapeGroup"></path>
                        <path d="M0,675.322197 L389.711431,450.214797" id="Line-Copy-30" stroke="#3A3656" sketch:type="MSShapeGroup"></path>
                        <path d="M0,435.207639 L389.711431,210.100239" id="Line-Copy" stroke="#3A3656" sketch:type="MSShapeGroup"></path>
                        <path d="M0,420.200479 L389.711431,195.093079" id="Line-Copy-2" stroke="#3A3656" sketch:type="MSShapeGroup"></path>
                        <path d="M0,405.193319 L389.711431,180.085919" id="Line-Copy-3" stroke="#3A3656" sketch:type="MSShapeGroup"></path>
                        <path d="M0,390.186159 L389.711431,165.078759" id="Line-Copy-4" stroke="#3A3656" sketch:type="MSShapeGroup"></path>
                        <path d="M0,375.178999 L389.711431,150.071599" id="Line-Copy-5" stroke="#3A3656" sketch:type="MSShapeGroup"></path>
                        <path d="M0,360.171839 L389.711431,135.064439" id="Line-Copy-6" stroke="#3A3656" sketch:type="MSShapeGroup"></path>
                        <path d="M0,345.164679 L389.711431,120.057279" id="Line-Copy-7" stroke="#3A3656" sketch:type="MSShapeGroup"></path>
                        <path d="M0,330.15752 L389.711431,105.050119" id="Line-Copy-8" stroke="#3A3656" sketch:type="MSShapeGroup"></path>
                        <path d="M0,315.15036 L389.711431,90.0429594" id="Line-Copy-9" stroke="#3A3656" sketch:type="MSShapeGroup"></path>
                        <path d="M0,300.1432 L389.711431,75.0357995" id="Line-Copy-10" stroke="#3A3656" sketch:type="MSShapeGroup"></path>
                        <path d="M0,285.13604 L389.711431,60.0286396" id="Line-Copy-11" stroke="#3A3656" sketch:type="MSShapeGroup"></path>
                        <path d="M0,270.12888 L389.711431,45.0214797" id="Line-Copy-12" stroke="#3A3656" sketch:type="MSShapeGroup"></path>
                        <path d="M0,255.12172 L389.711431,30.0143198" id="Line-Copy-13" stroke="#3A3656" sketch:type="MSShapeGroup"></path>
                        <path d="M0,240.11456 L389.711431,15.0071599" id="Line-Copy-14" stroke="#3A3656" sketch:type="MSShapeGroup"></path>
                        <path d="M0,225.1074 L389.711431,0" id="Line-Copy-15" stroke="#3A3656" sketch:type="MSShapeGroup"></path>
                    </g>
                    <g id="Lines-Copy" transform="translate(390.000000, 135.064439)">
                        <path d="M0,450.214799 L389.711431,225.107399" id="Line" stroke="#3A3656" sketch:type="MSShapeGroup"></path>
                        <path d="M0,465.221959 L389.711431,240.114558" id="Line-Copy-16" stroke="#3A3656" sketch:type="MSShapeGroup"></path>
                        <path d="M0,480.229119 L389.711431,255.121718" id="Line-Copy-17" stroke="#3A3656" sketch:type="MSShapeGroup"></path>
                        <path d="M0,495.236278 L389.711431,270.128878" id="Line-Copy-18" stroke="#3A3656" sketch:type="MSShapeGroup"></path>
                        <path d="M0,510.243438 L389.711431,285.136038" id="Line-Copy-19" stroke="#3A3656" sketch:type="MSShapeGroup"></path>
                        <path d="M0,525.250598 L389.711431,300.143198" id="Line-Copy-20" stroke="#3A3656" sketch:type="MSShapeGroup"></path>
                        <path d="M0,540.257758 L389.711431,315.150358" id="Line-Copy-21" stroke="#3A3656" sketch:type="MSShapeGroup"></path>
                        <path d="M0,555.264918 L389.711431,330.157518" id="Line-Copy-22" stroke="#3A3656" sketch:type="MSShapeGroup"></path>
                        <path d="M0,570.272078 L389.711431,345.164678" id="Line-Copy-23" stroke="#3A3656" sketch:type="MSShapeGroup"></path>
                        <path d="M0,585.279238 L389.711431,360.171838" id="Line-Copy-24" stroke="#3A3656" sketch:type="MSShapeGroup"></path>
                        <path d="M0,600.286398 L389.711431,375.178998" id="Line-Copy-25" stroke="#3A3656" sketch:type="MSShapeGroup"></path>
                        <path d="M0,615.293558 L389.711431,390.186158" id="Line-Copy-26" stroke="#3A3656" sketch:type="MSShapeGroup"></path>
                        <path d="M0,630.300718 L389.711431,405.193317" id="Line-Copy-27" stroke="#3A3656" sketch:type="MSShapeGroup"></path>
                        <path d="M0,645.307878 L389.711431,420.200477" id="Line-Copy-28" stroke="#3A3656" sketch:type="MSShapeGroup"></path>
                        <path d="M0,660.315037 L389.711431,435.207637" id="Line-Copy-29" stroke="#3A3656" sketch:type="MSShapeGroup"></path>
                        <path d="M0,675.322197 L389.711431,450.214797" id="Line-Copy-30" stroke="#3A3656" sketch:type="MSShapeGroup"></path>
                        <path d="M0,435.207639 L389.711431,210.100239" id="Line-Copy" stroke="#3A3656" sketch:type="MSShapeGroup"></path>
                        <path d="M0,420.200479 L389.711431,195.093079" id="Line-Copy-2" stroke="#3A3656" sketch:type="MSShapeGroup"></path>
                        <path d="M0,405.193319 L389.711431,180.085919" id="Line-Copy-3" stroke="#3A3656" sketch:type="MSShapeGroup"></path>
                        <path d="M0,390.186159 L389.711431,165.078759" id="Line-Copy-4" stroke="#3A3656" sketch:type="MSShapeGroup"></path>
                        <path d="M0,375.178999 L389.711431,150.071599" id="Line-Copy-5" stroke="#3A3656" sketch:type="MSShapeGroup"></path>
                        <path d="M0,360.171839 L389.711431,135.064439" id="Line-Copy-6" stroke="#3A3656" sketch:type="MSShapeGroup"></path>
                        <path d="M0,345.164679 L389.711431,120.057279" id="Line-Copy-7" stroke="#3A3656" sketch:type="MSShapeGroup"></path>
                        <path d="M0,330.15752 L389.711431,105.050119" id="Line-Copy-8" stroke="#3A3656" sketch:type="MSShapeGroup"></path>
                    </g>
                    <g id="Lines-Copy-3" transform="translate(390.000000, 600.286396)">
                        <path d="M0,450.214799 L389.711431,225.107399" id="Line" stroke="#3A3656" sketch:type="MSShapeGroup"></path>
                        <path d="M0,465.221959 L389.711431,240.114558" id="Line-Copy-16" stroke="#3A3656" sketch:type="MSShapeGroup"></path>
                        <path d="M0,480.229119 L389.711431,255.121718" id="Line-Copy-17" stroke="#3A3656" sketch:type="MSShapeGroup"></path>
                        <path d="M0,495.236278 L389.711431,270.128878" id="Line-Copy-18" stroke="#3A3656" sketch:type="MSShapeGroup"></path>
                        <path d="M0,510.243438 L389.711431,285.136038" id="Line-Copy-19" stroke="#3A3656" sketch:type="MSShapeGroup"></path>
                        <path d="M0,525.250598 L389.711431,300.143198" id="Line-Copy-20" stroke="#3A3656" sketch:type="MSShapeGroup"></path>
                        <path d="M0,540.257758 L389.711431,315.150358" id="Line-Copy-21" stroke="#3A3656" sketch:type="MSShapeGroup"></path>
                        <path d="M0,555.264918 L389.711431,330.157518" id="Line-Copy-22" stroke="#3A3656" sketch:type="MSShapeGroup"></path>
                        <path d="M0,570.272078 L389.711431,345.164678" id="Line-Copy-23" stroke="#3A3656" sketch:type="MSShapeGroup"></path>
                        <path d="M0,585.279238 L389.711431,360.171838" id="Line-Copy-24" stroke="#3A3656" sketch:type="MSShapeGroup"></path>
                        <path d="M0,600.286398 L389.711431,375.178998" id="Line-Copy-25" stroke="#3A3656" sketch:type="MSShapeGroup"></path>
                        <path d="M0,435.207639 L389.711431,210.100239" id="Line-Copy" stroke="#3A3656" sketch:type="MSShapeGroup"></path>
                        <path d="M0,420.200479 L389.711431,195.093079" id="Line-Copy-2" stroke="#3A3656" sketch:type="MSShapeGroup"></path>
                        <path d="M0,405.193319 L389.711431,180.085919" id="Line-Copy-3" stroke="#3A3656" sketch:type="MSShapeGroup"></path>
                        <path d="M0,390.186159 L389.711431,165.078759" id="Line-Copy-4" stroke="#3A3656" sketch:type="MSShapeGroup"></path>
                        <path d="M0,375.178999 L389.711431,150.071599" id="Line-Copy-5" stroke="#3A3656" sketch:type="MSShapeGroup"></path>
                        <path d="M0,360.171839 L389.711431,135.064439" id="Line-Copy-6" stroke="#3A3656" sketch:type="MSShapeGroup"></path>
                        <path d="M0,345.164679 L389.711431,120.057279" id="Line-Copy-7" stroke="#3A3656" sketch:type="MSShapeGroup"></path>
                        <path d="M0,330.15752 L389.711431,105.050119" id="Line-Copy-8" stroke="#3A3656" sketch:type="MSShapeGroup"></path>
                        <path d="M0,315.15036 L389.711431,90.0429594" id="Line-Copy-9" stroke="#3A3656" sketch:type="MSShapeGroup"></path>
                        <path d="M0,300.1432 L389.711431,75.0357995" id="Line-Copy-10" stroke="#3A3656" sketch:type="MSShapeGroup"></path>
                        <path d="M0,285.13604 L389.711431,60.0286396" id="Line-Copy-11" stroke="#3A3656" sketch:type="MSShapeGroup"></path>
                        <path d="M0,270.12888 L389.711431,45.0214797" id="Line-Copy-12" stroke="#3A3656" sketch:type="MSShapeGroup"></path>
                        <path d="M0,255.12172 L389.711431,30.0143198" id="Line-Copy-13" stroke="#3A3656" sketch:type="MSShapeGroup"></path>
                        <path d="M0,240.11456 L389.711431,15.0071599" id="Line-Copy-14" stroke="#3A3656" sketch:type="MSShapeGroup"></path>
                        <path d="M0,225.1074 L389.711431,0" id="Line-Copy-15" stroke="#3A3656" sketch:type="MSShapeGroup"></path>
                    </g>
                </g>
            </g>
        </g>
    </g>
</svg>