<?xml version="1.0" encoding="UTF-8" standalone="no"?>
<svg width="1417px" height="748px" viewBox="0 0 1417 748" version="1.1" xmlns="http://www.w3.org/2000/svg" xmlns:xlink="http://www.w3.org/1999/xlink">
    <!-- Generator: Sketch 3.6 (26304) - http://www.bohemiancoding.com/sketch -->
    <title>Design Copy 2</title>
    <desc>Created with Sketch.</desc>
    <defs></defs>
    <g id="Page-1" stroke="none" stroke-width="1" fill="none" fill-rule="evenodd">
        <path d="M1412.58684,396.836933 C1393.57222,338.64983 1169.67094,422.075578 1043.05761,399.469435 C943.559065,381.704493 912.609971,315.438332 824.115065,315.438332 C758.492052,315.438332 731.693937,380.481279 635.544434,380.481282 C539.394932,380.481285 559.754358,180.054446 537.265029,93.5199471 C514.7757,6.98544809 463.763135,0.0925106727 455.604194,0.0925055384 C447.445254,0.092500404 390.128765,-7.19311167 351.27565,107.550641 C312.422534,222.294393 291.150558,293.100448 183.858499,293.100448 C131.633066,293.100448 100.02061,256.730682 47.5199961,256.73068 C-4.98061819,256.730678 0.16649671,315.438325 0.16649671,315.438325 C0.0994592654,316.006529 -5.04765564,374.714175 47.4529586,374.714173 C99.9535729,374.714171 131.566028,338.344405 183.791462,338.344405 C291.08352,338.344405 372.531608,418.928956 387.647339,550.940015 C403.883453,692.735779 405.941803,747.524719 446.918889,747.524732 C480.078644,747.524742 487.722029,724.38956 508.870483,623.523267 C534.149536,502.956329 562.85376,442.821472 635.477397,456.044375 C710.433821,469.692019 712.881178,608.682542 824.11503,608.682544 C935.348882,608.682546 899.731098,483.247265 1043.05758,456.044392 C1166.00116,432.710124 1386.74787,508.175925 1410.90164,461.275474 C1414.90611,453.499818 1417,442.632096 1417,427.754429 C1416.97962,423.112094 1416.79211,409.705589 1412.58684,396.836933 Z" id="Design-Copy-2" fill="#0F0D20"></path>
    </g>
</svg>