<?xml version="1.0" encoding="UTF-8" standalone="no"?>
<svg width="443px" height="452px" viewBox="0 0 443 452" version="1.1" xmlns="http://www.w3.org/2000/svg" xmlns:xlink="http://www.w3.org/1999/xlink" xmlns:sketch="http://www.bohemiancoding.com/sketch/ns">
    <!-- Generator: Sketch 3.5.1 (25234) - http://www.bohemiancoding.com/sketch -->
    <title>Discovery</title>
    <desc>Created with Sketch.</desc>
    <defs>
        <path id="path-1" d="M0.00376727014,122.478199 C0.00376727014,122.478199 -2.64412296,0.186736624 132.459926,0.186734963 C267.563974,0.186733302 323.109814,0.186734963 323.109814,0.186734963 C323.109814,0.186734963 442.92374,-11.5087014 442.923714,150.215516 C442.923687,311.939734 400.087253,452.000906 310.774558,452.000901 C221.461863,452.000896 234.187095,286.867859 141.890186,264.722845 C49.5932775,242.577831 0.00376725484,197.230967 0.00376725504,144.35676 C0.00376725523,91.4825526 0.00376727014,122.478199 0.00376727014,122.478199 Z"></path>
    </defs>
    <g id="Page-1" stroke="none" stroke-width="1" fill="none" fill-rule="evenodd" sketch:type="MSPage">
        <g id="Discovery" sketch:type="MSLayerGroup">
            <mask id="mask-2" sketch:name="Mask" fill="white">
                <use xlink:href="#path-1"></use>
            </mask>
            <use id="Mask" sketch:type="MSShapeGroup" xlink:href="#path-1"></use>
            <g id="Group" mask="url(#mask-2)" stroke-linecap="square" stroke="#C3C3C3" sketch:type="MSShapeGroup">
                <g transform="translate(231.240845, 202.477901) rotate(-30.000000) translate(-231.240845, -202.477901) translate(-6.259155, -98.022099)">
                    <path d="M12.5,0.452366454 L12.5,600.452366" id="Line-Copy-47"></path>
                    <path d="M57.5,0.452366454 L57.5,600.452366" id="Line-Copy-51"></path>
                    <path d="M102.5,0.452366454 L102.5,600.452366" id="Line-Copy-55"></path>
                    <path d="M147.5,0.452366454 L147.5,600.452366" id="Line-Copy-59"></path>
                    <path d="M192.5,0.452366454 L192.5,600.452366" id="Line-Copy-63"></path>
                    <path d="M237.5,0.452366454 L237.5,600.452366" id="Line-Copy-67"></path>
                    <path d="M282.5,0.452366454 L282.5,600.452366" id="Line-Copy-71"></path>
                    <path d="M394.5,0.452366454 L394.5,600.452366" id="Line-Copy-79"></path>
                    <path d="M327.5,0.452366454 L327.5,600.452366" id="Line-Copy-75"></path>
                    <path d="M439.5,0.452366454 L439.5,600.452366" id="Line-Copy-80"></path>
                    <path d="M23.5,0.452366454 L23.5,600.452366" id="Line-Copy-48"></path>
                    <path d="M68.5,0.452366454 L68.5,600.452366" id="Line-Copy-52"></path>
                    <path d="M113.5,0.452366454 L113.5,600.452366" id="Line-Copy-56"></path>
                    <path d="M158.5,0.452366454 L158.5,600.452366" id="Line-Copy-60"></path>
                    <path d="M203.5,0.452366454 L203.5,600.452366" id="Line-Copy-64"></path>
                    <path d="M248.5,0.452366454 L248.5,600.452366" id="Line-Copy-68"></path>
                    <path d="M293.5,0.452366454 L293.5,600.452366" id="Line-Copy-72"></path>
                    <path d="M406.5,0.452366454 L406.5,600.452366" id="Line-Copy-81"></path>
                    <path d="M338.5,0.452366454 L338.5,600.452366" id="Line-Copy-76"></path>
                    <path d="M451.5,0.452366454 L451.5,600.452366" id="Line-Copy-82"></path>
                    <path d="M34.5,0.452366454 L34.5,600.452366" id="Line-Copy-49"></path>
                    <path d="M79.5,0.452366454 L79.5,600.452366" id="Line-Copy-53"></path>
                    <path d="M124.5,0.452366454 L124.5,600.452366" id="Line-Copy-57"></path>
                    <path d="M169.5,0.452366454 L169.5,600.452366" id="Line-Copy-61"></path>
                    <path d="M214.5,0.452366454 L214.5,600.452366" id="Line-Copy-65"></path>
                    <path d="M259.5,0.452366454 L259.5,600.452366" id="Line-Copy-69"></path>
                    <path d="M372.5,0.452366454 L372.5,600.452366" id="Line-Copy-83"></path>
                    <path d="M304.5,0.452366454 L304.5,600.452366" id="Line-Copy-73"></path>
                    <path d="M417.5,0.452366454 L417.5,600.452366" id="Line-Copy-84"></path>
                    <path d="M349.5,0.452366454 L349.5,600.452366" id="Line-Copy-77"></path>
                    <path d="M462.5,0.452366454 L462.5,600.452366" id="Line-Copy-85"></path>
                    <path d="M46.5,0.452366454 L46.5,600.452366" id="Line-Copy-50"></path>
                    <path d="M91.5,0.452366454 L91.5,600.452366" id="Line-Copy-54"></path>
                    <path d="M136.5,0.452366454 L136.5,600.452366" id="Line-Copy-58"></path>
                    <path d="M181.5,0.452366454 L181.5,600.452366" id="Line-Copy-62"></path>
                    <path d="M226.5,0.452366454 L226.5,600.452366" id="Line-Copy-66"></path>
                    <path d="M271.5,0.452366454 L271.5,600.452366" id="Line-Copy-70"></path>
                    <path d="M383.5,0.452366454 L383.5,600.452366" id="Line-Copy-86"></path>
                    <path d="M316.5,0.452366454 L316.5,600.452366" id="Line-Copy-74"></path>
                    <path d="M428.5,0.452366454 L428.5,600.452366" id="Line-Copy-87"></path>
                    <path d="M361.5,0.452366454 L361.5,600.452366" id="Line-Copy-78"></path>
                    <path d="M473.5,0.452366454 L473.5,600.452366" id="Line-Copy-88"></path>
                    <path d="M1.5,0.452366454 L1.5,600.452366" id="Line"></path>
                </g>
            </g>
        </g>
    </g>
</svg>