<?xml version="1.0" encoding="UTF-8" standalone="no"?>
<svg width="709px" height="416px" viewBox="0 0 709 416" version="1.1" xmlns="http://www.w3.org/2000/svg" xmlns:xlink="http://www.w3.org/1999/xlink" xmlns:sketch="http://www.bohemiancoding.com/sketch/ns">
    <!-- Generator: Sketch 3.5.1 (25234) - http://www.bohemiancoding.com/sketch -->
    <title>Design Copy</title>
    <desc>Created with Sketch.</desc>
    <defs></defs>
    <g id="Page-1" stroke="none" stroke-width="1" fill="none" fill-rule="evenodd" sketch:type="MSPage">
        <path d="M706.791861,195.390946 C697.277842,166.262384 585.248198,208.025454 521.896857,196.70878 C472.112475,187.815621 456.627007,154.642669 412.348328,154.642669 C379.513666,154.642669 366.105153,187.203277 317.996474,187.203279 C269.887796,187.203281 280.074693,86.8692673 268.822093,43.5499513 C257.569493,0.230635355 232.04521,0.284231064 227.962861,0.284228494 C223.880512,0.284225924 195.202042,-6.86717555 175.761775,50.5737402 C156.321508,108.014656 145.678014,143.460287 91.9941256,143.460287 C65.8629806,143.460287 50.0455983,125.25352 23.7767659,125.253519 C-2.49206655,125.253518 0.0833071045,154.642665 0.0833071045,154.642665 C0.0497647277,154.927109 -2.52560892,184.316256 23.7432235,184.316255 C50.0120559,184.316254 65.8294382,166.109487 91.9605832,166.109487 C145.644471,166.109487 179.001284,198.551763 191.741877,326.022212 C200.156817,410.214221 213.999342,416 226.61926,416 C239.239179,416 248.054777,403.571517 256.860869,352.986084 C265.666962,302.400651 273.069805,230.249646 317.962932,225.030291 C362.856059,219.810936 356.692135,301.441214 412.348311,301.441215 C468.004487,301.441216 450.183026,238.648103 521.89684,225.030299 C583.412013,213.349125 693.863263,251.127433 705.948667,227.648988 C707.952314,223.756481 709.000001,218.316081 709,210.868296 C708.989801,208.544335 708.895981,201.833016 706.791861,195.390946 Z" id="Design-Copy" fill="#0F0D20" sketch:type="MSShapeGroup"></path>
    </g>
</svg>