<?xml version="1.0" encoding="UTF-8" standalone="no"?>
<svg width="1417px" height="831px" viewBox="0 0 1417 831" version="1.1" xmlns="http://www.w3.org/2000/svg" xmlns:xlink="http://www.w3.org/1999/xlink" xmlns:sketch="http://www.bohemiancoding.com/sketch/ns">
    <!-- Generator: Sketch 3.5.1 (25234) - http://www.bohemiancoding.com/sketch -->
    <title>Design</title>
    <desc>Created with Sketch.</desc>
    <defs></defs>
    <g id="Page-1" stroke="none" stroke-width="1" fill="none" fill-rule="evenodd" sketch:type="MSPage">
        <path d="M1412.58684,390.312202 C1393.57222,332.125098 1169.67094,415.550847 1043.05761,392.944703 C943.559065,375.179761 912.609971,308.9136 824.115065,308.9136 C758.492052,308.9136 731.693937,373.956547 635.544434,373.95655 C539.394932,373.956553 559.754358,173.529714 537.265029,86.9952153 C514.7757,0.460716297 463.763135,0.567778881 455.604194,0.567773746 C447.445254,0.567768612 390.128765,-13.7178435 351.27565,101.025909 C312.422534,215.769661 291.150558,286.575717 183.858499,286.575717 C131.633066,286.575717 100.02061,250.20595 47.5199961,250.205948 C-4.98061819,250.205946 0.16649671,308.913593 0.16649671,308.913593 C0.0994592654,309.481797 -5.04765564,368.189443 47.4529586,368.189442 C99.9535729,368.18944 131.566028,331.819673 183.791462,331.819673 C291.08352,331.819673 357.750098,396.626238 383.213315,651.260716 C400.031326,819.442349 427.696851,831 452.918889,831 C478.140927,831 495.759688,806.172911 513.359453,705.123644 C530.959218,604.074377 545.754462,459.945806 635.477397,449.519644 C725.200332,439.093481 712.881178,602.15781 824.11503,602.157812 C935.348882,602.157814 899.731098,476.722533 1043.05758,449.519661 C1166.00116,426.185392 1386.74787,501.651194 1410.90164,454.750742 C1414.90611,446.975086 1417,436.107364 1417,421.229697 C1416.97962,416.587362 1416.79211,403.180857 1412.58684,390.312202 Z" id="Design" fill="#0F0D20" sketch:type="MSShapeGroup"></path>
    </g>
</svg>