<?xml version="1.0" encoding="UTF-8" standalone="no"?>
<svg width="300px" height="48px" viewBox="0 0 300 48" version="1.1" xmlns="http://www.w3.org/2000/svg" xmlns:xlink="http://www.w3.org/1999/xlink" xmlns:sketch="http://www.bohemiancoding.com/sketch/ns">
    <!-- Generator: Sketch 3.5.1 (25234) - http://www.bohemiancoding.com/sketch -->
    <title>HTML Arrows</title>
    <desc>Created with Sketch.</desc>
    <defs></defs>
    <g id="Page-1" stroke="none" stroke-width="1" fill="none" fill-rule="evenodd" sketch:type="MSPage">
        <g id="HTML-Arrows" sketch:type="MSArtboardGroup" fill="#0F0D20">
            <path d="M26.3315701,43.5099983 L19.768696,43.5099983 L6.66928772,15.9883871 L6.66928772,43.5099983 L-7.10542736e-15,43.5099983 L-7.10542736e-15,4 L6.53653412,4 L19.6628092,31.1517976 L19.6628092,4 L26.3315701,4 L26.3315701,43.5099983 L26.3315701,43.5099983 Z M48.0041212,24.2180563 C48.0041212,26.8114926 47.1212044,29.0172041 45.3580049,30.8346641 C43.5932249,32.6515972 41.4243894,33.5687559 38.8483375,33.5866671 C36.2717589,33.6045783 34.1018698,32.691634 32.3386702,30.8478341 C30.5738903,29.0045609 29.6925539,26.7951618 29.6925539,24.2185831 C29.6925539,21.6430581 30.5744171,19.4289177 32.3386702,17.5761622 C34.1023966,15.7239335 36.2722857,14.7978191 38.8483375,14.7978191 C41.4423006,14.7978191 43.6164041,15.7202459 45.3717017,17.5640458 C47.1259456,19.4062653 48.0041212,21.6246201 48.0041212,24.2180563 L48.0041212,24.2180563 Z M47.6337808,43.5099983 L30.4058411,43.5099983 L30.4058411,37.556105 L47.6337808,37.556105 L47.6337808,43.5099983 L47.6337808,43.5099983 Z M42.7650954,24.2180563 C42.7650954,23.1244196 42.384219,22.180394 41.6261538,21.3865065 C40.8680887,20.5926189 39.9419743,20.1959385 38.8483375,20.1959385 C37.7547008,20.1959385 36.8328008,20.5926189 36.0826377,21.3865065 C35.3324745,22.1809208 34.9579197,23.1244196 34.9579197,24.2180563 C34.9579197,25.3127467 35.3324745,26.2520311 36.0826377,27.036963 C36.8328008,27.8224218 37.7547008,28.214361 38.8483375,28.214361 C39.9419743,28.214361 40.8680887,27.8224218 41.6261538,27.036963 C42.3847458,26.2520311 42.7650954,25.3127467 42.7650954,24.2180563 L42.7650954,24.2180563 Z" id="Shape" sketch:type="MSShapeGroup"></path>
            <path d="M72,32.9931641 L72,15 L75.7231445,15 L75.7231445,21.8603516 L82.7543945,21.8603516 L82.7543945,15 L86.4897461,15 L86.4897461,32.9931641 L82.7543945,32.9931641 L82.7543945,24.9609375 L75.7231445,24.9609375 L75.7231445,32.9931641 L72,32.9931641 Z M103.673177,15 L103.673177,18.1860352 L98.2898763,18.1860352 L98.2898763,32.9931641 L94.5056966,32.9931641 L94.5056966,18.1860352 L89.0979818,18.1860352 L89.0979818,15 L103.673177,15 Z M118.317546,15 L123.72526,15 L123.72526,32.9931641 L120.221842,32.9931641 L120.221842,20.8227539 C120.221842,20.4728173 120.225911,19.9825064 120.234049,19.3518066 C120.242188,18.7211069 120.246256,18.234865 120.246256,17.8930664 L116.840495,32.9931641 L113.190592,32.9931641 L109.809245,17.8930664 C109.809245,18.234865 109.813314,18.7211069 109.821452,19.3518066 C109.82959,19.9825064 109.833659,20.4728173 109.833659,20.8227539 L109.833659,32.9931641 L106.330241,32.9931641 L106.330241,15 L111.798991,15 L115.070475,29.1479492 L118.317546,15 Z M127.737305,15 L131.49707,15 L131.49707,29.7583008 L140.408203,29.7583008 L140.408203,32.9931641 L127.737305,32.9931641 L127.737305,15 Z M154.560221,26.1938477 L159.125651,26.1938477 L156.879557,19.1137695 L154.560221,26.1938477 Z M154.792155,15 L159.040202,15 L165.412272,32.9931641 L161.335124,32.9931641 L160.175456,29.2944336 L153.547038,29.2944336 L152.30192,32.9931641 L148.371256,32.9931641 L154.792155,15 Z M175.326416,19.3762207 C175.371175,19.3802897 175.470865,19.3863932 175.625488,19.3945312 L175.625488,22.9589844 C175.405761,22.9345702 175.21045,22.9182943 175.039551,22.9101562 C174.868651,22.9020182 174.730306,22.8979492 174.624512,22.8979492 C173.224765,22.8979492 172.284833,23.3536738 171.804687,24.2651367 C171.536131,24.7778346 171.401855,25.5672147 171.401855,26.6333008 L171.401855,32.9931641 L167.898437,32.9931641 L167.898437,19.6875 L171.21875,19.6875 L171.21875,22.0068359 C171.755862,21.1197872 172.223793,20.5135107 172.622558,20.1879883 C173.273603,19.6427382 174.119949,19.3701172 175.161621,19.3701172 C175.226725,19.3701172 175.281657,19.3721517 175.326416,19.3762207 L175.326416,19.3762207 Z M185.576253,19.3762207 C185.621012,19.3802897 185.720702,19.3863932 185.875325,19.3945312 L185.875325,22.9589844 C185.655598,22.9345702 185.460287,22.9182943 185.289388,22.9101562 C185.118489,22.9020182 184.980144,22.8979492 184.874349,22.8979492 C183.474602,22.8979492 182.53467,23.3536738 182.054525,24.2651367 C181.785969,24.7778346 181.651693,25.5672147 181.651693,26.6333008 L181.651693,32.9931641 L178.148275,32.9931641 L178.148275,19.6875 L181.468587,19.6875 L181.468587,22.0068359 C182.005699,21.1197872 182.473631,20.5135107 182.872396,20.1879883 C183.523441,19.6427382 184.369786,19.3701172 185.411458,19.3701172 C185.476563,19.3701172 185.531494,19.3721517 185.576253,19.3762207 L185.576253,19.3762207 Z M196.747721,29.453125 C197.292971,28.7288375 197.565592,27.6993882 197.565592,26.3647461 C197.565592,25.030104 197.292971,24.0026891 196.747721,23.2824707 C196.202471,22.5622523 195.421229,22.2021484 194.403971,22.2021484 C193.386714,22.2021484 192.603437,22.5622523 192.054118,23.2824707 C191.504799,24.0026891 191.230143,25.030104 191.230143,26.3647461 C191.230143,27.6993882 191.504799,28.7288375 192.054118,29.453125 C192.603437,30.1774125 193.386714,30.5395508 194.403971,30.5395508 C195.421229,30.5395508 196.202471,30.1774125 196.747721,29.453125 L196.747721,29.453125 Z M199.530924,31.3757324 C198.407872,32.7632719 196.702974,33.4570312 194.416178,33.4570312 C192.129383,33.4570312 190.424485,32.7632719 189.301432,31.3757324 C188.17838,29.9881929 187.616862,28.3178809 187.616862,26.3647461 C187.616862,24.4441636 188.17838,22.779955 189.301432,21.3720703 C190.424485,19.9641857 192.129383,19.2602539 194.416178,19.2602539 C196.702974,19.2602539 198.407872,19.9641857 199.530924,21.3720703 C200.653977,22.779955 201.215495,24.4441636 201.215495,26.3647461 C201.215495,28.3178809 200.653977,29.9881929 199.530924,31.3757324 L199.530924,31.3757324 Z M210.500976,19.6875 L214.028808,19.6875 L216.055176,29.2700195 L218.130371,19.6875 L221.755859,19.6875 L217.898437,32.9931641 L214.321777,32.9931641 L212.234375,23.3007812 L210.122558,32.9931641 L206.509277,32.9931641 L202.773926,19.6875 L206.509277,19.6875 L208.584472,29.2333984 L210.500976,19.6875 Z M226.903157,28.7451172 C226.9764,29.3636099 227.13509,29.8030586 227.379232,30.0634766 C227.810549,30.5273461 228.608067,30.7592773 229.77181,30.7592773 C230.455407,30.7592773 230.998614,30.6575531 231.401448,30.4541016 C231.804282,30.25065 232.005696,29.9454773 232.005696,29.5385742 C232.005696,29.1479473 231.842938,28.8509125 231.517415,28.6474609 C231.191893,28.4440094 229.983409,28.094078 227.891927,27.5976562 C226.386386,27.2233054 225.324384,26.7553739 224.705892,26.1938477 C224.087399,25.6404595 223.778157,24.8429414 223.778157,23.8012695 C223.778157,22.5724222 224.26033,21.5165246 225.224691,20.6335449 C226.189051,19.7505652 227.546052,19.309082 229.295735,19.309082 C230.9559,19.309082 232.308832,19.6407031 233.354573,20.3039551 C234.400314,20.9672071 235.000487,22.1126221 235.15511,23.7402344 L231.676107,23.7402344 C231.627278,23.292641 231.50114,22.9386406 231.297689,22.6782227 C230.9152,22.2062151 230.264165,21.9702148 229.344564,21.9702148 C228.587724,21.9702148 228.048585,22.088215 227.727132,22.3242188 C227.405679,22.5602225 227.244954,22.8369125 227.244954,23.1542969 C227.244954,23.5530619 227.415851,23.8419587 227.75765,24.0209961 C228.099448,24.2081715 229.307932,24.5296201 231.383138,24.9853516 C232.766608,25.310874 233.804196,25.8032194 234.495931,26.4624023 C235.179528,27.1297234 235.521321,27.9638622 235.521321,28.9648438 C235.521321,30.2832097 235.031011,31.3594522 234.050374,32.1936035 C233.069738,33.0277548 231.554047,33.4448242 229.503255,33.4448242 C227.411773,33.4448242 225.867599,33.003341 224.870687,32.1203613 C223.873774,31.2373817 223.375325,30.1123115 223.375325,28.7451172 L226.903157,28.7451172 Z" id="HTML-Arrows-Copy-2" sketch:type="MSShapeGroup"></path>
        </g>
    </g>
</svg>