<?xml version="1.0" encoding="UTF-8" standalone="no"?>
<svg width="320px" height="48px" viewBox="0 0 320 48" version="1.1" xmlns="http://www.w3.org/2000/svg" xmlns:xlink="http://www.w3.org/1999/xlink" xmlns:sketch="http://www.bohemiancoding.com/sketch/ns">
    <!-- Generator: Sketch 3.5.1 (25234) - http://www.bohemiancoding.com/sketch -->
    <title>HTML Color Codes Copy 2</title>
    <desc>Created with Sketch.</desc>
    <defs></defs>
    <g id="Page-1" stroke="none" stroke-width="1" fill="none" fill-rule="evenodd" sketch:type="MSPage">
        <g id="HTML-Color-Codes-Copy-2" sketch:type="MSArtboardGroup">
            <rect id="Rectangle-4" stroke="#0F0D20" stroke-width="2" sketch:type="MSShapeGroup" x="0" y="0" width="48" height="48" rx="8"></rect>
            <g id="Logo" sketch:type="MSLayerGroup" transform="translate(8.000000, 8.000000)" fill="#0F0D20">
                <path d="M16,31.5789474 L16,22.9663158 C17.9187368,22.9663158 19.7216842,22.2193684 21.0766316,20.8627368 L27.1709474,26.9486316 C25.7225263,28.3987368 24.0336842,29.5381053 22.1511579,30.3351579 C20.2008421,31.1604211 18.1313684,31.5789474 16,31.5789474 L16,31.5789474 Z" id="Shape" opacity="0.7" sketch:type="MSShapeGroup"></path>
                <path d="M27.1692632,26.9494737 L21.0770526,20.8614737 C22.4311579,19.5065263 23.1768421,17.7052632 23.1768421,15.7894737 L31.7894737,15.7894737 C31.7894737,17.9183158 31.3717895,19.9856842 30.5477895,21.9347368 C29.7532632,23.8143158 28.6168421,25.5010526 27.1692632,26.9494737 L27.1692632,26.9494737 Z" id="Shape" opacity="0.8" sketch:type="MSShapeGroup"></path>
                <path d="M31.7898947,15.7894737 L23.1772632,15.7894737 C23.1772632,13.8732632 22.4303158,12.0711579 21.0736842,10.7141053 L27.1650526,4.62484211 C28.6130526,6.07326316 29.7511579,7.76126316 30.5461053,9.64126316 C31.3713684,11.5911579 31.7898947,13.6597895 31.7898947,15.7894737 L31.7898947,15.7894737 Z" id="Shape" opacity="0.9" sketch:type="MSShapeGroup"></path>
                <path d="M16,31.5789474 C13.8707368,31.5789474 11.8025263,31.1608421 9.85305263,30.3364211 C7.97221053,29.5410526 6.28421053,28.4033684 4.83536842,26.9549474 C3.38652632,25.5065263 2.24842105,23.8181053 1.45305263,21.9376842 C0.628210526,19.9877895 0.210105263,17.9195789 0.210105263,15.7894737 C0.210105263,13.6597895 0.628210526,11.5915789 1.45305263,9.64210526 C2.24884211,7.76168421 3.38652632,6.07326316 4.83536842,4.62484211 C6.28421053,3.17642105 7.97221053,2.03789474 9.85305263,1.24294737 C11.8021053,0.418105263 13.8703158,0 16,0 L16.0033684,0 C18.1305263,0 20.1970526,0.417684211 22.1456842,1.24210526 C24.0252632,2.03705263 25.7128421,3.17389474 27.1621053,4.62147368 L21.0757895,10.7153684 C19.7178947,9.35915789 17.9162105,8.61263158 16.0025263,8.61263158 L16.0008421,8.61263158 C12.0425263,8.61263158 8.82273684,11.832 8.82273684,15.7894737 C8.82273684,19.7469474 12.0425263,22.9663158 16,22.9663158 L16,31.5789474 L16,31.5789474 Z" id="Shape" sketch:type="MSShapeGroup"></path>
            </g>
            <path d="M79.6,30.938 L79.6,16.95 C79.6,15.962 78.768,15.13 77.78,15.13 C76.714,15.13 75.882,15.962 75.882,16.95 L75.882,22.098 L67.692,22.098 L67.692,16.95 C67.692,15.962 66.86,15.13 65.872,15.13 C64.832,15.13 64,15.962 64,16.95 L64,30.964 C64,31.952 64.832,32.784 65.82,32.784 C66.86,32.784 67.692,31.952 67.692,30.964 L67.692,25.348 L75.882,25.348 L75.882,30.938 C75.882,31.952 76.714,32.784 77.728,32.784 C78.768,32.784 79.6,31.952 79.6,30.938 L79.6,30.938 Z M96.308,16.924 C96.308,16.014 95.58,15.286 94.722,15.286 L83.776,15.286 C82.892,15.286 82.164,16.014 82.164,16.872 C82.164,17.808 82.892,18.536 83.776,18.536 L87.39,18.536 L87.39,30.938 C87.39,31.952 88.222,32.784 89.236,32.784 C90.276,32.784 91.108,31.952 91.108,30.938 L91.108,18.536 L94.722,18.536 C95.58,18.536 96.308,17.808 96.308,16.924 L96.308,16.924 Z M117.696,30.938 L117.696,17.366 C117.696,15.65 116.006,15.026 114.342,15.286 C113.198,15.286 112.236,15.962 111.82,16.976 L108.284,25.764 L104.748,16.976 C104.124,15.468 102.668,15.104 100.978,15.286 C99.834,15.286 98.898,16.222 98.898,17.366 L98.898,30.964 C98.898,31.952 99.73,32.784 100.718,32.784 C101.758,32.784 102.59,31.952 102.59,30.964 L102.59,20.486 L107.27,32.108 C107.426,32.498 107.816,32.784 108.258,32.784 C108.752,32.784 109.142,32.498 109.298,32.108 L113.978,20.486 L113.978,30.938 C113.978,31.952 114.81,32.784 115.824,32.784 C116.864,32.784 117.696,31.952 117.696,30.938 L117.696,30.938 Z M132.688,30.964 C132.688,30.106 131.96,29.378 131.102,29.378 L125.2,29.378 L125.2,16.95 C125.2,15.962 124.368,15.13 123.38,15.13 C122.34,15.13 121.508,15.962 121.508,16.95 L121.508,30.548 C121.508,31.692 122.444,32.628 123.588,32.628 L131.102,32.628 C131.96,32.628 132.688,31.9 132.688,30.964 L132.688,30.964 Z M150.92,15 C145.72,15 141.69,18.64 141.69,23.97 C141.69,29.3 145.72,32.94 150.92,32.94 C153.91,32.94 155.912,31.64 157.212,30.054 C157.472,29.768 157.576,29.404 157.576,29.04 C157.576,28.156 156.822,27.428 155.886,27.428 C155.366,27.428 154.846,27.636 154.482,28.026 C153.52,29.092 152.22,29.664 150.92,29.664 C147.774,29.664 145.486,27.246 145.486,23.97 C145.486,20.694 147.774,18.276 150.92,18.276 C152.22,18.276 153.494,18.9 154.482,19.94 C154.846,20.33 155.34,20.538 155.834,20.538 C156.796,20.538 157.602,19.81 157.602,18.874 C157.602,18.536 157.472,18.146 157.238,17.86 C155.912,16.274 153.91,15 150.92,15 L150.92,15 Z M173.166,26.336 C173.166,22.774 170.67,19.758 166.51,19.758 C162.376,19.758 159.88,22.774 159.88,26.336 C159.88,29.924 162.376,32.94 166.51,32.94 C170.67,32.94 173.166,29.924 173.166,26.336 L173.166,26.336 Z M169.734,26.336 C169.734,28.312 168.564,30.002 166.51,30.002 C164.456,30.002 163.312,28.312 163.312,26.336 C163.312,24.386 164.456,22.696 166.51,22.696 C168.564,22.696 169.734,24.386 169.734,26.336 L169.734,26.336 Z M179.292,31.146 L179.292,16.742 C179.292,15.858 178.564,15.13 177.68,15.13 C176.718,15.13 175.99,15.858 175.99,16.742 L175.99,31.146 C175.99,32.056 176.718,32.784 177.628,32.784 C178.564,32.784 179.292,32.056 179.292,31.146 L179.292,31.146 Z M195.428,26.336 C195.428,22.774 192.932,19.758 188.772,19.758 C184.638,19.758 182.142,22.774 182.142,26.336 C182.142,29.924 184.638,32.94 188.772,32.94 C192.932,32.94 195.428,29.924 195.428,26.336 L195.428,26.336 Z M191.996,26.336 C191.996,28.312 190.826,30.002 188.772,30.002 C186.718,30.002 185.574,28.312 185.574,26.336 C185.574,24.386 186.718,22.696 188.772,22.696 C190.826,22.696 191.996,24.386 191.996,26.336 L191.996,26.336 Z M205.714,21.318 C205.714,20.564 205.22,19.966 204.258,19.966 C203.01,19.966 202.178,20.954 201.554,21.786 L201.554,21.526 C201.554,20.642 200.826,19.914 199.942,19.914 C198.98,19.914 198.252,20.642 198.252,21.526 L198.252,31.146 C198.252,32.056 198.98,32.784 199.89,32.784 L199.942,32.784 C200.826,32.784 201.554,32.056 201.554,31.146 L201.554,24.334 C202.152,23.554 203.114,23.138 204.128,23.008 C205.038,22.878 205.714,22.306 205.714,21.318 L205.714,21.318 Z M223.504,15 C218.304,15 214.274,18.64 214.274,23.97 C214.274,29.3 218.304,32.94 223.504,32.94 C226.494,32.94 228.496,31.64 229.796,30.054 C230.056,29.768 230.16,29.404 230.16,29.04 C230.16,28.156 229.406,27.428 228.47,27.428 C227.95,27.428 227.43,27.636 227.066,28.026 C226.104,29.092 224.804,29.664 223.504,29.664 C220.358,29.664 218.07,27.246 218.07,23.97 C218.07,20.694 220.358,18.276 223.504,18.276 C224.804,18.276 226.078,18.9 227.066,19.94 C227.43,20.33 227.924,20.538 228.418,20.538 C229.38,20.538 230.186,19.81 230.186,18.874 C230.186,18.536 230.056,18.146 229.822,17.86 C228.496,16.274 226.494,15 223.504,15 L223.504,15 Z M245.75,26.336 C245.75,22.774 243.254,19.758 239.094,19.758 C234.96,19.758 232.464,22.774 232.464,26.336 C232.464,29.924 234.96,32.94 239.094,32.94 C243.254,32.94 245.75,29.924 245.75,26.336 L245.75,26.336 Z M242.318,26.336 C242.318,28.312 241.148,30.002 239.094,30.002 C237.04,30.002 235.896,28.312 235.896,26.336 C235.896,24.386 237.04,22.696 239.094,22.696 C241.148,22.696 242.318,24.386 242.318,26.336 L242.318,26.336 Z M260.534,31.146 L260.534,16.768 C260.534,15.858 259.806,15.13 258.896,15.13 C257.934,15.13 257.206,15.858 257.206,16.768 L257.206,21.682 C256.218,20.408 254.814,19.758 253.332,19.758 C250.134,19.758 247.768,22.254 247.768,26.362 C247.768,30.548 250.16,32.94 253.332,32.94 C254.84,32.94 256.218,32.264 257.206,31.016 L257.206,31.146 C257.206,32.056 257.934,32.784 258.844,32.784 C259.806,32.784 260.534,32.056 260.534,31.146 L260.534,31.146 Z M257.206,28.572 C256.66,29.404 255.464,30.002 254.346,30.002 C252.474,30.002 251.174,28.52 251.174,26.362 C251.174,24.178 252.474,22.696 254.346,22.696 C255.464,22.696 256.66,23.294 257.206,24.126 L257.206,28.572 Z M276.124,25.894 C276.124,25.27 275.942,24.568 275.76,23.996 C274.876,21.396 272.718,19.758 269.884,19.758 C266.062,19.758 263.384,22.696 263.384,26.336 C263.384,30.366 266.27,32.94 270.092,32.94 C271.756,32.94 274.954,32.342 274.954,30.86 C274.954,30.08 274.252,29.534 273.55,29.534 C273.342,29.534 273.108,29.586 272.9,29.69 C272.12,30.106 271.158,30.314 270.456,30.314 C268.324,30.314 267.05,28.988 266.842,27.402 L274.59,27.402 C275.448,27.402 276.124,26.7 276.124,25.894 L276.124,25.894 Z M272.978,25.166 L266.79,25.166 C266.946,23.918 267.83,22.384 269.884,22.384 C272.068,22.384 272.9,23.97 272.978,25.166 L272.978,25.166 Z M288.906,28.91 C288.906,23.84 281.47,25.4 281.47,23.528 C281.47,22.826 282.25,22.28 283.446,22.28 C284.46,22.28 285.474,22.566 286.28,23.034 C286.462,23.138 286.696,23.19 286.904,23.19 C287.58,23.19 288.204,22.644 288.204,21.942 C288.204,21.708 288.126,21.474 287.996,21.292 C287.294,20.278 285.058,19.758 283.42,19.758 C280.118,19.758 278.272,21.604 278.272,23.71 C278.272,28.65 285.734,26.96 285.734,29.04 C285.734,29.82 285.058,30.392 283.628,30.392 C282.536,30.392 281.236,29.95 280.248,29.378 C280.04,29.248 279.806,29.196 279.572,29.196 C278.87,29.196 278.194,29.794 278.194,30.574 C278.194,30.834 278.272,31.068 278.428,31.276 C279.208,32.394 281.834,32.94 283.472,32.94 C286.956,32.94 288.906,31.198 288.906,28.91 L288.906,28.91 Z" id="HTML-Color-Codes" fill="#0F0D20" sketch:type="MSShapeGroup"></path>
        </g>
    </g>
</svg>