<?xml version="1.0" encoding="UTF-8" standalone="no"?>
<svg width="320px" height="48px" viewBox="0 0 320 48" version="1.1" xmlns="http://www.w3.org/2000/svg" xmlns:xlink="http://www.w3.org/1999/xlink" xmlns:sketch="http://www.bohemiancoding.com/sketch/ns">
    <!-- Generator: Sketch 3.5.1 (25234) - http://www.bohemiancoding.com/sketch -->
    <title>HTML Color Codes</title>
    <desc>Created with Sketch.</desc>
    <defs></defs>
    <g id="Page-1" stroke="none" stroke-width="1" fill="none" fill-rule="evenodd" sketch:type="MSPage">
        <g id="HTML-Color-Codes" sketch:type="MSArtboardGroup" fill="#0F0D20">
            <path d="M24,47.3684211 L24,34.4494737 C26.8781053,34.4494737 29.5825263,33.3290526 31.6149474,31.2941053 L40.7564211,40.4229474 C38.5837895,42.5981053 36.0505263,44.3071579 33.2267368,45.5027368 C30.3012632,46.7406316 27.1970526,47.3684211 24,47.3684211 L24,47.3684211 Z" id="Shape" opacity="0.68" sketch:type="MSShapeGroup"></path>
            <path d="M40.7538947,40.4242105 L31.6155789,31.2922105 C33.6467368,29.2597895 34.7652632,26.5578947 34.7652632,23.6842105 L47.6842105,23.6842105 C47.6842105,26.8774737 47.0576842,29.9785263 45.8216842,32.9021053 C44.6298947,35.7214737 42.9252632,38.2515789 40.7538947,40.4242105 L40.7538947,40.4242105 Z" id="Shape" opacity="0.75" sketch:type="MSShapeGroup"></path>
            <path d="M34.7658947,23.6842105 C34.7658947,20.8098947 33.6454737,18.1067368 31.6105263,16.0711579 L40.7475789,6.93726316 C42.9195789,9.10989474 44.6267368,11.6418947 45.8191579,14.4618947 C47.0570526,17.3867368 47.6848421,20.4896842 47.6848421,23.6842105 L34.7658947,23.6842105 Z" id="Shape" opacity="0.88" sketch:type="MSShapeGroup"></path>
            <path d="M24,47.3684211 C20.8061053,47.3684211 17.7037895,46.7412632 14.7795789,45.5046316 C11.9583158,44.3115789 9.42631579,42.6050526 7.25305263,40.4324211 C5.07978947,38.2597895 3.37263158,35.7271579 2.17957895,32.9065263 C0.942315789,29.9816842 0.315157895,26.8793684 0.315157895,23.6842105 C0.315157895,20.4896842 0.942315789,17.3873684 2.17957895,14.4631579 C3.37326316,11.6425263 5.07978947,9.10989474 7.25305263,6.93726316 C9.42631579,4.76463158 11.9583158,3.05684211 14.7795789,1.86442105 C17.7031579,0.627157895 20.8054737,0 24,0 L24.0050526,0 C27.1957895,0 30.2955789,0.626526316 33.2185263,1.86315789 C36.0378947,3.05557895 38.5692632,4.76084211 40.7431579,6.93221053 L31.6136842,16.0730526 C29.5768421,14.0387368 26.8743158,12.9189474 24.0037895,12.9189474 L24.0012632,12.9189474 C18.0637895,12.9189474 13.2341053,17.748 13.2341053,23.6842105 C13.2341053,29.6204211 18.0637895,34.4494737 24,34.4494737 L24,47.3684211 L24,47.3684211 Z" id="Shape" sketch:type="MSShapeGroup"></path>
            <path d="M87.6,30.938 L87.6,16.95 C87.6,15.962 86.768,15.13 85.78,15.13 C84.714,15.13 83.882,15.962 83.882,16.95 L83.882,22.098 L75.692,22.098 L75.692,16.95 C75.692,15.962 74.86,15.13 73.872,15.13 C72.832,15.13 72,15.962 72,16.95 L72,30.964 C72,31.952 72.832,32.784 73.82,32.784 C74.86,32.784 75.692,31.952 75.692,30.964 L75.692,25.348 L83.882,25.348 L83.882,30.938 C83.882,31.952 84.714,32.784 85.728,32.784 C86.768,32.784 87.6,31.952 87.6,30.938 L87.6,30.938 Z M104.308,16.924 C104.308,16.014 103.58,15.286 102.722,15.286 L91.776,15.286 C90.892,15.286 90.164,16.014 90.164,16.872 C90.164,17.808 90.892,18.536 91.776,18.536 L95.39,18.536 L95.39,30.938 C95.39,31.952 96.222,32.784 97.236,32.784 C98.276,32.784 99.108,31.952 99.108,30.938 L99.108,18.536 L102.722,18.536 C103.58,18.536 104.308,17.808 104.308,16.924 L104.308,16.924 Z M125.696,30.938 L125.696,17.366 C125.696,15.65 124.006,15.026 122.342,15.286 C121.198,15.286 120.236,15.962 119.82,16.976 L116.284,25.764 L112.748,16.976 C112.124,15.468 110.668,15.104 108.978,15.286 C107.834,15.286 106.898,16.222 106.898,17.366 L106.898,30.964 C106.898,31.952 107.73,32.784 108.718,32.784 C109.758,32.784 110.59,31.952 110.59,30.964 L110.59,20.486 L115.27,32.108 C115.426,32.498 115.816,32.784 116.258,32.784 C116.752,32.784 117.142,32.498 117.298,32.108 L121.978,20.486 L121.978,30.938 C121.978,31.952 122.81,32.784 123.824,32.784 C124.864,32.784 125.696,31.952 125.696,30.938 L125.696,30.938 Z M140.688,30.964 C140.688,30.106 139.96,29.378 139.102,29.378 L133.2,29.378 L133.2,16.95 C133.2,15.962 132.368,15.13 131.38,15.13 C130.34,15.13 129.508,15.962 129.508,16.95 L129.508,30.548 C129.508,31.692 130.444,32.628 131.588,32.628 L139.102,32.628 C139.96,32.628 140.688,31.9 140.688,30.964 L140.688,30.964 Z M158.92,15 C153.72,15 149.69,18.64 149.69,23.97 C149.69,29.3 153.72,32.94 158.92,32.94 C161.91,32.94 163.912,31.64 165.212,30.054 C165.472,29.768 165.576,29.404 165.576,29.04 C165.576,28.156 164.822,27.428 163.886,27.428 C163.366,27.428 162.846,27.636 162.482,28.026 C161.52,29.092 160.22,29.664 158.92,29.664 C155.774,29.664 153.486,27.246 153.486,23.97 C153.486,20.694 155.774,18.276 158.92,18.276 C160.22,18.276 161.494,18.9 162.482,19.94 C162.846,20.33 163.34,20.538 163.834,20.538 C164.796,20.538 165.602,19.81 165.602,18.874 C165.602,18.536 165.472,18.146 165.238,17.86 C163.912,16.274 161.91,15 158.92,15 L158.92,15 Z M181.166,26.336 C181.166,22.774 178.67,19.758 174.51,19.758 C170.376,19.758 167.88,22.774 167.88,26.336 C167.88,29.924 170.376,32.94 174.51,32.94 C178.67,32.94 181.166,29.924 181.166,26.336 L181.166,26.336 Z M177.734,26.336 C177.734,28.312 176.564,30.002 174.51,30.002 C172.456,30.002 171.312,28.312 171.312,26.336 C171.312,24.386 172.456,22.696 174.51,22.696 C176.564,22.696 177.734,24.386 177.734,26.336 L177.734,26.336 Z M187.292,31.146 L187.292,16.742 C187.292,15.858 186.564,15.13 185.68,15.13 C184.718,15.13 183.99,15.858 183.99,16.742 L183.99,31.146 C183.99,32.056 184.718,32.784 185.628,32.784 C186.564,32.784 187.292,32.056 187.292,31.146 L187.292,31.146 Z M203.428,26.336 C203.428,22.774 200.932,19.758 196.772,19.758 C192.638,19.758 190.142,22.774 190.142,26.336 C190.142,29.924 192.638,32.94 196.772,32.94 C200.932,32.94 203.428,29.924 203.428,26.336 L203.428,26.336 Z M199.996,26.336 C199.996,28.312 198.826,30.002 196.772,30.002 C194.718,30.002 193.574,28.312 193.574,26.336 C193.574,24.386 194.718,22.696 196.772,22.696 C198.826,22.696 199.996,24.386 199.996,26.336 L199.996,26.336 Z M213.714,21.318 C213.714,20.564 213.22,19.966 212.258,19.966 C211.01,19.966 210.178,20.954 209.554,21.786 L209.554,21.526 C209.554,20.642 208.826,19.914 207.942,19.914 C206.98,19.914 206.252,20.642 206.252,21.526 L206.252,31.146 C206.252,32.056 206.98,32.784 207.89,32.784 L207.942,32.784 C208.826,32.784 209.554,32.056 209.554,31.146 L209.554,24.334 C210.152,23.554 211.114,23.138 212.128,23.008 C213.038,22.878 213.714,22.306 213.714,21.318 L213.714,21.318 Z M231.504,15 C226.304,15 222.274,18.64 222.274,23.97 C222.274,29.3 226.304,32.94 231.504,32.94 C234.494,32.94 236.496,31.64 237.796,30.054 C238.056,29.768 238.16,29.404 238.16,29.04 C238.16,28.156 237.406,27.428 236.47,27.428 C235.95,27.428 235.43,27.636 235.066,28.026 C234.104,29.092 232.804,29.664 231.504,29.664 C228.358,29.664 226.07,27.246 226.07,23.97 C226.07,20.694 228.358,18.276 231.504,18.276 C232.804,18.276 234.078,18.9 235.066,19.94 C235.43,20.33 235.924,20.538 236.418,20.538 C237.38,20.538 238.186,19.81 238.186,18.874 C238.186,18.536 238.056,18.146 237.822,17.86 C236.496,16.274 234.494,15 231.504,15 L231.504,15 Z M253.75,26.336 C253.75,22.774 251.254,19.758 247.094,19.758 C242.96,19.758 240.464,22.774 240.464,26.336 C240.464,29.924 242.96,32.94 247.094,32.94 C251.254,32.94 253.75,29.924 253.75,26.336 L253.75,26.336 Z M250.318,26.336 C250.318,28.312 249.148,30.002 247.094,30.002 C245.04,30.002 243.896,28.312 243.896,26.336 C243.896,24.386 245.04,22.696 247.094,22.696 C249.148,22.696 250.318,24.386 250.318,26.336 L250.318,26.336 Z M268.534,31.146 L268.534,16.768 C268.534,15.858 267.806,15.13 266.896,15.13 C265.934,15.13 265.206,15.858 265.206,16.768 L265.206,21.682 C264.218,20.408 262.814,19.758 261.332,19.758 C258.134,19.758 255.768,22.254 255.768,26.362 C255.768,30.548 258.16,32.94 261.332,32.94 C262.84,32.94 264.218,32.264 265.206,31.016 L265.206,31.146 C265.206,32.056 265.934,32.784 266.844,32.784 C267.806,32.784 268.534,32.056 268.534,31.146 L268.534,31.146 Z M265.206,28.572 C264.66,29.404 263.464,30.002 262.346,30.002 C260.474,30.002 259.174,28.52 259.174,26.362 C259.174,24.178 260.474,22.696 262.346,22.696 C263.464,22.696 264.66,23.294 265.206,24.126 L265.206,28.572 Z M284.124,25.894 C284.124,25.27 283.942,24.568 283.76,23.996 C282.876,21.396 280.718,19.758 277.884,19.758 C274.062,19.758 271.384,22.696 271.384,26.336 C271.384,30.366 274.27,32.94 278.092,32.94 C279.756,32.94 282.954,32.342 282.954,30.86 C282.954,30.08 282.252,29.534 281.55,29.534 C281.342,29.534 281.108,29.586 280.9,29.69 C280.12,30.106 279.158,30.314 278.456,30.314 C276.324,30.314 275.05,28.988 274.842,27.402 L282.59,27.402 C283.448,27.402 284.124,26.7 284.124,25.894 L284.124,25.894 Z M280.978,25.166 L274.79,25.166 C274.946,23.918 275.83,22.384 277.884,22.384 C280.068,22.384 280.9,23.97 280.978,25.166 L280.978,25.166 Z M296.906,28.91 C296.906,23.84 289.47,25.4 289.47,23.528 C289.47,22.826 290.25,22.28 291.446,22.28 C292.46,22.28 293.474,22.566 294.28,23.034 C294.462,23.138 294.696,23.19 294.904,23.19 C295.58,23.19 296.204,22.644 296.204,21.942 C296.204,21.708 296.126,21.474 295.996,21.292 C295.294,20.278 293.058,19.758 291.42,19.758 C288.118,19.758 286.272,21.604 286.272,23.71 C286.272,28.65 293.734,26.96 293.734,29.04 C293.734,29.82 293.058,30.392 291.628,30.392 C290.536,30.392 289.236,29.95 288.248,29.378 C288.04,29.248 287.806,29.196 287.572,29.196 C286.87,29.196 286.194,29.794 286.194,30.574 C286.194,30.834 286.272,31.068 286.428,31.276 C287.208,32.394 289.834,32.94 291.472,32.94 C294.956,32.94 296.906,31.198 296.906,28.91 L296.906,28.91 Z" sketch:type="MSShapeGroup"></path>
        </g>
    </g>
</svg>