<?xml version="1.0" encoding="UTF-8" standalone="no"?>
<svg width="320px" height="48px" viewBox="0 0 320 48" version="1.1" xmlns="http://www.w3.org/2000/svg" xmlns:xlink="http://www.w3.org/1999/xlink" xmlns:sketch="http://www.bohemiancoding.com/sketch/ns">
    <!-- Generator: Sketch 3.5.1 (25234) - http://www.bohemiancoding.com/sketch -->
    <title>Monograph</title>
    <desc>Created with Sketch.</desc>
    <defs></defs>
    <g id="Page-1" stroke="none" stroke-width="1" fill="none" fill-rule="evenodd" sketch:type="MSPage">
        <g id="Monograph" sketch:type="MSArtboardGroup">
            <path d="M44.016,3.42848 L44.016,44.016 L3.984,44.016 L3.984,3.98336 L44.57088,3.98336 L44.016,3.42848 Z M48,0 L0,0 L0,48 L48,48 L48,0 L48,0 L48,0 Z" id="Shape" fill="#17152C" sketch:type="MSShapeGroup"></path>
            <rect id="Rectangle-path" fill="#17152C" sketch:type="MSShapeGroup" x="9" y="34" width="30" height="4"></rect>
            <path d="M72,15 L76.475,15 L80.925,28.325 L85.5,15 L89.85,15 L89.85,32.85 L86.425,32.85 L86.425,20.95 L82.35,32.85 L79.45,32.85 L75.35,20.975 L75.35,32.85 L72,32.85 L72,15 Z M99.8958333,33.25 C97.7958228,33.25 96.1708391,32.650006 95.0208333,31.45 C93.8708276,30.249994 93.2958333,28.5333445 93.2958333,26.3 C93.2958333,25.233328 93.4499984,24.2708376 93.7583333,23.4125 C94.0666682,22.5541624 94.5083304,21.8291696 95.0833333,21.2375 C95.6583362,20.6458304 96.3541626,20.1916682 97.1708333,19.875 C97.9875041,19.5583318 98.8958283,19.4 99.8958333,19.4 C100.912505,19.4 101.829163,19.5583318 102.645833,19.875 C103.462504,20.1916682 104.15833,20.6458304 104.733333,21.2375 C105.308336,21.8291696 105.745832,22.5541624 106.045833,23.4125 C106.345835,24.2708376 106.495833,25.233328 106.495833,26.3 C106.495833,27.3833388 106.341668,28.3541624 106.033333,29.2125 C105.724998,30.0708376 105.283336,30.799997 104.708333,31.4 C104.13333,32.000003 103.437504,32.4583317 102.620833,32.775 C101.804163,33.0916683 100.895838,33.25 99.8958333,33.25 L99.8958333,33.25 Z M99.8958333,30.45 C100.895838,30.45 101.641664,30.0916702 102.133333,29.375 C102.625002,28.6583298 102.870833,27.63334 102.870833,26.3 C102.870833,24.96666 102.625002,23.9500035 102.133333,23.25 C101.641664,22.5499965 100.895838,22.2 99.8958333,22.2 C98.8958283,22.2 98.1500024,22.5499965 97.6583333,23.25 C97.1666642,23.9500035 96.9208333,24.96666 96.9208333,26.3 C96.9208333,27.6500068 97.1624976,28.6791631 97.6458333,29.3875 C98.1291691,30.0958369 98.8791616,30.45 99.8958333,30.45 L99.8958333,30.45 Z M109.666667,19.8 L113.066667,19.8 L113.066667,21.6 C113.583336,20.8333295 114.19583,20.2750018 114.904167,19.925 C115.612504,19.5749983 116.349996,19.4 117.116667,19.4 C118.600007,19.4 119.699996,19.7874961 120.416667,20.5625 C121.133337,21.3375039 121.491667,22.558325 121.491667,24.225 L121.491667,32.85 L117.991667,32.85 L117.991667,24.7 C117.991667,23.7833288 117.816668,23.158335 117.466667,22.825 C117.116665,22.491665 116.650003,22.325 116.066667,22.325 C115.616664,22.325 115.229168,22.391666 114.904167,22.525 C114.579165,22.658334 114.275001,22.8499988 113.991667,23.1 C113.758332,23.3333345 113.562501,23.6124984 113.404167,23.9375 C113.245833,24.2625016 113.166667,24.6166648 113.166667,25 L113.166667,32.85 L109.666667,32.85 L109.666667,19.8 Z M131.1375,33.25 C129.037489,33.25 127.412506,32.650006 126.2625,31.45 C125.112494,30.249994 124.5375,28.5333445 124.5375,26.3 C124.5375,25.233328 124.691665,24.2708376 125,23.4125 C125.308335,22.5541624 125.749997,21.8291696 126.325,21.2375 C126.900003,20.6458304 127.595829,20.1916682 128.4125,19.875 C129.229171,19.5583318 130.137495,19.4 131.1375,19.4 C132.154172,19.4 133.070829,19.5583318 133.8875,19.875 C134.704171,20.1916682 135.399997,20.6458304 135.975,21.2375 C136.550003,21.8291696 136.987498,22.5541624 137.2875,23.4125 C137.587501,24.2708376 137.7375,25.233328 137.7375,26.3 C137.7375,27.3833388 137.583335,28.3541624 137.275,29.2125 C136.966665,30.0708376 136.525003,30.799997 135.95,31.4 C135.374997,32.000003 134.679171,32.4583317 133.8625,32.775 C133.045829,33.0916683 132.137505,33.25 131.1375,33.25 L131.1375,33.25 Z M131.1375,30.45 C132.137505,30.45 132.883331,30.0916702 133.375,29.375 C133.866669,28.6583298 134.1125,27.63334 134.1125,26.3 C134.1125,24.96666 133.866669,23.9500035 133.375,23.25 C132.883331,22.5499965 132.137505,22.2 131.1375,22.2 C130.137495,22.2 129.391669,22.5499965 128.9,23.25 C128.408331,23.9500035 128.1625,24.96666 128.1625,26.3 C128.1625,27.6500068 128.404164,28.6791631 128.8875,29.3875 C129.370836,30.0958369 130.120828,30.45 131.1375,30.45 L131.1375,30.45 Z M144.558333,33.675 C144.625,34.008335 144.720833,34.274999 144.845833,34.475 C144.970834,34.675001 145.137499,34.8333328 145.345833,34.95 C145.554168,35.0666673 145.804165,35.1458331 146.095833,35.1875 C146.387501,35.2291669 146.741665,35.25 147.158333,35.25 C147.808337,35.25 148.316665,35.1291679 148.683333,34.8875 C149.050002,34.6458321 149.320832,34.325002 149.495833,33.925 C149.670834,33.524998 149.779166,33.0666693 149.820833,32.55 C149.8625,32.0333308 149.883333,31.5000028 149.883333,30.95 L149.883333,30.55 C149.449998,31.1833365 148.895837,31.6624984 148.220833,31.9875 C147.54583,32.3125016 146.783338,32.475 145.933333,32.475 C144.099991,32.475 142.729171,31.8833392 141.820833,30.7 C140.912495,29.5166607 140.458333,27.92501 140.458333,25.925 C140.458333,24.9749952 140.587499,24.100004 140.845833,23.3 C141.104168,22.499996 141.474998,21.8125029 141.958333,21.2375 C142.441669,20.6624971 143.037496,20.2125016 143.745833,19.8875 C144.45417,19.5624984 145.249996,19.4 146.133333,19.4 C146.833337,19.4 147.512497,19.533332 148.170833,19.8 C148.82917,20.066668 149.433331,20.5583297 149.983333,21.275 L149.983333,19.8 L153.383333,19.8 L153.383333,31.025 C153.383333,32.1250055 153.270834,33.1041624 153.045833,33.9625 C152.820832,34.8208376 152.462502,35.549997 151.970833,36.15 C151.479164,36.750003 150.837504,37.2041651 150.045833,37.5125 C149.254163,37.8208349 148.291672,37.975 147.158333,37.975 C146.108328,37.975 145.212504,37.8875009 144.470833,37.7125 C143.729163,37.5374991 143.116669,37.2708351 142.633333,36.9125 C142.149998,36.5541649 141.779168,36.1041694 141.520833,35.5625 C141.262499,35.0208306 141.091667,34.3916703 141.008333,33.675 L144.558333,33.675 Z M149.908333,25.875 C149.908333,25.0916628 149.820834,24.4583357 149.645833,23.975 C149.470832,23.4916642 149.241668,23.1208346 148.958333,22.8625 C148.674999,22.6041654 148.358335,22.4333338 148.008333,22.35 C147.658332,22.2666663 147.308335,22.225 146.958333,22.225 C146.574998,22.225 146.212502,22.291666 145.870833,22.425 C145.529165,22.558334 145.229168,22.7749985 144.970833,23.075 C144.712499,23.3750015 144.508334,23.758331 144.358333,24.225 C144.208333,24.691669 144.133333,25.2499968 144.133333,25.9 C144.133333,27.2833403 144.395831,28.2624971 144.920833,28.8375 C145.445836,29.4125029 146.099996,29.7 146.883333,29.7 C147.316669,29.7 147.720831,29.6375006 148.095833,29.5125 C148.470835,29.3874994 148.791665,29.1875014 149.058333,28.9125 C149.325001,28.6374986 149.533333,28.2791689 149.683333,27.8375 C149.833334,27.3958311 149.908333,26.8583365 149.908333,26.225 L149.908333,25.875 Z M157.004167,19.8 L160.404167,19.8 L160.404167,21.625 C160.837502,20.9416633 161.362497,20.4291684 161.979167,20.0875 C162.595836,19.7458316 163.24583,19.575 163.929167,19.575 C164.262502,19.575 164.537499,19.5874999 164.754167,19.6125 C164.970834,19.6375001 165.162499,19.6666665 165.329167,19.7 L164.904167,22.875 C164.504165,22.7749995 164.012503,22.725 163.429167,22.725 C163.045831,22.725 162.679168,22.7708329 162.329167,22.8625 C161.979165,22.9541671 161.662501,23.1249987 161.379167,23.375 C161.079165,23.641668 160.858334,23.941665 160.716667,24.275 C160.574999,24.608335 160.504167,24.9499983 160.504167,25.3 L160.504167,32.85 L157.004167,32.85 L157.004167,19.8 Z M175.05,31.2 C174.533331,31.7833362 173.95417,32.2583315 173.3125,32.625 C172.67083,32.9916685 171.841672,33.175 170.825,33.175 C170.241664,33.175 169.687503,33.1000007 169.1625,32.95 C168.637497,32.7999992 168.179169,32.5666682 167.7875,32.25 C167.395831,31.9333318 167.083334,31.5291691 166.85,31.0375 C166.616665,30.5458309 166.5,29.9583368 166.5,29.275 C166.5,28.3749955 166.699998,27.6416695 167.1,27.075 C167.500002,26.5083305 168.024997,26.0666682 168.675,25.75 C169.325003,25.4333318 170.054163,25.208334 170.8625,25.075 C171.670837,24.941666 172.491662,24.8583335 173.325,24.825 L175,24.75 L175,24.1 C175,23.299996 174.779169,22.7500015 174.3375,22.45 C173.895831,22.1499985 173.375003,22 172.775,22 C171.39166,22 170.600001,22.5249948 170.4,23.575 L167.2,23.275 C167.433334,21.9083265 168.033328,20.9208364 169,20.3125 C169.966671,19.7041636 171.266658,19.4 172.9,19.4 C173.900005,19.4 174.749996,19.5208321 175.45,19.7625 C176.150003,20.0041679 176.712498,20.3499977 177.1375,20.8 C177.562502,21.2500023 177.870832,21.7958301 178.0625,22.4375 C178.254168,23.0791699 178.35,23.799996 178.35,24.6 L178.35,32.85 L175.05,32.85 L175.05,31.2 Z M174.975,27.025 L173.425,27.1 C172.691663,27.1333335 172.100002,27.2083327 171.65,27.325 C171.199998,27.4416673 170.854168,27.5874991 170.6125,27.7625 C170.370832,27.9375009 170.208334,28.1416655 170.125,28.375 C170.041666,28.6083345 170,28.8666653 170,29.15 C170,29.5833355 170.149998,29.9249988 170.45,30.175 C170.750001,30.4250013 171.166664,30.55 171.7,30.55 C172.600004,30.55 173.33333,30.3416688 173.9,29.925 C174.216668,29.6916655 174.474999,29.3958351 174.675,29.0375 C174.875001,28.6791649 174.975,28.233336 174.975,27.7 L174.975,27.025 Z M181.845833,19.8 L185.245833,19.8 L185.245833,21.525 C186.245838,20.1083262 187.612491,19.4 189.345833,19.4 C191.162509,19.4 192.520829,20.0166605 193.420833,21.25 C194.320838,22.4833395 194.770833,24.1749892 194.770833,26.325 C194.770833,27.3583385 194.641668,28.2999958 194.383333,29.15 C194.124999,30.0000042 193.750002,30.7291636 193.258333,31.3375 C192.766664,31.9458364 192.170837,32.416665 191.470833,32.75 C190.77083,33.083335 189.979171,33.25 189.095833,33.25 C188.44583,33.25 187.800003,33.1333345 187.158333,32.9 C186.516663,32.6666655 185.912503,32.2000035 185.345833,31.5 L185.345833,37.7 L181.845833,37.7 L181.845833,19.8 Z M185.320833,26.425 C185.320833,27.2750043 185.391666,27.9541641 185.533333,28.4625 C185.675001,28.9708359 185.904165,29.3833318 186.220833,29.7 C186.554168,30.0000015 186.891665,30.1958329 187.233333,30.2875 C187.575002,30.3791671 187.920831,30.425 188.270833,30.425 C188.654168,30.425 189.020831,30.3500007 189.370833,30.2 C189.720835,30.0499992 190.024999,29.8125016 190.283333,29.4875 C190.541668,29.1624984 190.745832,28.7416693 190.895833,28.225 C191.045834,27.7083308 191.120833,27.083337 191.120833,26.35 C191.120833,25.5833295 191.050001,24.9416693 190.908333,24.425 C190.766666,23.9083308 190.570834,23.4875016 190.320833,23.1625 C190.070832,22.8374984 189.775002,22.6041674 189.433333,22.4625 C189.091665,22.3208326 188.729168,22.25 188.345833,22.25 C187.912498,22.25 187.537501,22.3083328 187.220833,22.425 C186.904165,22.5416672 186.595835,22.7249988 186.295833,22.975 C185.962498,23.2916683 185.716667,23.6916643 185.558333,24.175 C185.399999,24.6583358 185.320833,25.2749963 185.320833,26.025 L185.320833,26.425 Z M197.941667,15 L201.441667,15 L201.441667,21.45 C201.958336,20.7499965 202.55833,20.233335 203.241667,19.9 C203.925003,19.566665 204.641663,19.4 205.391667,19.4 C206.875007,19.4 207.974996,19.7874961 208.691667,20.5625 C209.408337,21.3375039 209.766667,22.558325 209.766667,24.225 L209.766667,32.85 L206.266667,32.85 L206.266667,24.7 C206.266667,23.7833288 206.091668,23.158335 205.741667,22.825 C205.391665,22.491665 204.925003,22.325 204.341667,22.325 C203.891664,22.325 203.504168,22.391666 203.179167,22.525 C202.854165,22.658334 202.550001,22.8499988 202.266667,23.1 C202.033332,23.3333345 201.837501,23.6124984 201.679167,23.9375 C201.520832,24.2625016 201.441667,24.6166648 201.441667,25 L201.441667,32.85 L197.941667,32.85 L197.941667,15 Z" id="Monograph-Copy-2" fill="#0F0D20" sketch:type="MSShapeGroup"></path>
        </g>
    </g>
</svg>