<?xml version="1.0" encoding="UTF-8" standalone="no"?>
<svg width="600px" height="600px" viewBox="0 0 600 600" version="1.1" xmlns="http://www.w3.org/2000/svg" xmlns:xlink="http://www.w3.org/1999/xlink">
    <!-- Generator: Sketch 3.6 (26304) - http://www.bohemiancoding.com/sketch -->
    <title>Group 2 Copy</title>
    <desc>Created with Sketch.</desc>
    <defs>
        <rect id="path-1" x="0" y="0" width="600" height="600"></rect>
    </defs>
    <g id="Page-1" stroke="none" stroke-width="1" fill="none" fill-rule="evenodd">
        <g id="Group-2-Copy">
            <mask id="mask-2" fill="white">
                <use xlink:href="#path-1"></use>
            </mask>
            <use id="Mask" xlink:href="#path-1"></use>
            <g mask="url(#mask-2)" stroke="#B3B3BC" stroke-linecap="square">
                <g transform="translate(300.000000, 300.000000) rotate(-75.000000) translate(-300.000000, -300.000000) translate(-273.000000, -300.000000)">
                    <path d="M577.5,0 L577.5,1200" id="Line-Copy-105"></path>
                    <path d="M289.5,0 L289.5,1200" id="Line-Copy-31"></path>
                    <path d="M865.5,0 L865.5,1200" id="Line-Copy-106"></path>
                    <path d="M586.5,0 L586.5,1200" id="Line-Copy-107"></path>
                    <path d="M298.5,0 L298.5,1200" id="Line-Copy-32"></path>
                    <path d="M874.5,-2.27373675e-13 L874.5,1200" id="Line-Copy-108"></path>
                    <path d="M595.5,0 L595.5,1200" id="Line-Copy-109"></path>
                    <path d="M307.5,0 L307.5,1200" id="Line-Copy-33"></path>
                    <path d="M883.5,-1.13686838e-13 L883.5,1200" id="Line-Copy-110"></path>
                    <path d="M604.5,-1.13686838e-13 L604.5,1200" id="Line-Copy-111"></path>
                    <path d="M316.5,-1.13686838e-13 L316.5,1200" id="Line-Copy-34"></path>
                    <path d="M892.5,-1.13686838e-13 L892.5,1200" id="Line-Copy-112"></path>
                    <path d="M613.5,1.13686838e-13 L613.5,1200" id="Line-Copy-113"></path>
                    <path d="M325.5,-1.13686838e-13 L325.5,1200" id="Line-Copy-35"></path>
                    <path d="M901.5,0 L901.5,1200" id="Line-Copy-114"></path>
                    <path d="M622.5,-1.13686838e-13 L622.5,1200" id="Line-Copy-115"></path>
                    <path d="M334.5,-1.13686838e-13 L334.5,1200" id="Line-Copy-36"></path>
                    <path d="M910.5,-2.27373675e-13 L910.5,1200" id="Line-Copy-116"></path>
                    <path d="M631.5,0 L631.5,1200" id="Line-Copy-117"></path>
                    <path d="M343.5,1.13686838e-13 L343.5,1200" id="Line-Copy-37"></path>
                    <path d="M919.5,0 L919.5,1200" id="Line-Copy-118"></path>
                    <path d="M640.5,0 L640.5,1200" id="Line-Copy-119"></path>
                    <path d="M352.5,0 L352.5,1200" id="Line-Copy-38"></path>
                    <path d="M928.5,0 L928.5,1200" id="Line-Copy-120"></path>
                    <path d="M649.5,0 L649.5,1200" id="Line-Copy-121"></path>
                    <path d="M361.5,0 L361.5,1200" id="Line-Copy-39"></path>
                    <path d="M937.5,0 L937.5,1200" id="Line-Copy-122"></path>
                    <path d="M658.5,0 L658.5,1200" id="Line-Copy-123"></path>
                    <path d="M370.5,0 L370.5,1200" id="Line-Copy-40"></path>
                    <path d="M946.5,0 L946.5,1200" id="Line-Copy-124"></path>
                    <path d="M667.5,0 L667.5,1200" id="Line-Copy-125"></path>
                    <path d="M379.5,0 L379.5,1200" id="Line-Copy-41"></path>
                    <path d="M955.5,-1.13686838e-13 L955.5,1200" id="Line-Copy-126"></path>
                    <path d="M676.5,-1.13686838e-13 L676.5,1200" id="Line-Copy-127"></path>
                    <path d="M388.5,-1.13686838e-13 L388.5,1200" id="Line-Copy-42"></path>
                    <path d="M964.5,-1.13686838e-13 L964.5,1200" id="Line-Copy-128"></path>
                    <path d="M109.5,-1.13686838e-13 L109.5,1200" id="Line"></path>
                    <path d="M685.5,-1.13686838e-13 L685.5,1200" id="Line-Copy-129"></path>
                    <path d="M397.5,-1.13686838e-13 L397.5,1200" id="Line-Copy-43"></path>
                    <path d="M973.5,-2.27373675e-13 L973.5,1200" id="Line-Copy-130"></path>
                    <path d="M118.5,1.13686838e-13 L118.5,1200" id="Line"></path>
                    <path d="M694.5,1.13686838e-13 L694.5,1200" id="Line-Copy-131"></path>
                    <path d="M406.5,1.13686838e-13 L406.5,1200" id="Line-Copy-44"></path>
                    <path d="M982.5,0 L982.5,1200" id="Line-Copy-132"></path>
                    <path d="M127.5,1.13686838e-13 L127.5,1200" id="Line"></path>
                    <path d="M703.5,0 L703.5,1200" id="Line-Copy-133"></path>
                    <path d="M415.5,1.13686838e-13 L415.5,1200" id="Line-Copy-45"></path>
                    <path d="M991.5,0 L991.5,1200" id="Line-Copy-134"></path>
                    <path d="M136.5,0 L136.5,1200" id="Line"></path>
                    <path d="M712.5,0 L712.5,1200" id="Line-Copy-135"></path>
                    <path d="M424.5,0 L424.5,1200" id="Line-Copy-46"></path>
                    <path d="M1000.5,0 L1000.5,1200" id="Line-Copy-136"></path>
                    <path d="M145.5,0 L145.5,1200" id="Line"></path>
                    <path d="M721.5,0 L721.5,1200" id="Line-Copy-137"></path>
                    <path d="M433.5,0 L433.5,1200" id="Line-Copy-89"></path>
                    <path d="M1009.5,0 L1009.5,1200" id="Line-Copy-138"></path>
                    <path d="M154.5,0 L154.5,1200" id="Line"></path>
                    <path d="M730.5,0 L730.5,1200" id="Line-Copy-139"></path>
                    <path d="M442.5,0 L442.5,1200" id="Line-Copy-90"></path>
                    <path d="M1018.5,-2.27373675e-13 L1018.5,1200" id="Line-Copy-140"></path>
                    <path d="M163.5,0 L163.5,1200" id="Line"></path>
                    <path d="M739.5,-1.13686838e-13 L739.5,1200" id="Line-Copy-141"></path>
                    <path d="M451.5,0 L451.5,1200" id="Line-Copy-91"></path>
                    <path d="M1027.5,-1.13686838e-13 L1027.5,1200" id="Line-Copy-142"></path>
                    <path d="M172.5,0 L172.5,1200" id="Line"></path>
                    <path d="M748.5,-1.13686838e-13 L748.5,1200" id="Line-Copy-143"></path>
                    <path d="M460.5,-1.13686838e-13 L460.5,1200" id="Line-Copy-92"></path>
                    <path d="M1036.5,-1.13686838e-13 L1036.5,1200" id="Line-Copy-144"></path>
                    <path d="M181.5,1.13686838e-13 L181.5,1200" id="Line"></path>
                    <path d="M757.5,1.13686838e-13 L757.5,1200" id="Line-Copy-145"></path>
                    <path d="M469.5,-1.13686838e-13 L469.5,1200" id="Line-Copy-93"></path>
                    <path d="M190.5,-1.13686838e-13 L190.5,1200" id="Line"></path>
                    <path d="M766.5,-1.13686838e-13 L766.5,1200" id="Line-Copy-147"></path>
                    <path d="M478.5,-1.13686838e-13 L478.5,1200" id="Line-Copy-94"></path>
                    <path d="M199.5,1.13686838e-13 L199.5,1200" id="Line"></path>
                    <path d="M775.5,0 L775.5,1200" id="Line-Copy-149"></path>
                    <path d="M487.5,0 L487.5,1200" id="Line-Copy-95"></path>
                    <path d="M208.5,0 L208.5,1200" id="Line"></path>
                    <path d="M784.5,0 L784.5,1200" id="Line-Copy-151"></path>
                    <path d="M496.5,0 L496.5,1200" id="Line-Copy-96"></path>
                    <path d="M217.5,0 L217.5,1200" id="Line"></path>
                    <path d="M793.5,0 L793.5,1200" id="Line-Copy-153"></path>
                    <path d="M505.5,0 L505.5,1200" id="Line-Copy-97"></path>
                    <path d="M226.5,0 L226.5,1200" id="Line"></path>
                    <path d="M802.5,0 L802.5,1200" id="Line-Copy-155"></path>
                    <path d="M514.5,0 L514.5,1200" id="Line-Copy-98"></path>
                    <path d="M235.5,0 L235.5,1200" id="Line"></path>
                    <path d="M811.5,-1.13686838e-13 L811.5,1200" id="Line-Copy-157"></path>
                    <path d="M523.5,0 L523.5,1200" id="Line-Copy-99"></path>
                    <path d="M244.5,0 L244.5,1200" id="Line"></path>
                    <path d="M820.5,-1.13686838e-13 L820.5,1200" id="Line-Copy-159"></path>
                    <path d="M532.5,-1.13686838e-13 L532.5,1200" id="Line-Copy-100"></path>
                    <path d="M253.5,-1.13686838e-13 L253.5,1200" id="Line"></path>
                    <path d="M829.5,-1.13686838e-13 L829.5,1200" id="Line-Copy-161"></path>
                    <path d="M541.5,-1.13686838e-13 L541.5,1200" id="Line-Copy-101"></path>
                    <path d="M262.5,1.13686838e-13 L262.5,1200" id="Line"></path>
                    <path d="M838.5,1.13686838e-13 L838.5,1200" id="Line-Copy-163"></path>
                    <path d="M550.5,1.13686838e-13 L550.5,1200" id="Line-Copy-102"></path>
                    <path d="M271.5,1.13686838e-13 L271.5,1200" id="Line"></path>
                    <path d="M847.5,0 L847.5,1200" id="Line-Copy-165"></path>
                    <path d="M559.5,0 L559.5,1200" id="Line-Copy-103"></path>
                    <path d="M280.5,0 L280.5,1200" id="Line"></path>
                    <path d="M856.5,0 L856.5,1200" id="Line-Copy-167"></path>
                    <path d="M568.5,0 L568.5,1200" id="Line-Copy-104"></path>
                </g>
            </g>
        </g>
    </g>
</svg>