<?xml version="1.0" encoding="UTF-8" standalone="no"?>
<svg width="64px" height="64px" viewBox="0 0 64 64" version="1.1" xmlns="http://www.w3.org/2000/svg" xmlns:xlink="http://www.w3.org/1999/xlink" xmlns:sketch="http://www.bohemiancoding.com/sketch/ns">
    <!-- Generator: Sketch 3.5.1 (25234) - http://www.bohemiancoding.com/sketch -->
    <title>Artboard 13 Copy 6</title>
    <desc>Created with Sketch.</desc>
    <defs></defs>
    <g id="Page-1" stroke="none" stroke-width="1" fill="none" fill-rule="evenodd" sketch:type="MSPage">
        <g id="Artboard-13-Copy-6" sketch:type="MSArtboardGroup" fill="#FFFFFF">
            <path d="M26.316368,27.186451 L21.137645,27.186451 C7.92661687,27.186451 0,31.8367329 0,41.6657378 C0,52.5516249 9.19487557,56.1450246 21.137645,56.1450246 C27.1618738,56.1450246 34.3486731,55.2995188 38.8932668,54.2426365 L38.8932668,23.8044278 C38.8932668,11.227529 30.8609617,7 20.0807627,7 C14.0565339,7 8.45505799,8.37394692 4.227529,10.8047761 L4.227529,21.7963515 C7.92661687,19.5768988 12.2598341,17.8858872 17.86131,17.8858872 C22.5115919,17.8858872 26.316368,19.7882752 26.316368,24.3328689 L26.316368,27.186451 Z M26.316368,46.3160197 C24.6253564,46.7387726 22.4059037,46.8444608 21.0319568,46.8444608 C15.958922,46.8444608 12.682587,45.047761 12.682587,41.0316084 C12.682587,37.0154559 16.1702984,35.3244443 22.088839,35.3244443 L26.316368,35.3244443 L26.316368,46.3160197 Z M47.089884,47.6899666 C47.089884,52.3402485 50.8946601,56.0393364 55.544942,56.0393364 C60.1952239,56.0393364 64,52.3402485 64,47.6899666 C64,43.0396847 60.1952239,39.1292204 55.544942,39.1292204 C50.8946601,39.1292204 47.089884,43.0396847 47.089884,47.6899666 L47.089884,47.6899666 Z M47.089884,18.3086401 C47.089884,22.958922 50.8946601,26.6580098 55.544942,26.6580098 C60.1952239,26.6580098 64,22.958922 64,18.3086401 C64,13.6583582 60.1952239,9.74789385 55.544942,9.74789385 C50.8946601,9.74789385 47.089884,13.6583582 47.089884,18.3086401 L47.089884,18.3086401 Z" id="a:-copy" sketch:type="MSShapeGroup"></path>
        </g>
    </g>
</svg>