<?xml version="1.0" encoding="UTF-8" standalone="no"?>
<svg width="300px" height="80px" viewBox="0 0 300 80" version="1.1" xmlns="http://www.w3.org/2000/svg" xmlns:xlink="http://www.w3.org/1999/xlink" xmlns:sketch="http://www.bohemiancoding.com/sketch/ns">
    <!-- Generator: Sketch 3.5.1 (25234) - http://www.bohemiancoding.com/sketch -->
    <title>AgendaNYC 300</title>
    <desc>Created with Sketch.</desc>
    <defs></defs>
    <g id="Page-1" stroke="none" stroke-width="1" fill="none" fill-rule="evenodd" sketch:type="MSPage">
        <g id="AgendaNYC-300" sketch:type="MSArtboardGroup" fill="#0F0D20">
            <path d="M86.675,41.425 L83.98,41.425 C77.105,41.425 72.98,43.845 72.98,48.96 C72.98,54.625 77.765,56.495 83.98,56.495 C87.115,56.495 90.855,56.055 93.22,55.505 L93.22,39.665 C93.22,33.12 89.04,30.92 83.43,30.92 C80.295,30.92 77.38,31.635 75.18,32.9 L75.18,38.62 C77.105,37.465 79.36,36.585 82.275,36.585 C84.695,36.585 86.675,37.575 86.675,39.94 L86.675,41.425 Z M86.675,51.38 C85.795,51.6 84.64,51.655 83.925,51.655 C81.285,51.655 79.58,50.72 79.58,48.63 C79.58,46.54 81.395,45.66 84.475,45.66 L86.675,45.66 L86.675,51.38 Z M114.637222,55.45 C114.637222,59.19 112.162222,60.895 108.972222,60.895 C105.947222,60.895 103.527222,60.18 100.557222,58.475 L100.557222,64.635 C103.087222,65.845 105.947222,66.45 108.972222,66.45 C114.527222,66.45 121.292222,64.03 121.292222,55.615 L121.292222,32.79 C118.597222,31.69 115.132222,30.92 111.337222,30.92 C102.757222,30.92 97.5322222,35.65 97.5322222,43.46 C97.5322222,51.49 102.702222,55.78 110.127222,55.78 C111.997222,55.78 113.812222,55.395 114.637222,54.955 L114.637222,55.45 Z M114.637222,49.51 C113.482222,49.895 112.382222,50.225 110.897222,50.225 C106.882222,50.225 104.242222,47.695 104.242222,43.46 C104.242222,38.95 106.937222,36.695 111.337222,36.695 C112.547222,36.695 113.757222,36.915 114.637222,37.19 L114.637222,49.51 Z M147.484444,45.55 L147.484444,42.47 C147.484444,35.98 144.514444,30.92 136.869444,30.92 C129.994444,30.92 124.879444,35.925 124.879444,44.01 C124.879444,51.655 129.884444,56.55 137.859444,56.55 C141.159444,56.55 144.459444,55.89 146.714444,54.295 L146.714444,48.685 C144.294444,50.115 141.819444,50.885 138.519444,50.885 C135.219444,50.885 131.809444,49.125 131.314444,45.66 L131.314444,45.55 L147.484444,45.55 Z M131.369444,41.59 C131.974444,38.4 133.844444,36.365 136.704444,36.365 C139.839444,36.365 141.269444,38.565 141.324444,41.59 L131.369444,41.59 Z M151.566667,56 L158.166667,56 L158.166667,37.575 C159.541667,37.135 161.191667,36.86 162.786667,36.86 C165.646667,36.86 167.131667,38.29 167.131667,41.04 L167.131667,56 L173.786667,56 L173.786667,40.6 C173.786667,33.285 169.661667,30.92 163.281667,30.92 C159.596667,30.92 155.031667,31.745 151.566667,33.065 L151.566667,56 Z M201.298889,18.6 L194.698889,18.6 L194.698889,31.69 C193.598889,31.14 191.783889,30.92 190.078889,30.92 C182.433889,30.92 177.208889,35.98 177.208889,43.79 C177.208889,52.04 182.818889,56.55 191.288889,56.55 C194.588889,56.55 198.383889,56.165 201.298889,55.395 L201.298889,18.6 Z M194.698889,50.61 C193.598889,50.83 192.333889,50.885 191.508889,50.885 C186.833889,50.885 183.918889,48.245 183.918889,43.57 C183.918889,39.225 186.613889,36.75 190.628889,36.75 C192.278889,36.75 193.653889,37.025 194.698889,37.52 L194.698889,50.61 Z M219.021111,41.425 L216.326111,41.425 C209.451111,41.425 205.326111,43.845 205.326111,48.96 C205.326111,54.625 210.111111,56.495 216.326111,56.495 C219.461111,56.495 223.201111,56.055 225.566111,55.505 L225.566111,39.665 C225.566111,33.12 221.386111,30.92 215.776111,30.92 C212.641111,30.92 209.726111,31.635 207.526111,32.9 L207.526111,38.62 C209.451111,37.465 211.706111,36.585 214.621111,36.585 C217.041111,36.585 219.021111,37.575 219.021111,39.94 L219.021111,41.425 Z M219.021111,51.38 C218.141111,51.6 216.986111,51.655 216.271111,51.655 C213.631111,51.655 211.926111,50.72 211.926111,48.63 C211.926111,46.54 213.741111,45.66 216.821111,45.66 L219.021111,45.66 L219.021111,51.38 Z" id="agenda" sketch:type="MSShapeGroup"></path>
            <path d="M23.026822,36.6631446 L18.4954394,36.6631446 C6.93578976,36.6631446 0,40.7321412 0,49.3325205 C0,58.8576718 8.04551612,62.0018965 18.4954394,62.0018965 C23.7666396,62.0018965 30.055089,61.2620789 34.0316084,60.337307 L34.0316084,33.7038743 C34.0316084,22.6990879 27.0033415,19 17.5706674,19 C12.2994672,19 7.39817574,20.2022036 3.69908787,22.3291791 L3.69908787,31.9468075 C6.93578976,30.0047864 10.7273548,28.5251513 15.6286463,28.5251513 C19.6976429,28.5251513 23.026822,30.1897408 23.026822,34.1662603 L23.026822,36.6631446 Z M23.026822,53.4015172 C21.5471869,53.771426 19.6051657,53.8639032 18.4029622,53.8639032 C13.9640567,53.8639032 11.0972636,52.2917908 11.0972636,48.7776574 C11.0972636,45.2635239 14.1490111,43.7838887 19.3277341,43.7838887 L23.026822,43.7838887 L23.026822,53.4015172 Z M41.2036485,54.6037208 C41.2036485,58.6727174 44.5328276,61.9094193 48.6018243,61.9094193 C52.6708209,61.9094193 56,58.6727174 56,54.6037208 C56,50.5347241 52.6708209,47.1130678 48.6018243,47.1130678 C44.5328276,47.1130678 41.2036485,50.5347241 41.2036485,54.6037208 L41.2036485,54.6037208 Z M41.2036485,28.8950601 C41.2036485,32.9640567 44.5328276,36.2007586 48.6018243,36.2007586 C52.6708209,36.2007586 56,32.9640567 56,28.8950601 C56,24.8260634 52.6708209,21.4044071 48.6018243,21.4044071 C44.5328276,21.4044071 41.2036485,24.8260634 41.2036485,28.8950601 L41.2036485,28.8950601 Z" id="a:" sketch:type="MSShapeGroup"></path>
        </g>
    </g>
</svg>