<?xml version="1.0" encoding="UTF-8" standalone="no"?>
<svg width="240px" height="240px" viewBox="0 0 240 240" version="1.1" xmlns="http://www.w3.org/2000/svg" xmlns:xlink="http://www.w3.org/1999/xlink" xmlns:sketch="http://www.bohemiancoding.com/sketch/ns">
    <!-- Generator: Sketch 3.5.1 (25234) - http://www.bohemiancoding.com/sketch -->
    <title>Group 8</title>
    <desc>Created with Sketch.</desc>
    <defs></defs>
    <g id="Page-1" stroke="none" stroke-width="1" fill="none" fill-rule="evenodd" sketch:type="MSPage">
        <g id="Group-8" sketch:type="MSLayerGroup">
            <g id="Group-4-Copy-2" fill="#0F0D20" sketch:type="MSShapeGroup">
                <rect id="Rectangle-22" x="0" y="0" width="240" height="240"></rect>
            </g>
            <path d="M114.316368,115.186451 L109.137645,115.186451 C95.9266169,115.186451 88,119.836733 88,129.665738 C88,140.551625 97.1948756,144.145025 109.137645,144.145025 C115.161874,144.145025 122.348673,143.299519 126.893267,142.242637 L126.893267,111.804428 C126.893267,99.227529 118.860962,95 108.080763,95 C102.056534,95 96.455058,96.3739469 92.227529,98.8047761 L92.227529,109.796351 C95.9266169,107.576899 100.259834,105.885887 105.86131,105.885887 C110.511592,105.885887 114.316368,107.788275 114.316368,112.332869 L114.316368,115.186451 Z M114.316368,134.31602 C112.625356,134.738773 110.405904,134.844461 109.031957,134.844461 C103.958922,134.844461 100.682587,133.047761 100.682587,129.031608 C100.682587,125.015456 104.170298,123.324444 110.088839,123.324444 L114.316368,123.324444 L114.316368,134.31602 Z M135.089884,135.689967 C135.089884,140.340248 138.89466,144.039336 143.544942,144.039336 C148.195224,144.039336 152,140.340248 152,135.689967 C152,131.039685 148.195224,127.12922 143.544942,127.12922 C138.89466,127.12922 135.089884,131.039685 135.089884,135.689967 L135.089884,135.689967 Z M135.089884,106.30864 C135.089884,110.958922 138.89466,114.65801 143.544942,114.65801 C148.195224,114.65801 152,110.958922 152,106.30864 C152,101.658358 148.195224,97.7478938 143.544942,97.7478938 C138.89466,97.7478938 135.089884,101.658358 135.089884,106.30864 L135.089884,106.30864 Z" id="a:-copy" fill="#F7F7F7" sketch:type="MSShapeGroup"></path>
        </g>
    </g>
</svg>