<?xml version="1.0" encoding="UTF-8" standalone="no"?>
<svg width="240px" height="96px" viewBox="0 0 240 96" version="1.1" xmlns="http://www.w3.org/2000/svg" xmlns:xlink="http://www.w3.org/1999/xlink" xmlns:sketch="http://www.bohemiancoding.com/sketch/ns">
    <!-- Generator: Sketch 3.5.1 (25234) - http://www.bohemiancoding.com/sketch -->
    <title>AgendaNYC</title>
    <desc>Created with Sketch.</desc>
    <defs></defs>
    <g id="Page-1" stroke="none" stroke-width="1" fill="none" fill-rule="evenodd" sketch:type="MSPage">
        <g id="AgendaNYC" sketch:type="MSArtboardGroup" fill="#0F0D20">
            <path d="M12.5672533,54.9454222 L10.0941794,54.9454222 C3.78531726,54.9454222 0,57.1661416 0,61.859935 C0,67.0584374 4.39096802,68.7744479 10.0941794,68.7744479 C12.9710205,68.7744479 16.4030414,68.3706807 18.57329,67.8659717 L18.57329,53.3303535 C18.57329,47.3243167 14.7375019,45.3054809 9.58947039,45.3054809 C6.71262927,45.3054809 4.03767174,45.9616025 2.01883587,47.1224332 L2.01883587,52.3714064 C3.78531726,51.3115176 5.85462402,50.5039832 8.52958155,50.5039832 C10.750301,50.5039832 12.5672533,51.4124594 12.5672533,53.5827079 L12.5672533,54.9454222 Z M12.5672533,64.0806545 C11.7597189,64.2825381 10.6998301,64.333009 10.0437085,64.333009 C7.62110541,64.333009 6.05650761,63.4750037 6.05650761,61.5571096 C6.05650761,59.6392156 7.72204721,58.8316812 10.5484174,58.8316812 L12.5672533,58.8316812 L12.5672533,64.0806545 Z M38.9585842,67.8155008 C38.9585842,71.2475218 36.6873938,72.8121196 33.7600818,72.8121196 C30.9841825,72.8121196 28.763463,72.155998 26.0380346,70.5914002 L26.0380346,76.2441406 C28.3596959,77.3545003 30.9841825,77.9096802 33.7600818,77.9096802 C38.8576424,77.9096802 45.0655627,75.6889607 45.0655627,67.9669135 L45.0655627,47.0214914 C42.5924887,46.0120734 39.4128222,45.3054809 35.9303304,45.3054809 C28.0568705,45.3054809 23.2621353,49.645978 23.2621353,56.8128453 C23.2621353,64.1815963 28.0063996,68.1183262 34.8199706,68.1183262 C36.5359811,68.1183262 38.2015207,67.7650299 38.9585842,67.3612628 L38.9585842,67.8155008 Z M38.9585842,62.364644 C37.8986953,62.7179403 36.8892774,63.0207656 35.5265632,63.0207656 C31.8421877,63.0207656 29.4195847,60.6991044 29.4195847,56.8128453 C29.4195847,52.6742318 31.8926586,50.604925 35.9303304,50.604925 C37.0406901,50.604925 38.1510498,50.8068086 38.9585842,51.0591631 L38.9585842,62.364644 Z M70.750301,58.7307394 L70.750301,55.9043692 C70.750301,49.9488034 68.0248726,45.3054809 61.0094179,45.3054809 C54.7005558,45.3054809 50.0067624,49.8983325 50.0067624,57.3175543 C50.0067624,64.333009 54.599614,68.8249188 61.9178941,68.8249188 C64.9461479,68.8249188 67.9744017,68.219268 70.0437085,66.755612 L70.0437085,61.6075805 C67.822989,62.9198238 65.5517986,63.6264164 62.5235448,63.6264164 C59.495291,63.6264164 56.3660954,62.0113477 55.9118574,58.8316812 L55.9118574,58.7307394 L70.750301,58.7307394 Z M55.9623283,55.0968348 C56.5175081,52.1695228 58.2335186,50.3020997 60.8580052,50.3020997 C63.7348464,50.3020997 65.0470897,52.3209355 65.0975606,55.0968348 L55.9623283,55.0968348 Z M76.1457388,68.3202098 L82.2022464,68.3202098 L82.2022464,51.4124594 C83.4640189,51.0086922 84.9781458,50.7563377 86.4418018,50.7563377 C89.0662884,50.7563377 90.4290026,52.068581 90.4290026,54.5921259 L90.4290026,68.3202098 L96.5359811,68.3202098 L96.5359811,54.1883587 C96.5359811,47.4757294 92.7506639,45.3054809 86.8960398,45.3054809 C83.5144898,45.3054809 79.3254053,46.0625443 76.1457388,47.2738458 L76.1457388,68.3202098 Z M123.432021,34 L117.375513,34 L117.375513,46.0120734 C116.366095,45.5073645 114.700556,45.3054809 113.135958,45.3054809 C106.120503,45.3054809 101.325768,49.9488034 101.325768,57.1156707 C101.325768,64.6863052 106.4738,68.8249188 114.246318,68.8249188 C117.274572,68.8249188 120.757063,68.4716225 123.432021,67.7650299 L123.432021,34 Z M117.375513,63.3740619 C116.366095,63.5759455 115.205265,63.6264164 114.448201,63.6264164 C110.158175,63.6264164 107.483218,61.2038134 107.483218,56.9137871 C107.483218,52.9265863 109.956292,50.6553959 113.640667,50.6553959 C115.154794,50.6553959 116.416566,50.9077504 117.375513,51.3619885 L117.375513,63.3740619 Z M141.344241,54.9454222 L138.871167,54.9454222 C132.562305,54.9454222 128.776988,57.1661416 128.776988,61.859935 C128.776988,67.0584374 133.167956,68.7744479 138.871167,68.7744479 C141.748008,68.7744479 145.180029,68.3706807 147.350278,67.8659717 L147.350278,53.3303535 C147.350278,47.3243167 143.51449,45.3054809 138.366458,45.3054809 C135.489617,45.3054809 132.81466,45.9616025 130.795824,47.1224332 L130.795824,52.3714064 C132.562305,51.3115176 134.631612,50.5039832 137.306569,50.5039832 C139.527289,50.5039832 141.344241,51.4124594 141.344241,53.5827079 L141.344241,54.9454222 Z M141.344241,64.0806545 C140.536707,64.2825381 139.476818,64.333009 138.820696,64.333009 C136.398093,64.333009 134.833496,63.4750037 134.833496,61.5571096 C134.833496,59.6392156 136.499035,58.8316812 139.325405,58.8316812 L141.344241,58.8316812 L141.344241,64.0806545 Z M160.265879,38.3404971 L153.805605,38.3404971 L153.805605,68.3202098 L159.963054,68.3202098 L159.963054,48.3842056 L173.893021,68.3202098 L179.949529,68.3202098 L179.949529,38.3404971 L173.79208,38.3404971 L173.79208,58.5288558 L160.265879,38.3404971 Z M197.811278,51.109634 L190.795824,38.3404971 L183.780369,38.3404971 L194.53067,57.1661416 L194.53067,68.3202098 L200.890003,68.3202098 L200.890003,57.1661416 L211.741246,38.3404971 L204.67532,38.3404971 L197.811278,51.109634 Z M237.526926,39.854624 C235.104323,38.4414389 232.378895,37.8357882 229.350641,37.8357882 C220.215408,37.8357882 213.856075,44.1446502 213.856075,53.3303535 C213.856075,62.4655858 219.963054,68.8249188 229.350641,68.8249188 C232.378895,68.8249188 235.255736,68.2697389 238.031635,66.6041993 L238.031635,59.9925118 C235.50809,62.0618186 233.035016,63.0712365 229.602995,63.0712365 C224.25308,63.0712365 220.417292,59.2354484 220.417292,53.3303535 C220.417292,47.5766712 223.950255,43.5894704 229.350641,43.5894704 C232.782662,43.5894704 235.609032,44.8007719 237.526926,46.718666 L237.526926,39.854624 Z" id="agendaNYC" sketch:type="MSShapeGroup"></path>
        </g>
    </g>
</svg>