<?xml version="1.0" encoding="UTF-8" standalone="no"?>
<svg width="64px" height="64px" viewBox="0 0 64 64" version="1.1" xmlns="http://www.w3.org/2000/svg" xmlns:xlink="http://www.w3.org/1999/xlink" xmlns:sketch="http://www.bohemiancoding.com/sketch/ns">
    <!-- Generator: Sketch 3.5.1 (25234) - http://www.bohemiancoding.com/sketch -->
    <title>Artboard 13 Copy 2</title>
    <desc>Created with Sketch.</desc>
    <defs></defs>
    <g id="Page-1" stroke="none" stroke-width="1" fill="none" fill-rule="evenodd" sketch:type="MSPage">
        <g id="Artboard-13-Copy-2" sketch:type="MSArtboardGroup" fill="#0F0D20">
            <g id="Logo" sketch:type="MSLayerGroup" transform="translate(0.000000, 2.000000)">
                <path d="M43.3958053,11.9614342 C40.8972046,11.3132335 37.8042329,12.3550648 36.7635231,13.7894052 C36.5941835,14.0226677 36.4158722,14.4028408 36.4719449,14.6618968 C36.7354867,15.8865252 38.7058824,15.2405673 38.7103682,15.2405673 C42.1151042,14.6226459 44.5172599,18.8785659 40.256854,20.9162488 C36.210646,22.8541223 33.3307507,19.8340452 32.6320845,19.2262168 C33.1154314,18.6576394 33.5427056,18.0329892 33.9105427,17.3634808 C34.8189209,15.705971 35.3381544,13.769219 35.3381544,11.7001353 C35.3381544,5.56353603 30.7637412,0.589885094 25.1205819,0.589885094 C19.4774226,0.589885094 14.9030095,5.56465748 14.9030095,11.7001353 C14.9030095,13.8264132 15.4547652,15.8158735 16.4102444,17.5059055 C16.779203,18.1574706 17.2064772,18.7596917 17.6830954,19.3114474 C17.4251608,19.567139 13.1512975,22.2877877 9.62544441,20.4620597 C8.25726986,19.7544219 7.71448586,18.3021383 8.34586477,17.0124655 C8.79332513,16.0962372 9.62095859,15.4300932 10.6325106,15.360563 C13.152419,15.1867375 12.6679506,13.4664262 11.721443,12.9662575 C10.2725237,12.1980612 8.8583695,12.1442313 7.29057604,12.5692626 C4.09891638,13.4294182 2.55579492,16.7276161 2.77560001,19.4146212 C3.07166402,23.0391623 4.66412948,25.9134503 8.05989386,27.1033136 C10.3039244,27.8928176 12.6286997,27.9858983 14.9714183,27.5967536 C15.7755012,27.4655434 16.5627623,27.2266736 17.3567521,27.0382692 C17.3780597,27.079763 15.4009353,28.2931769 14.3905048,28.8516612 C13.5168917,29.3305223 12.5838415,29.7263958 11.7741513,30.2848801 C10.1009411,31.4422212 9.17574114,33.0414154 9.26097168,35.0230256 C9.35965968,37.2816351 10.4598066,39.0927842 12.3976801,40.4082504 C13.9430444,41.4601748 15.644291,41.8179188 17.4913266,41.1786897 C19.7017136,40.417222 21.0654023,38.4255187 20.8657834,36.2532613 C20.8310183,35.8708453 20.7256016,35.4974009 20.2803841,35.371798 C19.8654459,35.2562882 19.542467,35.4547856 19.3148117,35.7676714 C19.0950066,36.0715856 18.9155739,36.4057791 18.7013761,36.7141791 C18.2438226,37.3747158 17.5788001,37.481254 16.9328423,36.9844496 C16.3575361,36.543718 16.0379215,35.9695333 16.1825892,35.2574096 C16.3238924,34.5497718 16.8173324,34.1157689 17.5664641,33.9554009 C18.8942663,33.6683085 20.2422546,33.4428962 21.5442634,33.0716947 C24.106787,32.3405063 25.8999929,30.7985063 26.7377194,28.3413994 C26.7792132,28.2191609 26.8588365,28.1081369 26.9205165,27.9870198 C28.029635,28.6800787 28.9839929,29.9024641 29.3484656,31.0698983 C29.9035856,32.8373107 29.2643565,34.1886634 27.5541383,35.0521834 C26.3362387,35.6689834 25.118339,36.3070911 23.9935201,37.0573442 C22.0612539,38.344774 21.6687448,40.0897573 21.824627,42.3483668 C22.034339,45.3605937 23.5864321,44.7000569 23.5864321,44.7000569 C23.9430547,44.5464177 24.1404307,43.9722329 24.1550096,43.4664569 C24.2077179,41.3816729 25.1788976,40.2534897 27.1145281,40.0291987 C27.819923,39.9462111 28.5365325,39.9663973 29.2441703,39.8946242 C31.1540074,39.7006126 32.9270271,39.1387638 34.4914562,38.0509529 C37.8490911,35.7127202 37.9489006,31.1416714 35.976262,28.3514925 C35.8786955,28.2090678 35.7844933,28.0677645 35.6476758,27.87151 C51.1775784,27.2334023 50.3174228,13.7512757 43.3958053,11.9614342 L43.3958053,11.9614342 Z" id="Shape" sketch:type="MSShapeGroup"></path>
                <path d="M60.6247116,33.7389602 C59.0288817,31.522966 56.7366286,29.7880758 53.9711217,28.895398 C53.8387901,28.399715 53.6773006,27.8973034 53.4799246,27.400499 C52.9920919,26.1500772 52.3315552,24.9052627 51.5768163,23.7636219 C51.3211246,23.3744772 51.0474897,23.0043972 50.769369,22.6421674 C50.683017,22.9270168 50.5933006,23.2141092 50.4822766,23.4922299 L50.4822766,23.4978372 C50.362281,23.8051158 50.2254635,24.1011798 50.0819173,24.390515 C49.8183755,24.9265703 49.5077326,25.4301034 49.1679319,25.9056001 C48.8314955,26.3743681 48.4692657,26.8195856 48.0610562,27.2210663 C47.0225893,28.239347 45.7867464,29.0041791 44.4578228,29.5256554 C43.5696308,29.8766707 42.6399449,30.1233907 41.6777369,30.2860016 C41.2011187,30.3667463 40.7413224,30.4194547 40.2927406,30.46207 C40.4867522,31.2672743 43.2724453,44.0664351 27.2625601,43.4462708 C27.1134067,43.4653355 26.9889252,43.4776715 26.9889252,43.4776715 C26.9788321,43.4900075 26.907059,48.1261006 23.1748583,48.4434722 C20.430659,48.6778562 18.9155739,44.6103406 18.8651085,44.40175 C18.4972714,44.5935188 4.71010911,48.1193719 5.99978185,32.7004933 C5.42335421,33.0436583 5.24616439,33.1916903 4.72917384,33.6223289 C2.84961601,35.1789078 1.38836073,37.3029427 0.651565094,39.8116366 C0.30054982,41.0003784 0.132331637,42.2036991 0.132331637,43.3879551 C0.132331637,46.1500977 1.04295273,48.7978519 2.65560438,50.9577733 C4.26489166,53.1165734 6.58181676,54.7976337 9.37760296,55.6039595 C10.574195,55.950489 11.7853659,56.1142214 12.9752292,56.1142214 C15.7755012,56.110857 18.4535346,55.1901428 20.6414925,53.5707624 C21.318851,54.4724119 22.0982619,55.3011668 22.9920612,56.0211406 C24.3893936,57.1482025 26.0323245,58.0184512 27.8625383,58.5488992 C29.1589398,58.9257079 30.4710416,59.1028977 31.7629572,59.1028977 C35.9011245,59.1017763 39.8060293,57.2603479 42.4291115,54.1471901 C43.4249631,54.7595043 44.5094097,55.2630374 45.6824511,55.6039595 L45.6813297,55.6039595 C46.9014722,55.9538534 48.1373151,56.1265574 49.3552148,56.1265574 C52.3438912,56.1265574 55.2170577,55.111641 57.5642621,53.3363784 C59.9114665,51.5633588 61.7461661,49.017657 62.6478156,45.958329 C63.0481749,44.6036119 63.2421865,43.2320729 63.2421865,41.8896918 C63.2399436,38.9111086 62.3024076,36.0637355 60.6247116,33.7389602 L60.6247116,33.7389602 Z" id="Shape" sketch:type="MSShapeGroup"></path>
            </g>
        </g>
    </g>
</svg>