<?xml version="1.0" encoding="UTF-8" standalone="no"?>
<svg width="240px" height="96px" viewBox="0 0 240 96" version="1.1" xmlns="http://www.w3.org/2000/svg" xmlns:xlink="http://www.w3.org/1999/xlink" xmlns:sketch="http://www.bohemiancoding.com/sketch/ns">
    <!-- Generator: Sketch 3.5.1 (25234) - http://www.bohemiancoding.com/sketch -->
    <title>Aptible</title>
    <desc>Created with Sketch.</desc>
    <defs></defs>
    <g id="Page-1" stroke="none" stroke-width="1" fill="none" fill-rule="evenodd" sketch:type="MSPage">
        <g id="Aptible" sketch:type="MSArtboardGroup" fill="#0F0D20">
            <g id="Group" sketch:type="MSLayerGroup" transform="translate(0.000000, 19.000000)">
                <g id="Text" transform="translate(69.000000, 3.000000)" sketch:type="MSShapeGroup">
                    <path d="M27.885823,38.1416817 C27.885823,41.0451275 28.0114259,43.8846504 28.3904776,45.5937471 L19.7395772,45.5937471 L19.1732426,42.4962897 L18.9837168,42.4962897 C16.9650986,44.9634897 13.8059611,46.2856846 10.1455335,46.2856846 C3.89230291,46.2856846 0.169073797,41.7415508 0.169073797,36.8161224 C0.169073797,28.7977223 7.36656911,25.0105703 18.2895364,25.0105703 L18.2895364,24.6326401 C18.2895364,22.9930736 17.4047088,20.6537194 12.6710491,20.6537194 C9.51303312,20.6537194 6.16549128,21.7280728 4.14463018,22.9280292 L2.37833926,16.8048874 C4.52480327,15.6038095 8.75380838,14.025923 14.3745386,14.025923 C24.6650056,14.025923 27.885823,20.0862634 27.885823,27.3443172 L27.885823,38.1416817 L27.885823,38.1416817 Z M18.6046652,31.0092307 C13.5525124,31.0092307 9.63751457,32.2035798 9.63751457,35.8684933 C9.63751457,38.3312075 11.2804455,39.5300424 13.4269095,39.5300424 C15.7628993,39.5300424 17.7815175,37.9532773 18.4151393,35.9929747 C18.5396208,35.4905631 18.6035437,34.9219856 18.6035437,34.3534082 L18.6035437,31.0092307 L18.6046652,31.0092307 Z" id="Shape"></path>
                    <path d="M30.3597518,25.0744932 C30.3597518,21.032771 30.2330274,17.6246706 30.1074245,14.7189819 L38.4409533,14.7189819 L38.8816849,19.0119099 L39.0072878,19.0119099 C41.2804762,15.7933354 44.8153009,14.0248015 49.2977548,14.0248015 C56.053397,14.0248015 62.1148588,19.8956161 62.1148588,29.7453514 C62.1148588,40.9812046 54.9812864,46.2856846 48.1000413,46.2856846 C44.3756907,46.2856846 41.4677591,44.7705995 40.0816413,42.7531028 L39.9549169,42.7531028 L39.9549169,58.0923581 L30.3586303,58.0923581 L30.3586303,25.0744932 L30.3597518,25.0744932 Z M39.9560384,32.3336685 C39.9560384,33.0906504 40.0199613,33.7197864 40.1455642,34.3534082 C40.7758216,36.9439682 42.9839656,38.8997849 45.7640515,38.8997849 C49.9313766,38.8997849 52.3940908,35.4266402 52.3940908,30.1849616 C52.3940908,25.2617761 50.1837039,21.5363041 45.8918973,21.5363041 C43.1779773,21.5363041 40.7769431,23.5571652 40.1466856,26.3989311 C40.0210827,26.9024641 39.9571598,27.5383289 39.9571598,28.103542 L39.9571598,32.3336685 L39.9560384,32.3336685 Z" id="Shape"></path>
                    <path d="M75.4052167,6.32153023 L75.4052167,14.7189819 L82.2853404,14.7189819 L82.2853404,21.7897528 L75.4052167,21.7897528 L75.4052167,33.0278489 C75.4052167,36.7533209 76.3517244,38.4568104 79.1923687,38.4568104 C80.517928,38.4568104 81.1481855,38.3928875 82.0330131,38.2044831 L82.0946931,45.4636584 C80.8969797,45.9088759 78.5621113,46.2856846 75.9087498,46.2856846 C72.8157782,46.2856846 70.2274611,45.2113311 68.6473316,43.6356875 C66.8799192,41.8065951 65.9950916,38.8369835 65.9950916,34.4801325 L65.9950916,21.7886314 L61.8905679,21.7886314 L61.8905679,14.7189819 L65.9950916,14.7189819 L65.9950916,8.90984733 L75.4052167,6.32153023 L75.4052167,6.32153023 Z" id="Shape"></path>
                    <rect id="Rectangle-path" x="84.4755411" y="14.7189819" width="9.59628659" height="30.8736438"></rect>
                    <path d="M96.3921172,9.43244515 L105.990647,3.3564044 L105.990647,18.3794096 L106.117371,18.3794096 C107.948706,15.7271695 111.168402,14.0248015 115.46133,14.0248015 C122.84723,14.0248015 128.215633,20.1479434 128.15171,29.6186271 C128.15171,40.7322417 121.142619,46.2845632 114.074091,46.2845632 C110.473101,46.2845632 106.938276,44.9623682 104.791812,41.2974548 L104.66733,41.2974548 L104.286036,45.5926257 L96.1420328,45.5926257 C96.2710001,43.5695217 96.3921172,39.8485355 96.3921172,36.3720264 L96.3921172,9.43244515 L96.3921172,9.43244515 Z M105.990647,32.45815 C105.990647,33.0895289 106.056813,33.6558635 106.183537,34.1638824 C106.812673,36.6905195 109.021938,38.7102591 111.802024,38.7102591 C115.906548,38.7102591 118.429821,35.5556075 118.429821,29.9999216 C118.429821,25.1989747 116.283357,21.4118227 111.802024,21.4118227 C109.212586,21.4118227 106.812673,23.3698823 106.183537,26.1454823 C106.056813,26.7129383 105.990647,27.2803943 105.990647,27.9128947 L105.990647,32.45815 L105.990647,32.45815 Z" id="Shape"></path>
                    <rect id="Rectangle-path" x="129.846228" y="0.766965837" width="9.59628659" height="44.8256599"></rect>
                    <path d="M150.655939,33.1534518 C150.971067,37.1940526 154.884944,39.0870678 159.36964,39.0870678 C162.651016,39.0870678 165.305499,38.6452148 167.892695,37.7603871 L169.156574,44.2637021 C165.998558,45.5926257 162.149726,46.2217617 157.98128,46.2217617 C147.500165,46.2217617 141.503748,40.1602998 141.503748,30.4395318 C141.503748,22.6084147 146.428055,13.9597572 157.096452,13.9597572 C167.07179,13.9597572 170.860064,21.7247085 170.860064,29.3640569 C170.860064,31.0092307 170.669416,32.45815 170.544935,33.2151318 L150.655939,33.1534518 L150.655939,33.1534518 Z M161.955715,26.5873354 C161.955715,24.31639 160.946406,20.3374692 156.589555,20.3374692 C152.487274,20.3374692 150.846586,24.0629412 150.596501,26.5873354 L161.955715,26.5873354 L161.955715,26.5873354 Z" id="Shape"></path>
                    <path d="M89.1845288,11.6809615 C86.15548,11.6809615 84.1974204,9.5423477 84.1974204,6.8699215 C84.1974204,4.13805822 86.2149171,2.06224584 89.303403,2.06224584 C92.3896459,2.06224584 94.2905114,4.13805822 94.3477055,6.8699215 C94.3477055,9.5423477 92.3896459,11.6809615 89.2439659,11.6809615 L89.1845288,11.6809615 L89.1845288,11.6809615 Z" id="Shape"></path>
                </g>
                <g id="Logo" sketch:type="MSShapeGroup">
                    <path d="M43.3958053,11.9614342 C40.8972046,11.3132335 37.8042329,12.3550648 36.7635231,13.7894052 C36.5941835,14.0226677 36.4158722,14.4028408 36.4719449,14.6618968 C36.7354867,15.8865252 38.7058824,15.2405673 38.7103682,15.2405673 C42.1151042,14.6226459 44.5172599,18.8785659 40.256854,20.9162488 C36.210646,22.8541223 33.3307507,19.8340452 32.6320845,19.2262168 C33.1154314,18.6576394 33.5427056,18.0329892 33.9105427,17.3634808 C34.8189209,15.705971 35.3381544,13.769219 35.3381544,11.7001353 C35.3381544,5.56353603 30.7637412,0.589885094 25.1205819,0.589885094 C19.4774226,0.589885094 14.9030095,5.56465748 14.9030095,11.7001353 C14.9030095,13.8264132 15.4547652,15.8158735 16.4102444,17.5059055 C16.779203,18.1574706 17.2064772,18.7596917 17.6830954,19.3114474 C17.4251608,19.567139 13.1512975,22.2877877 9.62544441,20.4620597 C8.25726986,19.7544219 7.71448586,18.3021383 8.34586477,17.0124655 C8.79332513,16.0962372 9.62095859,15.4300932 10.6325106,15.360563 C13.152419,15.1867375 12.6679506,13.4664262 11.721443,12.9662575 C10.2725237,12.1980612 8.8583695,12.1442313 7.29057604,12.5692626 C4.09891638,13.4294182 2.55579492,16.7276161 2.77560001,19.4146212 C3.07166402,23.0391623 4.66412948,25.9134503 8.05989386,27.1033136 C10.3039244,27.8928176 12.6286997,27.9858983 14.9714183,27.5967536 C15.7755012,27.4655434 16.5627623,27.2266736 17.3567521,27.0382692 C17.3780597,27.079763 15.4009353,28.2931769 14.3905048,28.8516612 C13.5168917,29.3305223 12.5838415,29.7263958 11.7741513,30.2848801 C10.1009411,31.4422212 9.17574114,33.0414154 9.26097168,35.0230256 C9.35965968,37.2816351 10.4598066,39.0927842 12.3976801,40.4082504 C13.9430444,41.4601748 15.644291,41.8179188 17.4913266,41.1786897 C19.7017136,40.417222 21.0654023,38.4255187 20.8657834,36.2532613 C20.8310183,35.8708453 20.7256016,35.4974009 20.2803841,35.371798 C19.8654459,35.2562882 19.542467,35.4547856 19.3148117,35.7676714 C19.0950066,36.0715856 18.9155739,36.4057791 18.7013761,36.7141791 C18.2438226,37.3747158 17.5788001,37.481254 16.9328423,36.9844496 C16.3575361,36.543718 16.0379215,35.9695333 16.1825892,35.2574096 C16.3238924,34.5497718 16.8173324,34.1157689 17.5664641,33.9554009 C18.8942663,33.6683085 20.2422546,33.4428962 21.5442634,33.0716947 C24.106787,32.3405063 25.8999929,30.7985063 26.7377194,28.3413994 C26.7792132,28.2191609 26.8588365,28.1081369 26.9205165,27.9870198 C28.029635,28.6800787 28.9839929,29.9024641 29.3484656,31.0698983 C29.9035856,32.8373107 29.2643565,34.1886634 27.5541383,35.0521834 C26.3362387,35.6689834 25.118339,36.3070911 23.9935201,37.0573442 C22.0612539,38.344774 21.6687448,40.0897573 21.824627,42.3483668 C22.034339,45.3605937 23.5864321,44.7000569 23.5864321,44.7000569 C23.9430547,44.5464177 24.1404307,43.9722329 24.1550096,43.4664569 C24.2077179,41.3816729 25.1788976,40.2534897 27.1145281,40.0291987 C27.819923,39.9462111 28.5365325,39.9663973 29.2441703,39.8946242 C31.1540074,39.7006126 32.9270271,39.1387638 34.4914562,38.0509529 C37.8490911,35.7127202 37.9489006,31.1416714 35.976262,28.3514925 C35.8786955,28.2090678 35.7844933,28.0677645 35.6476758,27.87151 C51.1775784,27.2334023 50.3174228,13.7512757 43.3958053,11.9614342 L43.3958053,11.9614342 Z" id="Shape"></path>
                    <path d="M60.6247116,33.7389602 C59.0288817,31.522966 56.7366286,29.7880758 53.9711217,28.895398 C53.8387901,28.399715 53.6773006,27.8973034 53.4799246,27.400499 C52.9920919,26.1500772 52.3315552,24.9052627 51.5768163,23.7636219 C51.3211246,23.3744772 51.0474897,23.0043972 50.769369,22.6421674 C50.683017,22.9270168 50.5933006,23.2141092 50.4822766,23.4922299 L50.4822766,23.4978372 C50.362281,23.8051158 50.2254635,24.1011798 50.0819173,24.390515 C49.8183755,24.9265703 49.5077326,25.4301034 49.1679319,25.9056001 C48.8314955,26.3743681 48.4692657,26.8195856 48.0610562,27.2210663 C47.0225893,28.239347 45.7867464,29.0041791 44.4578228,29.5256554 C43.5696308,29.8766707 42.6399449,30.1233907 41.6777369,30.2860016 C41.2011187,30.3667463 40.7413224,30.4194547 40.2927406,30.46207 C40.4867522,31.2672743 43.2724453,44.0664351 27.2625601,43.4462708 C27.1134067,43.4653355 26.9889252,43.4776715 26.9889252,43.4776715 C26.9788321,43.4900075 26.907059,48.1261006 23.1748583,48.4434722 C20.430659,48.6778562 18.9155739,44.6103406 18.8651085,44.40175 C18.4972714,44.5935188 4.71010911,48.1193719 5.99978185,32.7004933 C5.42335421,33.0436583 5.24616439,33.1916903 4.72917384,33.6223289 C2.84961601,35.1789078 1.38836073,37.3029427 0.651565094,39.8116366 C0.30054982,41.0003784 0.132331637,42.2036991 0.132331637,43.3879551 C0.132331637,46.1500977 1.04295273,48.7978519 2.65560438,50.9577733 C4.26489166,53.1165734 6.58181676,54.7976337 9.37760296,55.6039595 C10.574195,55.950489 11.7853659,56.1142214 12.9752292,56.1142214 C15.7755012,56.110857 18.4535346,55.1901428 20.6414925,53.5707624 C21.318851,54.4724119 22.0982619,55.3011668 22.9920612,56.0211406 C24.3893936,57.1482025 26.0323245,58.0184512 27.8625383,58.5488992 C29.1589398,58.9257079 30.4710416,59.1028977 31.7629572,59.1028977 C35.9011245,59.1017763 39.8060293,57.2603479 42.4291115,54.1471901 C43.4249631,54.7595043 44.5094097,55.2630374 45.6824511,55.6039595 L45.6813297,55.6039595 C46.9014722,55.9538534 48.1373151,56.1265574 49.3552148,56.1265574 C52.3438912,56.1265574 55.2170577,55.111641 57.5642621,53.3363784 C59.9114665,51.5633588 61.7461661,49.017657 62.6478156,45.958329 C63.0481749,44.6036119 63.2421865,43.2320729 63.2421865,41.8896918 C63.2399436,38.9111086 62.3024076,36.0637355 60.6247116,33.7389602 L60.6247116,33.7389602 Z" id="Shape"></path>
                </g>
            </g>
        </g>
    </g>
</svg>