<?xml version="1.0" encoding="UTF-8" standalone="no"?>
<svg width="240px" height="96px" viewBox="0 0 240 96" version="1.1" xmlns="http://www.w3.org/2000/svg" xmlns:xlink="http://www.w3.org/1999/xlink" xmlns:sketch="http://www.bohemiancoding.com/sketch/ns">
    <!-- Generator: Sketch 3.5.1 (25234) - http://www.bohemiancoding.com/sketch -->
    <title>GrooveHQ</title>
    <desc>Created with Sketch.</desc>
    <defs>
        <path id="path-1" d="M0,0.39 L240,0.39 L240,58 L0,58"></path>
    </defs>
    <g id="Page-1" stroke="none" stroke-width="1" fill="none" fill-rule="evenodd" sketch:type="MSPage">
        <g id="GrooveHQ" sketch:type="MSArtboardGroup">
            <g id="Group-6" sketch:type="MSLayerGroup" transform="translate(0.000000, 23.000000)">
                <g id="Group-3">
                    <mask id="mask-2" sketch:name="Clip 2" fill="white">
                        <use xlink:href="#path-1"></use>
                    </mask>
                    <g id="Clip-2"></g>
                    <path d="M64.941,24.865 C64.941,24.865 66.201,23.045 66.401,21.985 C66.601,20.915 66.571,20.325 66.031,19.325 C65.841,18.945 65.281,18.405 64.321,18.165 C63.701,17.995 63.021,17.975 62.431,17.665 C61.571,17.255 60.781,16.825 60.691,16.775 C60.691,16.775 59.081,15.285 57.081,15.075 C57.081,15.075 51.731,6.695 41.421,5.875 C41.421,5.875 27.831,3.765 18.831,18.065 C18.831,18.065 17.001,21.455 14.731,25.615 C12.391,30.005 9.401,32.365 7.661,33.465 C1.061,36.115 -0.659,41.435 0.201,43.825 C1.131,46.375 3.581,48.295 5.511,49.925 C7.401,51.535 9.371,52.625 11.501,53.915 L11.651,54.015 C21.511,59.215 33.651,58.995 42.561,55.225 C46.641,53.505 50.131,51.045 52.581,48.015 C54.641,45.495 55.741,42.765 56.061,39.905 L56.091,39.865 C56.091,39.865 58.201,38.425 59.561,36.735 C60.961,34.985 61.561,32.805 61.561,32.805 C62.371,31.775 63.001,30.785 63.501,29.835 C63.501,29.835 65.021,26.865 64.941,24.865" id="Fill-1" fill="#0F0D20" sketch:type="MSShapeGroup" mask="url(#mask-2)"></path>
                </g>
            </g>
            <path d="M11.508605,53.444816 C9.02315772,56.2212835 6.571,56.955 6.571,56.955 C4.91632774,55.0087257 3.39502061,53.1590261 2.72748652,51.2593247 C2.92271721,51.8988456 3.34190292,52.6832604 3.862,53.494 C3.102,52.394 2.352,51.134 2.202,50.184 C1.982,48.704 2.202,47.404 2.882,45.954 C4.632,42.234 7.052,40.144 9.862,40.724 C11.582,41.074 13.552,41.524 15.322,42.094 C16.492,44.764 17.762,47.414 19.112,50.034 C21.502,54.634 23.122,57.664 25.832,62.054 L23.472,63.324 C18.6287909,58.5665804 14.6097626,55.4620844 11.508605,53.444816 Z M16.592,42.523 C16.212,42.383 15.722,42.213 15.322,42.093 C16.512,44.773 17.762,47.413 19.122,50.023 C21.512,54.623 23.142,57.643 25.842,62.033 L26.742,61.563 C21.472,53.053 18.702,46.913 16.592,42.523 Z" id="Fill-16" fill="#5D5B68" sketch:type="MSShapeGroup"></path>
            <path d="M33.887,56.879 C37.607,54.069 40.607,51.309 40.607,51.309 C33.297,36.649 25.287,26.329 25.287,26.329 C24.277,25.229 23.687,25.319 23.687,25.319 C23.687,25.319 23.487,25.329 22.987,25.419 L22.637,25.489 C17.797,26.999 14.907,29.719 13.677,30.939 C13.317,31.289 13.137,31.499 13.137,31.499 C13.137,31.499 12.707,31.919 13.007,33.379 C13.007,33.379 13.107,33.719 13.327,34.399 C13.947,36.239 14.657,38.049 15.427,39.839 C16.817,43.089 18.327,46.309 19.957,49.459 C22.387,54.109 24.027,57.139 26.767,61.589 C26.747,61.589 31.267,58.959 33.887,56.879" id="Fill-18" fill="#4C4A58" sketch:type="MSShapeGroup"></path>
            <path d="M41.2875118,41.9298217 C40.991584,35.4049806 41.4690069,31.420459 42.155,28.922 C42.155,28.922 43.635,29.142 44.475,29.332 C45.315,29.512 46.895,30.102 46.895,30.102 L47.0455385,30.1574615 L47.139,30.199 C47.139,30.199 47.089,28.969 46.659,27.349 C45.079,21.309 37.419,23.989 37.419,23.989 C34.739,25.219 33.249,28.519 33.249,28.519 C32.9511593,29.1114589 32.6725605,29.7159334 32.412063,30.3300616 C26.9585685,43.0653553 29.335,60.002 29.335,60.002 C36.375,55.622 42.005,50.652 42.005,50.652 C42.0022785,50.6278893 41.9995647,50.6038017 41.9968586,50.5797369 C42.0049256,50.5726152 42.009,50.569 42.009,50.569 C41.6410455,47.2984453 41.40949,44.4346553 41.2875118,41.9298217 Z" id="Fill-27" fill="#2D2B3C" sketch:type="MSShapeGroup"></path>
            <path d="M199.258,68.041 L189.268,45.041 L195.478,45.041 L195.578,45.311 C196.668,48.191 198.218,51.911 199.568,55.201 C200.718,57.991 201.758,60.501 202.358,62.061 C203.148,59.771 204.828,55.511 209.058,45.311 L209.178,45.051 L215.068,45.051 L205.118,68.051 L199.258,68.051 L199.258,68.041 Z M119.518,68.051 L119.518,51.101 L119.538,51.101 C119.538,49.241 119.538,47.331 119.488,45.471 L119.478,45.041 L125.018,45.041 L125.068,45.401 C125.118,45.921 125.198,47.281 125.218,48.671 C126.948,45.991 129.858,44.481 133.418,44.481 L133.668,44.481 L134.068,44.501 L134.068,49.911 L133.648,49.901 L133.448,49.901 C128.218,49.901 125.248,53.101 125.248,58.671 L125.248,68.051 L119.518,68.051 Z M148.068,49.151 C145.038,49.151 141.508,51.101 141.508,56.571 C141.508,61.411 144.868,63.941 148.178,63.941 C153.038,63.941 154.768,60.151 154.768,56.601 C154.768,52.901 152.718,49.151 148.098,49.151 L148.068,49.151 Z M148.008,68.661 C144.288,68.661 141.128,67.391 138.888,64.981 C136.838,62.801 135.698,59.811 135.698,56.571 C135.698,53.291 136.878,50.281 138.988,48.071 C141.278,45.701 144.468,44.441 148.218,44.441 L148.248,44.441 C156.368,44.441 160.618,50.521 160.618,56.531 C160.618,62.571 156.708,68.661 148.008,68.661 L148.008,68.661 Z M175.788,49.151 C172.778,49.151 169.238,51.101 169.238,56.571 C169.238,61.411 172.588,63.941 175.908,63.941 C180.758,63.941 182.498,60.151 182.498,56.601 C182.498,52.901 180.438,49.151 175.818,49.151 L175.788,49.151 Z M175.738,68.661 C172.018,68.661 168.858,67.391 166.618,64.981 C164.558,62.801 163.428,59.811 163.428,56.571 C163.428,53.291 164.598,50.281 166.718,48.071 C169.018,45.701 172.198,44.441 175.948,44.441 L175.978,44.441 C184.088,44.441 188.348,50.521 188.348,56.531 C188.348,62.571 184.448,68.661 175.738,68.661 L175.738,68.661 Z M234.088,54.011 C233.558,49.441 229.658,48.931 227.978,48.931 C223.418,48.931 222.128,51.921 221.798,54.011 L234.088,54.011 Z M228.128,68.661 C224.218,68.661 221.018,67.351 218.848,64.881 C216.978,62.741 215.948,59.811 215.948,56.601 C215.948,53.241 217.098,50.181 219.168,47.971 C221.368,45.651 224.428,44.441 228.038,44.441 C231.988,44.441 235.208,45.791 237.298,48.341 C239.038,50.451 239.998,53.341 239.998,56.491 L239.998,58.121 L221.698,58.121 C222.088,61.721 224.638,64.031 228.288,64.031 C231.108,64.031 232.858,63.101 234.028,61.021 L234.148,60.801 L239.878,60.801 L239.678,61.371 C238.958,63.411 237.698,65.131 236.048,66.361 C233.958,67.881 231.298,68.661 228.128,68.661 L228.128,68.661 Z M97.878,68.691 C88.108,68.691 81.788,62.271 81.788,52.301 C81.788,47.681 83.388,43.481 86.278,40.511 C89.358,37.351 93.678,35.681 98.808,35.681 C103.198,35.681 106.768,36.711 109.428,38.771 C112.148,40.881 113.248,43.541 113.698,45.401 L113.828,45.921 L107.798,45.921 L107.688,45.651 C106.318,42.301 103.318,40.611 98.758,40.611 C95.398,40.611 92.638,41.741 90.738,43.911 C88.968,45.941 88.028,48.751 88.028,52.031 C88.028,59.261 92.128,63.751 98.718,63.751 C104.578,63.751 107.798,60.831 107.798,55.521 L107.798,55.111 L98.398,55.111 L98.398,50.131 L113.608,50.131 L113.608,68.041 L109.008,68.041 L108.938,67.721 C108.808,67.161 108.668,65.811 108.598,64.591 C106.278,67.451 102.988,68.691 97.878,68.691 L97.878,68.691 Z" id="Fill-33" fill="#0F0D20" sketch:type="MSShapeGroup"></path>
        </g>
    </g>
</svg>