<?xml version="1.0" encoding="UTF-8" standalone="no"?>
<svg width="240px" height="240px" viewBox="0 0 240 240" version="1.1" xmlns="http://www.w3.org/2000/svg" xmlns:xlink="http://www.w3.org/1999/xlink" xmlns:sketch="http://www.bohemiancoding.com/sketch/ns">
    <!-- Generator: Sketch 3.5.1 (25234) - http://www.bohemiancoding.com/sketch -->
    <title>Group 7</title>
    <desc>Created with Sketch.</desc>
    <defs></defs>
    <g id="Page-1" stroke="none" stroke-width="1" fill="none" fill-rule="evenodd" sketch:type="MSPage">
        <g id="Group-7" sketch:type="MSLayerGroup">
            <g id="Group-4-Copy" fill="#0F0D20" sketch:type="MSShapeGroup">
                <rect id="Rectangle-22" x="0" y="0" width="240" height="240"></rect>
            </g>
            <g id="groove_logo_monowhite-9f9403f720de7e4470290990e64f3603-copy" transform="translate(88.000000, 91.000000)" fill="#F7F7F7" sketch:type="MSShapeGroup">
                <g id="Group">
                    <path d="M28.05,7.52292834 C28.375,8.00745593 28.675,8.49198352 28.975,8.92550821 C29.125,9.15502127 29.275,9.41003579 29.45,9.63954886 C29.775,8.54298643 30.15,7.44642399 30.575,6.375363 C29.75,6.70688188 28.925,7.06390221 28.05,7.52292834 L28.05,7.52292834 Z M41.9,1.09656244 C42.15,0.943553725 42.375,0.841547917 42.6,0.790545012 C42.5,0.739542108 42.425,0.688539204 42.325,0.6375363 C39.95,-0.663037752 36.525,0.459026136 36.225,0.561031944 C33.875,1.68309583 32.5,4.71776862 32.5,4.74327007 C31.55,6.68138043 30.8,8.74699804 30.225,10.8636186 C32.675,14.7653407 35.85,20.1716485 38.925,26.4450057 C39.25,26.1644898 39.475,25.9349767 39.625,25.781968 C37.325,7.11490511 40.05,2.29513068 41.9,1.09656244 L41.9,1.09656244 Z M31.75,31.9533194 C34.625,29.7346931 37.05,27.5415682 37.875,26.7765246 C31.1,12.9292362 23.725,3.1366786 23.4,2.70315391 C22.8,2.04011616 22.425,1.9126089 22.325,1.88710745 L22.3,1.9126089 L22.325,1.88710745 C21.575,1.73409874 16.025,3.72321199 12.525,7.77794286 C12.2,8.33897481 12.675,9.66505031 12.8,10.098575 C14.325,14.7398393 16.925,20.477666 19.15,24.8384143 C21.45,29.3266698 23,32.2593368 25.4,36.2885662 C26.55,35.5745256 29.775,33.5854123 31.75,31.9533194 L31.75,31.9533194 Z M62.5,23.7928547 C63.725,21.9822516 64.55,20.2736544 63.55,18.3610455 C62.85,17.0349699 61,17.1879787 60.075,16.7289525 C59.7,16.5504424 59.35,16.3464307 59.05,16.193422 C60.9,17.9275208 62.4,20.6051732 62.5,23.7928547 L62.5,23.7928547 Z M44.675,6.22235429 L44.675,6.12034848 C44.6,4.74327007 44.175,2.39713649 43.35,1.861606 C43.175,1.75960019 42.85,1.73409874 42.475,1.98911326 C42.05,2.26962923 41.275,3.03467279 40.675,5.17679476 C41.175,5.20229621 41.7,5.30430202 42.2,5.45731073 C42.425,5.50831364 42.625,5.53381509 42.825,5.58481799 C43.175,5.66132235 43.65,5.81433106 44.075,5.96733977 C43.5,5.78882961 42.925,5.6358209 42.3,5.48281218 C43.1,5.71232525 43.9,5.99284122 44.675,6.22235429 L44.675,6.22235429 Z M4.1,24.5833997 C4.375,24.6344026 11.075,26.062484 22.775,37.6401432 L24.225,36.8240967 C19.75,29.3266698 17.175,23.7418518 15.1,19.3811035 C13.125,18.6670629 9.325,17.7745121 8.6,17.7745121 C5.675,17.7745121 3.275,22.4667792 3.125,24.5833997 C3.45,24.5068954 3.85,24.5578983 4.1,24.5833997 L4.1,24.5833997 Z M43.975,6.9618964 C41.425,6.57937462 39.925,8.59398933 40.55,23.4868373 C41.7,22.568785 43.375,20.987695 44.3,19.2535963 C47.25,21.7017357 54.525,29.9897076 54.175,38.4051867 C54.7,38.022665 56.25,36.8240967 57.325,35.4725198 C57.575,35.1665023 57.775,34.8349835 57.975,34.528966 C62.9,24.4813939 51.625,8.16046465 43.975,6.9618964 L43.975,6.9618964 Z M40.7,26.1644898 L40.525,26.3429999 C39.075,27.7710812 37.35,29.3011684 35.525,30.7802526 C31.75,34.1974472 24.325,39.7312622 12.75,43.326967 C10.875,43.836996 4.3,45.8261093 1.8,42.6129263 C-0.525,39.6547579 3.1,35.8550415 6.325,34.6054704 C9.175,33.5089079 13.225,33.7129196 16.675,33.8149254 C7.375,25.9349767 -0.6,22.3902749 3.725,29.2756669 C3.675,29.1991626 3.625,29.1226582 3.55,29.0461538 C4.275,30.2447221 5.275,31.4687918 6.3,32.7183629 C0.85,35.4470183 -0.575,40.2157898 0.2,42.4344162 C1.1,44.9590599 3.45,46.8206659 5.3,48.4272574 C14.25,56.2052002 27.4,58.219815 38.25,54.6496117 C41.45,53.425542 51.325,48.8607821 52.55,39.7567637 C53.45,33.0243804 49.9,25.3484433 44.3,19.2280948 C44.3,19.2535963 43.575,23.0278112 40.7,26.1644898 L40.7,26.1644898 Z M62.15,24.4558925 C62,20.6051732 59.475,15.0458567 55.925,15.3008712 C58.375,19.2280948 59.875,23.8438576 59.8,28.0005943 C60.575,29.5306814 62.2,25.5524549 62.15,24.4558925 L62.15,24.4558925 Z" id="Shape"></path>
                </g>
            </g>
        </g>
    </g>
</svg>