<?xml version="1.0" encoding="UTF-8" standalone="no"?>
<svg width="240px" height="96px" viewBox="0 0 240 96" version="1.1" xmlns="http://www.w3.org/2000/svg" xmlns:xlink="http://www.w3.org/1999/xlink" xmlns:sketch="http://www.bohemiancoding.com/sketch/ns">
    <!-- Generator: Sketch 3.5.1 (25234) - http://www.bohemiancoding.com/sketch -->
    <title>GrooveHQ</title>
    <desc>Created with Sketch.</desc>
    <defs></defs>
    <g id="Page-1" stroke="none" stroke-width="1" fill="none" fill-rule="evenodd" sketch:type="MSPage">
        <g id="GrooveHQ" sketch:type="MSArtboardGroup" fill="#0F0D20">
            <path d="M199.258,68.041 L189.268,45.041 L195.478,45.041 L195.578,45.311 C196.668,48.191 198.218,51.911 199.568,55.201 C200.718,57.991 201.758,60.501 202.358,62.061 C203.148,59.771 204.828,55.511 209.058,45.311 L209.178,45.051 L215.068,45.051 L205.118,68.051 L199.258,68.051 L199.258,68.041 Z M119.518,68.051 L119.518,51.101 L119.538,51.101 C119.538,49.241 119.538,47.331 119.488,45.471 L119.478,45.041 L125.018,45.041 L125.068,45.401 C125.118,45.921 125.198,47.281 125.218,48.671 C126.948,45.991 129.858,44.481 133.418,44.481 L133.668,44.481 L134.068,44.501 L134.068,49.911 L133.648,49.901 L133.448,49.901 C128.218,49.901 125.248,53.101 125.248,58.671 L125.248,68.051 L119.518,68.051 Z M148.068,49.151 C145.038,49.151 141.508,51.101 141.508,56.571 C141.508,61.411 144.868,63.941 148.178,63.941 C153.038,63.941 154.768,60.151 154.768,56.601 C154.768,52.901 152.718,49.151 148.098,49.151 L148.068,49.151 Z M148.008,68.661 C144.288,68.661 141.128,67.391 138.888,64.981 C136.838,62.801 135.698,59.811 135.698,56.571 C135.698,53.291 136.878,50.281 138.988,48.071 C141.278,45.701 144.468,44.441 148.218,44.441 L148.248,44.441 C156.368,44.441 160.618,50.521 160.618,56.531 C160.618,62.571 156.708,68.661 148.008,68.661 L148.008,68.661 Z M175.788,49.151 C172.778,49.151 169.238,51.101 169.238,56.571 C169.238,61.411 172.588,63.941 175.908,63.941 C180.758,63.941 182.498,60.151 182.498,56.601 C182.498,52.901 180.438,49.151 175.818,49.151 L175.788,49.151 Z M175.738,68.661 C172.018,68.661 168.858,67.391 166.618,64.981 C164.558,62.801 163.428,59.811 163.428,56.571 C163.428,53.291 164.598,50.281 166.718,48.071 C169.018,45.701 172.198,44.441 175.948,44.441 L175.978,44.441 C184.088,44.441 188.348,50.521 188.348,56.531 C188.348,62.571 184.448,68.661 175.738,68.661 L175.738,68.661 Z M234.088,54.011 C233.558,49.441 229.658,48.931 227.978,48.931 C223.418,48.931 222.128,51.921 221.798,54.011 L234.088,54.011 Z M228.128,68.661 C224.218,68.661 221.018,67.351 218.848,64.881 C216.978,62.741 215.948,59.811 215.948,56.601 C215.948,53.241 217.098,50.181 219.168,47.971 C221.368,45.651 224.428,44.441 228.038,44.441 C231.988,44.441 235.208,45.791 237.298,48.341 C239.038,50.451 239.998,53.341 239.998,56.491 L239.998,58.121 L221.698,58.121 C222.088,61.721 224.638,64.031 228.288,64.031 C231.108,64.031 232.858,63.101 234.028,61.021 L234.148,60.801 L239.878,60.801 L239.678,61.371 C238.958,63.411 237.698,65.131 236.048,66.361 C233.958,67.881 231.298,68.661 228.128,68.661 L228.128,68.661 Z M97.878,68.691 C88.108,68.691 81.788,62.271 81.788,52.301 C81.788,47.681 83.388,43.481 86.278,40.511 C89.358,37.351 93.678,35.681 98.808,35.681 C103.198,35.681 106.768,36.711 109.428,38.771 C112.148,40.881 113.248,43.541 113.698,45.401 L113.828,45.921 L107.798,45.921 L107.688,45.651 C106.318,42.301 103.318,40.611 98.758,40.611 C95.398,40.611 92.638,41.741 90.738,43.911 C88.968,45.941 88.028,48.751 88.028,52.031 C88.028,59.261 92.128,63.751 98.718,63.751 C104.578,63.751 107.798,60.831 107.798,55.521 L107.798,55.111 L98.398,55.111 L98.398,50.131 L113.608,50.131 L113.608,68.041 L109.008,68.041 L108.938,67.721 C108.808,67.161 108.668,65.811 108.598,64.591 C106.278,67.451 102.988,68.691 97.878,68.691 L97.878,68.691 Z" id="Fill-33" sketch:type="MSShapeGroup"></path>
            <g id="groove_logo_monowhite-9f9403f720de7e4470290990e64f3603" sketch:type="MSLayerGroup" transform="translate(0.000000, 23.000000)">
                <g id="Group" sketch:type="MSShapeGroup">
                    <path d="M29.3648437,7.87556561 C29.7050781,8.38280543 30.0191406,8.89004525 30.3332031,9.3438914 C30.4902344,9.5841629 30.6472656,9.85113122 30.8304687,10.0914027 C31.1707031,8.94343891 31.5632812,7.79547511 32.0082031,6.67420814 C31.1445312,7.02126697 30.2808594,7.39502262 29.3648437,7.87556561 L29.3648437,7.87556561 Z M43.8640625,1.1479638 C44.1257812,0.987782805 44.3613281,0.880995475 44.596875,0.82760181 C44.4921875,0.774208145 44.4136719,0.72081448 44.3089844,0.667420814 C41.8226562,-0.694117647 38.2371094,0.480542986 37.9230469,0.587330317 C35.4628906,1.76199095 34.0234375,4.93891403 34.0234375,4.96561086 C33.0289062,6.99457014 32.24375,9.15701357 31.6417969,11.3728507 C34.2066406,15.4574661 37.5304687,21.1171946 40.7496094,27.6846154 C41.0898437,27.3909502 41.3253906,27.1506787 41.4824219,26.9904977 C39.0746094,7.44841629 41.9273437,2.40271493 43.8640625,1.1479638 L43.8640625,1.1479638 Z M33.2382812,33.4511312 C36.2480469,31.1285068 38.7867187,28.8325792 39.6503906,28.0316742 C32.5578125,13.5352941 24.8371094,3.28371041 24.496875,2.82986425 C23.86875,2.13574661 23.4761719,2.00226244 23.3714844,1.97556561 L23.3453125,2.00226244 L23.3714844,1.97556561 C22.5863281,1.81538462 16.7761719,3.89773756 13.1121094,8.14253394 C12.771875,8.72986425 13.2691406,10.1180995 13.4,10.5719457 C14.9964844,15.4307692 17.7183594,21.4375566 20.0476562,26.0027149 C22.4554687,30.7013575 24.078125,33.7714932 26.590625,37.9895928 C27.7945312,37.2420814 31.1707031,35.1597285 33.2382812,33.4511312 L33.2382812,33.4511312 Z M65.4296875,24.9081448 C66.7121094,23.0126697 67.5757813,21.2239819 66.5289063,19.2217195 C65.7960937,17.8334842 63.859375,17.9936652 62.8910156,17.5131222 C62.4984375,17.3262443 62.1320313,17.1126697 61.8179688,16.9524887 C63.7546875,18.7678733 65.325,21.5710407 65.4296875,24.9081448 L65.4296875,24.9081448 Z M46.7691406,6.51402715 L46.7691406,6.40723982 C46.690625,4.96561086 46.2457031,2.50950226 45.3820312,1.94886878 C45.1988281,1.84208145 44.8585937,1.81538462 44.4660156,2.08235294 C44.0210937,2.3760181 43.2097656,3.17692308 42.5816406,5.41945701 C43.1050781,5.44615385 43.6546875,5.55294118 44.178125,5.71312217 C44.4136719,5.76651584 44.6230469,5.79321267 44.8324219,5.84660633 C45.1988281,5.92669683 45.6960937,6.08687783 46.1410156,6.24705882 C45.5390625,6.060181 44.9371094,5.9 44.2828125,5.739819 C45.1203125,5.9800905 45.9578125,6.27375566 46.7691406,6.51402715 L46.7691406,6.51402715 Z M4.2921875,25.7357466 C4.58007812,25.7891403 11.5941406,27.2841629 23.8425781,39.4045249 L25.3605469,38.5502262 C20.6757812,30.7013575 17.9800781,24.8547511 15.8078125,20.2895928 C13.7402344,19.5420814 9.76210937,18.6076923 9.003125,18.6076923 C5.94101562,18.6076923 3.42851562,23.5199095 3.27148437,25.7357466 C3.61171875,25.6556561 4.03046875,25.7090498 4.2921875,25.7357466 L4.2921875,25.7357466 Z M46.0363281,7.28823529 C43.3667969,6.88778281 41.7964844,8.99683258 42.4507812,24.5877828 C43.6546875,23.6266968 45.4082031,21.9714932 46.3765625,20.1561086 C49.4648438,22.7190045 57.0808594,31.3954751 56.7144531,40.2054299 C57.2640625,39.8049774 58.8867188,38.5502262 60.0121094,37.1352941 C60.2738281,36.8149321 60.4832031,36.4678733 60.6925781,36.1475113 C65.8484375,25.6289593 54.0449219,8.54298643 46.0363281,7.28823529 L46.0363281,7.28823529 Z M42.6078125,27.3909502 L42.4246094,27.5778281 C40.9066406,29.0728507 39.1007812,30.6746606 37.1902344,32.2230769 C33.2382812,35.8004525 25.4652344,41.5936652 13.3476562,45.3579186 C11.3847656,45.8918552 4.5015625,47.9742081 1.884375,44.6104072 C-0.549609375,41.5135747 3.2453125,37.5357466 6.62148437,36.2276018 C9.60507812,35.079638 13.8449219,35.2932127 17.4566406,35.4 C7.72070312,27.1506787 -0.628125,23.439819 3.89960937,30.6479638 C3.84726562,30.5678733 3.79492187,30.4877828 3.71640625,30.4076923 C4.47539062,31.6624434 5.52226562,32.9438914 6.5953125,34.2520362 C0.88984375,37.1085973 -0.601953125,42.100905 0.209375,44.4235294 C1.1515625,47.0665158 3.61171875,49.0153846 5.5484375,50.6972851 C14.9179687,58.839819 28.684375,60.9488688 40.0429687,57.2113122 C43.3929687,55.9298643 53.7308594,51.1511312 55.0132812,41.620362 C55.9554687,34.5723982 52.2390625,26.5366516 46.3765625,20.1294118 C46.3765625,20.1561086 45.6175781,24.1072398 42.6078125,27.3909502 L42.6078125,27.3909502 Z M65.0632812,25.6022624 C64.90625,21.5710407 62.2628906,15.7511312 58.5464844,16.0180995 C61.1113281,20.1294118 62.6816406,24.9615385 62.603125,29.3131222 C63.4144531,30.9149321 65.115625,26.7502262 65.0632812,25.6022624 L65.0632812,25.6022624 Z" id="Shape"></path>
                </g>
            </g>
        </g>
    </g>
</svg>