<?xml version="1.0" encoding="UTF-8" standalone="no"?>
<svg width="240px" height="96px" viewBox="0 0 240 96" version="1.1" xmlns="http://www.w3.org/2000/svg" xmlns:xlink="http://www.w3.org/1999/xlink" xmlns:sketch="http://www.bohemiancoding.com/sketch/ns">
    <!-- Generator: Sketch 3.5.1 (25234) - http://www.bohemiancoding.com/sketch -->
    <title>Teespring</title>
    <desc>Created with Sketch.</desc>
    <defs></defs>
    <g id="Page-1" stroke="none" stroke-width="1" fill="none" fill-rule="evenodd" sketch:type="MSPage">
        <g id="Teespring" sketch:type="MSArtboardGroup">
            <g id="Group" sketch:type="MSLayerGroup" transform="translate(0.000000, 15.000000)">
                <g id="Text" transform="translate(78.000000, 24.000000)" fill="#0F0D20" sketch:type="MSShapeGroup">
                    <path d="M4.37800948,23.9078673 L4.37800948,12.4561137 L1.09421801,12.4561137 L1.09421801,8.72189573 L4.37800948,8.72189573 L4.37800948,3.30540284 L8.68663507,3.30540284 L8.68663507,8.72189573 L12.7086256,8.72189573 L12.7086256,12.4561137 L8.68663507,12.4561137 L8.68663507,22.8398104 C8.68663507,24.1933649 9.34293839,25.2204739 10.5736493,25.2204739 C11.3948815,25.2204739 12.134218,24.8508057 12.4618009,24.4822749 L13.4877725,27.7637915 C12.7074882,28.4621801 11.4346919,29.0365877 9.46578199,29.0365877 C6.10009479,29.0354502 4.37800948,27.2291943 4.37800948,23.9078673 L4.37800948,23.9078673 Z" id="Shape"></path>
                    <path d="M14.1463507,18.6119431 C14.1463507,12.8655924 18.3309953,8.22938389 24.201327,8.22938389 C30.1501422,8.22938389 33.9264455,12.7450237 33.9264455,18.9816114 L33.9264455,20.0485308 L18.6585782,20.0485308 C18.988436,23.0036019 21.2018957,25.507109 24.9383886,25.507109 C26.9072986,25.507109 29.1662559,24.7279621 30.6017062,23.290237 L32.5694787,26.1236019 C30.5584834,28.0117536 27.6454976,29.0365877 24.5277725,29.0365877 C18.5357346,29.0354502 14.1463507,24.892891 14.1463507,18.6119431 L14.1463507,18.6119431 Z M24.1581043,11.7588626 C20.505782,11.7588626 18.7802844,14.5888152 18.6187678,16.9717536 L29.7793365,16.9717536 C29.6576303,14.6309005 28.0583886,11.7588626 24.1581043,11.7588626 L24.1581043,11.7588626 Z" id="Shape"></path>
                    <path d="M35.7736493,18.6119431 C35.7736493,12.8655924 39.9617062,8.22938389 45.829763,8.22938389 C51.7797156,8.22938389 55.5571564,12.7450237 55.5571564,18.9816114 L55.5571564,20.0485308 L40.2904265,20.0485308 C40.616872,23.0036019 42.8337441,25.507109 46.570237,25.507109 C48.5380095,25.507109 50.7958294,24.7279621 52.2324171,23.290237 L54.2036019,26.1236019 C52.1914692,28.0117536 49.2784834,29.0365877 46.1584834,29.0365877 C40.1653081,29.0354502 35.7736493,24.892891 35.7736493,18.6119431 L35.7736493,18.6119431 Z M45.7888152,11.7588626 C42.1364929,11.7588626 40.4121327,14.5888152 40.2483412,16.9717536 L51.4111848,16.9717536 C51.2883412,14.6309005 49.6879621,11.7588626 45.7888152,11.7588626 L45.7888152,11.7588626 Z" id="Shape"></path>
                    <path d="M56.9118483,25.9165877 L58.8830332,22.8398104 C60.2775355,24.2752607 63.0278673,25.5901422 65.5711848,25.5901422 C68.1565877,25.5901422 69.5101422,24.5220853 69.5101422,22.962654 C69.5101422,19.0635071 57.5294787,21.8536493 57.5294787,14.2214218 C57.5294787,10.9774408 60.3196209,8.22824645 65.3254976,8.22824645 C68.6911848,8.22824645 71.2345024,9.41914692 72.9998104,10.9774408 L71.1935545,14.0144076 C70.0037915,12.7006635 67.8301422,11.6337441 65.3254976,11.6337441 C63.0676777,11.6337441 61.6731754,12.7006635 61.6731754,14.0963033 C61.6731754,17.5836967 73.6561137,14.9584834 73.6561137,22.838673 C73.6561137,26.3681517 70.7419905,29.0343128 65.4073934,29.0343128 C62.0018957,29.0354502 58.9649289,27.9275829 56.9118483,25.9165877 L56.9118483,25.9165877 Z" id="Shape"></path>
                    <path d="M81.0449289,25.7948815 L81.0449289,36.0966825 L76.7374408,36.0966825 L76.7374408,8.72189573 L81.0449289,8.72189573 L81.0449289,11.4324171 C82.5236019,9.46236967 84.8212322,8.23052133 87.4066351,8.23052133 C92.5376303,8.23052133 96.1899526,12.0887204 96.1899526,18.6130806 C96.1899526,25.1374408 92.5376303,29.0365877 87.4066351,29.0365877 C84.9042654,29.0354502 82.6862559,27.8877725 81.0449289,25.7948815 L81.0449289,25.7948815 Z M91.757346,18.6119431 C91.757346,14.7537441 89.5404739,12.0454976 86.1349763,12.0454976 C84.123981,12.0454976 82.0322275,13.1965877 81.0449289,14.6729858 L81.0449289,22.5122275 C81.9890047,23.9886256 84.123981,25.2216114 86.1349763,25.2216114 C89.5404739,25.2204739 91.757346,22.4712796 91.757346,18.6119431 L91.757346,18.6119431 Z" id="Shape"></path>
                    <path d="M99.2690047,28.5452133 L99.2690047,8.72189573 L103.578768,8.72189573 L103.578768,11.5962085 C105.097251,9.70464455 107.477915,8.22938389 110.02237,8.22938389 L110.02237,12.4959242 C109.653839,12.4163033 109.242085,12.3753555 108.707488,12.3753555 C106.862559,12.3753555 104.440948,13.6049289 103.578768,15.042654 L103.578768,28.5452133 L99.2690047,28.5452133 L99.2690047,28.5452133 Z" id="Shape"></path>
                    <path d="M111.787678,3.63298578 C111.787678,2.1543128 112.977441,0.964549763 114.456114,0.964549763 C115.932512,0.964549763 117.123412,2.1543128 117.123412,3.63298578 C117.123412,5.10938389 115.932512,6.3014218 114.456114,6.3014218 C112.977441,6.3014218 111.787678,5.10938389 111.787678,3.63298578 L111.787678,3.63298578 Z M112.28019,28.5452133 L112.28019,8.72189573 L116.589953,8.72189573 L116.589953,28.5452133 L112.28019,28.5452133 L112.28019,28.5452133 Z" id="Shape"></path>
                    <path d="M134.36019,28.5452133 L134.36019,16.1505213 C134.36019,13.0316588 132.758673,12.0454976 130.338199,12.0454976 C128.16455,12.0454976 126.276398,13.3592417 125.249289,14.6729858 L125.249289,28.5452133 L120.940664,28.5452133 L120.940664,8.72189573 L125.249289,8.72189573 L125.249289,11.3903318 C126.563033,9.83090047 129.148436,8.23052133 132.267299,8.23052133 C136.534976,8.23052133 138.668815,10.5270142 138.668815,14.5899526 L138.668815,28.5463507 L134.36019,28.5463507 L134.36019,28.5452133 Z" id="Shape"></path>
                    <path d="M142.774976,33.6329858 L144.787109,30.5141232 C146.427299,32.3601896 148.480379,33.0574408 151.10673,33.0574408 C153.93782,33.0574408 156.975924,31.7448341 156.975924,27.5169668 L156.975924,25.2602844 C155.458578,27.2724171 153.200758,28.5850237 150.614218,28.5850237 C145.566256,28.5850237 141.8309,24.9327014 141.8309,18.4060664 C141.8309,11.9647393 145.483223,8.23052133 150.614218,8.23052133 C153.116588,8.23052133 155.375545,9.33838863 156.975924,11.4722275 L156.975924,8.72303318 L161.28455,8.72303318 L161.28455,27.5181043 C161.28455,34.6589573 155.949953,36.5880569 151.10673,36.5880569 C147.741043,36.5869194 145.237536,35.8487204 142.774976,33.6329858 L142.774976,33.6329858 Z M156.975924,22.1027488 L156.975924,14.6729858 C155.989763,13.2375355 153.896872,12.0454976 151.887014,12.0454976 C148.438294,12.0454976 146.264645,14.5888152 146.264645,18.4060664 C146.264645,22.2233175 148.438294,24.7290995 151.887014,24.7290995 C153.896872,24.7279621 155.989763,23.5370616 156.975924,22.1027488 L156.975924,22.1027488 Z" id="Shape"></path>
                </g>
                <g id="Logo" sketch:type="MSShapeGroup">
                    <path d="M60.4834123,0.028436019 L81.8092891,0.028436019 L81.8092891,80.7287204 L1.10559242,80.7287204 L1.10559242,0.028436019 L52.2119431,0.028436019 C51.483981,0.0966824645 50.7605687,0.205876777 50.0371564,0.226350711 C49.4616114,0.241137441 49.2,0.474312796 49.1419905,1.03165877 C49.0805687,1.63905213 49.016872,2.25099526 48.9008531,2.84815166 C48.3719431,5.59279621 47.4312796,8.14066351 45.0699526,9.8456872 C41.4324171,12.4754502 35.8236967,13.3069194 31.9359242,8.66843602 C30.8815166,7.41042654 30.0125118,5.98407583 29.145782,4.58161137 C28.7909005,4.00606635 28.464455,3.81042654 27.8240758,4.02199052 C26.0223697,4.61687204 24.1922275,5.13781991 22.4007583,5.76341232 C15.3781991,8.21459716 8.71620853,11.4369668 2.39545024,15.36 C1.36720379,15.9969668 1.2250237,16.3814218 1.68341232,17.3903318 C4.28246445,23.1014218 6.89744076,28.8090995 9.51127962,34.5190521 C9.66028436,34.8420853 9.86047393,35.1366825 10.0652133,35.5029384 C13.5605687,33.7524171 16.9637915,32.0496682 20.4830332,30.28891 C22.8159242,39.9446445 25.1101422,49.44 27.4327962,59.0479621 C28.7181043,58.425782 29.80891,57.8775355 30.9156398,57.3656872 C35.375545,55.3035071 40.002654,53.8748815 44.9459716,53.6655924 C48.1592417,53.5290995 51.3179147,53.7872986 54.3389573,54.9861611 C56.3965877,55.7971564 57.0017062,57.6750711 55.8051185,59.5370616 C55.0293839,60.7427488 53.9931754,61.7061611 52.7749763,62.438673 C47.6940284,65.4938389 42.1433175,66.5459716 36.2866351,66.1876777 C35.7577251,66.1558294 35.1275829,66.1262559 34.7488152,65.5086256 C34.8875829,65.3869194 34.9842654,65.2561137 35.1105213,65.2003791 C36.4527014,64.6100474 37.7630332,63.9207583 39.1552607,63.4703318 C41.9158294,62.5740284 44.784455,62.3169668 47.6769668,62.3476777 C49.8983886,62.3727014 51.6193365,61.3819905 53.0274882,59.7645498 C53.2959242,59.4551659 53.4517536,59.0490995 53.6769668,58.6623697 C53.4381043,58.5372512 53.3107109,58.4496682 53.1696682,58.4053081 C52.8818957,58.3052133 52.5850237,58.2130806 52.2892891,58.1516588 C46.0652133,56.8834123 40.0447393,57.4873934 34.2494787,60.1296682 C32.7469194,60.815545 31.450237,61.7687204 30.4345024,63.0790521 C28.7135545,65.2936493 29.1776303,68.20891 31.5628436,69.6909953 C32.3533649,70.1835071 33.2712796,70.5474882 34.1778199,70.761327 C36.6483412,71.3436967 39.1700474,71.2788626 41.6746919,71.0604739 C46.0618009,70.6782938 50.1781991,69.3327014 54.1137441,67.3854028 C54.5311848,67.1772512 54.9816114,67.0305213 55.4525118,66.8394313 C55.4991469,68.1019905 54.7996209,69.4976303 53.6906161,70.425782 C52.0447393,71.7952607 50.1872986,72.8382938 48.1410427,73.4036019 C45.3429384,74.1770616 42.4959242,74.774218 39.6557346,75.388436 C39.0233175,75.5294787 38.7537441,75.7592417 38.8094787,76.4121327 C38.8993365,77.4790521 38.9675829,78.5493839 39.0096682,79.6174408 C39.0335545,80.2316588 39.3258768,80.4238863 39.8945972,80.3294787 C43.7334597,79.6834123 47.5632227,79.0157346 51.2030332,77.5632227 C53.7679621,76.5418009 56.0724171,75.1222749 57.9480569,73.0680569 C59.883981,70.9421801 60.903128,68.4625592 60.4754502,65.5859716 C60.1990521,63.7035071 60.2559242,61.9734597 60.8837915,60.1251185 C61.7584834,57.5556398 61.2966825,55.0248341 59.5177251,52.8602844 C58.0140284,51.0301422 55.9723223,50.0712796 53.7372512,49.4980095 C49.7698578,48.4754502 45.7478673,48.4731754 41.71109,49.0305213 C38.4193365,49.4854976 35.2561137,50.4398104 32.11109,51.4737441 C31.5708057,51.6534597 31.0157346,51.7933649 30.374218,51.9776303 C28.1232227,42.6574408 25.8995261,33.4498578 23.6564929,24.1603791 C23.2003791,24.3412322 22.8591469,24.4686256 22.5292891,24.6108057 C19.3308057,26.0132701 16.136872,27.4248341 12.9395261,28.8250237 C12.0636967,29.2037915 12.0329858,29.1912796 11.6417062,28.3256872 C10.2312796,25.2329858 8.82199052,22.1402844 7.41383886,19.0475829 C6.9292891,17.989763 6.9236019,17.9124171 7.98255924,17.3380095 C10.08,16.1982938 12.1421801,14.9698578 14.322654,14.0132701 C17.7952607,12.4879621 21.349763,11.1503318 24.8667299,9.72398104 C25.7016114,9.38616114 26.3567773,9.6250237 26.908436,10.2756398 C27.0870142,10.4872038 27.2576303,10.704455 27.4327962,10.9182938 C33.5237915,18.4333649 42.9190521,17.2492891 48.0375355,13.3455924 C50.4307109,11.52 51.9105213,9.04492891 52.8853081,6.23658768 C53.4540284,4.59981043 53.4904265,4.59526066 55.2477725,4.56909953 C59.7565877,4.49971564 64.2437915,4.80454976 68.7162085,5.38009479 C70.7158294,5.63488152 72.7086256,5.97952607 74.6945972,6.34009479 C75.9469194,6.56872038 76.1835071,6.96796209 75.9332701,8.19298578 C75.705782,9.3042654 75.4350711,10.4053081 75.2132701,11.5165877 C74.8208531,13.4672986 74.4534597,15.4225592 74.064455,17.3732701 C73.8324171,18.5425592 73.3615166,18.9895735 72.3799052,18.9145024 C69.2405687,18.6597156 66.1012322,18.3696682 62.9584834,18.1319431 C61.9984834,18.0602844 61.0282464,18.1205687 60.0170616,18.1205687 C59.9374408,19.2147867 59.8407583,20.2145972 59.7998104,21.2200948 C59.643981,24.8599052 59.5109005,28.4985782 59.3618957,32.1429384 C59.2947867,33.8536493 59.2015166,35.5666351 59.1287204,37.277346 C59.0274882,39.6944076 58.9376303,42.1114692 58.8398104,44.5296682 C58.8113744,45.2337441 59.1059716,45.7672038 59.6883412,46.1596209 C60.6540284,46.8022749 61.6185782,47.4563033 62.5899526,48.0978199 C62.7253081,48.1876777 62.9027488,48.2127014 63.1541232,48.296872 C63.1791469,47.8418957 63.2030332,47.481327 63.2200948,47.1184834 C63.2997156,45.1939336 63.3645498,43.2648341 63.4589573,41.3414218 C63.7455924,35.4358294 64.0470142,29.5381991 64.3336493,23.6371564 C64.3859716,22.531564 64.3723223,22.5054028 65.5006635,22.6339336 C68.2976303,22.9581043 71.0923223,23.3129858 73.8892891,23.6485308 C75.0005687,23.7850237 76.1163981,23.9067299 77.3004739,24.0420853 C78.7074882,17.068436 80.0985782,10.1994313 81.494218,3.2985782 C80.9766825,3.15753555 80.6581991,3.05971564 80.332891,2.98236967 C74.092891,1.507109 67.7880569,0.484549763 61.372891,0.199052133 C61.0714692,0.17971564 60.7780095,0.0875829384 60.4834123,0.028436019 L60.4834123,0.028436019 Z" id="Shape"></path>
                    <path d="M60.4834123,0.028436019 C60.7780095,0.0875829384 61.0726066,0.17971564 61.3694787,0.197914692 C67.7846445,0.483412322 74.0894787,1.50597156 80.3294787,2.98123223 C80.6547867,3.0585782 80.9732701,3.1563981 81.4908057,3.29744076 C80.0951659,10.1982938 78.7052133,17.0672986 77.2970616,24.0409479 C76.1129858,23.9055924 74.9971564,23.7838863 73.8858768,23.6473934 C71.08891,23.3118483 68.294218,22.9581043 65.4972512,22.6327962 C64.36891,22.5042654 64.3825592,22.5304265 64.330237,23.636019 C64.0436019,29.5370616 63.7421801,35.4346919 63.455545,41.3402844 C63.3611374,43.2636967 63.2963033,45.1927962 63.2166825,47.117346 C63.1996209,47.4801896 63.176872,47.8407583 63.1507109,48.2957346 C62.8993365,48.211564 62.7218957,48.1865403 62.5865403,48.0966825 C61.6151659,47.4551659 60.6506161,46.8011374 59.6849289,46.1584834 C59.1025592,45.7660664 58.8079621,45.2337441 58.8363981,44.5285308 C58.934218,42.1103318 59.0240758,39.6932701 59.1253081,37.2762085 C59.1981043,35.5654976 59.2913744,33.8525118 59.3584834,32.1418009 C59.5074882,28.4985782 59.6405687,24.8599052 59.7963981,21.2189573 C59.837346,20.2134597 59.9340284,19.2136493 60.0136493,18.1194313 C61.0248341,18.1194313 61.9950711,18.0580095 62.9550711,18.1308057 C66.0989573,18.3696682 69.2371564,18.6597156 72.3764929,18.9133649 C73.3581043,18.9872986 73.8290047,18.5414218 74.0610427,17.3721327 C74.4500474,15.4202844 74.8174408,13.4650237 75.2098578,11.5154502 C75.4305213,10.4041706 75.7023697,9.30312796 75.9298578,8.19184834 C76.1800948,6.96682464 75.9435071,6.56758294 74.6911848,6.33895735 C72.7052133,5.97952607 70.7124171,5.63374408 68.7127962,5.37895735 C64.242654,4.80909953 59.7554502,4.5042654 55.2466351,4.57364929 C53.4892891,4.59867299 53.452891,4.60322275 52.8841706,6.24113744 C51.9105213,9.04947867 50.4295735,11.5245498 48.0363981,13.3501422 C42.9179147,17.2549763 33.522654,18.4390521 27.4316588,10.9228436 C27.2564929,10.7090047 27.0858768,10.4906161 26.9072986,10.2801896 C26.3556398,9.62957346 25.7004739,9.3907109 24.8655924,9.72853081 C21.3486256,11.156019 17.7941232,12.4936493 14.3215166,14.0178199 C12.1410427,14.9744076 10.0788626,16.2028436 7.9814218,17.3425592 C6.92246445,17.9169668 6.92815166,17.9943128 7.41270142,19.0521327 C8.82085308,22.1459716 10.2301422,25.2375355 11.6405687,28.330237 C12.0318483,29.1969668 12.0625592,29.2083412 12.9383886,28.8295735 C16.1357346,27.4293839 19.3296682,26.0178199 22.5281517,24.6153555 C22.8580095,24.4731754 23.1992417,24.3469194 23.6553555,24.1649289 C25.8995261,33.4544076 28.1232227,42.6619905 30.3730806,51.9821801 C31.0145972,51.7979147 31.5708057,51.6580095 32.1099526,51.4782938 C35.2561137,50.4443602 38.4193365,49.4900474 41.7099526,49.0350711 C45.7467299,48.4777251 49.7687204,48.48 53.7361137,49.5025592 C55.9711848,50.0758294 58.012891,51.0346919 59.5165877,52.8648341 C61.295545,55.0282464 61.757346,57.5601896 60.882654,60.1296682 C60.2536493,61.9780095 60.1967773,63.7080569 60.4743128,65.5905213 C60.9019905,68.467109 59.8828436,70.9467299 57.9469194,73.0726066 C56.0724171,75.1279621 53.7668246,76.5463507 51.2018957,77.5677725 C47.5620853,79.0191469 43.7323223,79.6868246 39.8934597,80.3340284 C39.3247393,80.428436 39.0642654,80.4727962 39.0642654,80.4727962 L38.7400948,75.5943128 C38.7400948,75.5943128 39.0221801,75.532891 39.6545972,75.3918483 C42.4947867,74.7776303 45.3418009,74.1804739 48.1399052,73.4070142 C50.1861611,72.8417062 52.0436019,71.798673 53.6894787,70.4291943 C54.7984834,69.5010427 55.4980095,68.1054028 55.4513744,66.8428436 C54.9804739,67.0339336 54.5300474,67.1818009 54.1126066,67.3888152 C50.1770616,69.3372512 46.0618009,70.6828436 41.6735545,71.0638863 C39.16891,71.2822749 36.6472038,71.347109 34.1766825,70.7647393 C33.2701422,70.5509005 32.3522275,70.185782 31.5617062,69.6944076 C29.1753555,68.2111848 28.7124171,65.2970616 30.4333649,63.0824645 C31.4490995,61.7732701 32.7446445,60.8189573 34.2483412,60.1330806 C40.0447393,57.4908057 46.0652133,56.8868246 52.2881517,58.1550711 C52.5850237,58.2164929 52.8807583,58.3086256 53.1685308,58.4087204 C53.3095735,58.4530806 53.4369668,58.5395261 53.6758294,58.665782 C53.4506161,59.0525118 53.2947867,59.4574408 53.0263507,59.7679621 C51.6181991,61.3865403 49.8972512,62.3772512 47.6758294,62.35109 C44.7833175,62.3215166 41.9146919,62.5774408 39.1541232,63.4737441 C37.7618957,63.9241706 36.451564,64.6134597 35.1093839,65.2037915 C34.983128,65.2595261 34.8864455,65.3891943 34.7476777,65.5120379 C35.1264455,66.1296682 35.7565877,66.1581043 36.2854976,66.19109 C42.1421801,66.5493839 47.692891,65.4972512 52.7738389,62.4420853 C53.9920379,61.7095735 55.0282464,60.7461611 55.803981,59.5404739 C57.0005687,57.6784834 56.3954502,55.8005687 54.3378199,54.9895735 C51.3167773,53.7907109 48.1581043,53.5325118 44.9448341,53.6690047 C40.0015166,53.8782938 35.3744076,55.305782 30.9145024,57.3690995 C29.8066351,57.8798104 28.7158294,58.4291943 27.4316588,59.0513744 C25.1090047,49.4434123 22.8136493,39.9480569 20.4818957,30.2923223 C16.962654,32.0530806 13.5594313,33.7558294 10.0640758,35.5063507 C9.85819905,35.1400948 9.65914692,34.8454976 9.51014218,34.5224645 C6.89630332,28.8125118 4.28132701,23.1059716 1.68227488,17.3937441 C1.22388626,16.3848341 1.36606635,15.9992417 2.3943128,15.3634123 C8.71507109,11.4415166 15.3770616,8.21914692 22.3996209,5.76682464 C24.1899526,5.14123223 26.0212322,4.62028436 27.8229384,4.02540284 C28.4633175,3.81383886 28.789763,4.00947867 29.1446445,4.5850237 C30.0113744,5.98635071 30.8803791,7.41270142 31.9347867,8.67184834 C35.8225592,13.3103318 41.4312796,12.48 45.0688152,9.84909953 C47.4301422,8.14407583 48.3708057,5.59620853 48.8997156,2.85156398 C49.0157346,2.25554502 49.0794313,1.6436019 49.1408531,1.03507109 C49.1988626,0.477725118 49.4604739,0.244549763 50.036019,0.229763033 C50.7594313,0.2092891 51.4828436,0.100094787 52.2108057,0.0318483412 C54.9679621,0.028436019 57.7262559,0.028436019 60.4834123,0.028436019 L60.4834123,0.028436019 Z" id="Shape" fill="#0F0D20"></path>
                </g>
            </g>
        </g>
    </g>
</svg>