<?xml version="1.0" encoding="UTF-8" standalone="no"?>
<svg width="540px" height="300px" viewBox="0 0 540 300" version="1.1" xmlns="http://www.w3.org/2000/svg" xmlns:xlink="http://www.w3.org/1999/xlink" xmlns:sketch="http://www.bohemiancoding.com/sketch/ns">
    <!-- Generator: Sketch 3.5.1 (25234) - http://www.bohemiancoding.com/sketch -->
    <title>Group 10</title>
    <desc>Created with Sketch.</desc>
    <defs>
        <path id="path-1" d="M24.3797389,27.5373327 C23.786518,23.3137178 22.6031122,18.4946846 20.8264855,13.080233 C19.9630667,10.5131417 19.5313574,8.51209551 19.5313574,7.09239302 C19.5313574,4.7976153 20.100898,3.04073347 21.2387649,1.82847889 C22.3748102,0.609492964 23.603755,1.77635684e-14 24.9243849,1.77635684e-14 C26.3804173,1.77635684e-14 27.7465862,0.595418327 29.0228915,1.79298633 C30.2967681,2.98321104 30.932492,4.72601823 30.932492,7.02079596 C30.932492,8.39766259 30.2730878,10.9720972 28.9518507,14.7300252 C27.5431788,18.6813265 26.6773313,22.9483892 26.3591658,27.5379446 C29.2269061,25.5656597 32.2531219,22.6974935 35.4408493,18.9328341 C39.5369271,14.1138009 42.9972811,11.7045903 45.8200896,11.7045903 C47.276122,11.7045903 48.5287471,12.1757846 49.5749288,13.1175614 C50.6235393,14.0568904 51.147541,15.3260555 51.147541,16.9397432 C51.147541,19.2345209 50.2938372,20.9773281 48.5858226,22.1675528 C46.8784151,23.3651208 44.1812941,24.3044498 40.4932453,24.9928832 C35.7590148,25.9107943 31.4115619,27.3304967 27.4527081,29.2599459 C29.7721592,30.4960661 33.1639011,31.5333057 37.6255051,32.3575898 C43.3178754,33.4119637 46.9919589,34.70989 48.6544346,36.2446373 C50.3144816,37.7867279 51.1469338,39.5148486 51.1469338,41.4436857 C51.1469338,42.7275374 50.6466124,43.8675829 49.6429337,44.8497478 C48.6422909,45.8368082 47.3896658,46.334316 45.8880944,46.334316 C42.8831301,46.334316 39.4009174,44.1037921 35.4402421,39.6506994 C31.6143621,35.3836367 28.590575,32.4940526 26.3585586,30.9807232 C26.7216559,35.7997564 27.814591,40.5471926 29.634328,45.229763 C30.5924677,47.7111826 31.0691089,49.6112586 31.0691089,50.9452894 C31.0691089,53.0081416 30.511712,54.7056652 29.3969182,56.0366362 C28.2821244,57.370667 26.9493507,58.0327869 25.4028476,58.0327869 C23.9917469,58.0327869 22.6826536,57.4135029 21.4749603,56.173099 C20.2703029,54.9326952 19.6673671,53.2186492 19.6673671,51.0144387 C19.6673671,49.7263035 20.1415795,47.7540185 21.0997192,45.0933002 C22.8739172,39.9517742 23.9674595,35.2471739 24.3773102,30.9807232 C21.0517515,33.088859 17.5938263,36.4380106 13.9956411,41.027566 C11.1752614,44.6086432 8.42167211,46.3985698 5.73487333,46.3985698 C4.14100965,46.3985698 2.7869845,45.9396142 1.66976195,45.0217032 C0.554968155,44.1037921 -6.39488462e-14,42.8199404 -6.39488462e-14,41.1707602 C-6.39488462e-14,36.8969661 3.70930028,34.1670985 11.128508,32.9738141 C17.1839757,31.962888 21.3037338,30.7292155 23.4877824,29.2593339 C19.344344,27.194034 15.1577954,25.7908539 10.9244935,25.0571369 C3.77609076,23.7732853 0.204014551,21.113179 0.204014551,17.0706985 C0.204014551,15.6051005 0.761411451,14.3646966 1.87863399,13.3537705 C2.99342779,12.3495758 4.25516064,11.8453366 5.66626129,11.8453366 C8.35366726,11.8453366 11.4035634,13.8390395 14.8165568,17.8307289 C16.2276574,19.4848047 17.5464658,20.9045072 18.7772322,22.1002393 L24.3797389,27.5373327 L24.3797389,27.5373327 Z"></path>
        <path d="M101.598302,17.0644923 C99.6202092,17.0644923 98.0720246,17.6217354 96.9547815,18.7405292 C95.8375385,19.8570831 95.1233231,21.4423138 94.8116185,23.4938092 L107.56032,23.4938092 C107.56032,22.6153846 107.441255,21.7855508 107.202954,21.0074092 C106.964652,20.2285785 106.599188,19.54624 106.103803,18.9605662 C105.609797,18.3743754 104.98656,17.9105231 104.235988,17.5714215 C103.484898,17.2321477 102.605268,17.0644923 101.598302,17.0644923 L101.598302,17.0644923 Z M101.460972,12.1981785 C103.237292,12.1981785 104.872148,12.4828308 106.365022,13.05024 C107.857895,13.6197169 109.144862,14.4474831 110.225748,15.5380185 C111.306117,16.6283815 112.148702,17.9651446 112.753157,19.5502031 C113.357612,21.1352615 113.65984,22.9444923 113.65984,24.9778954 C113.65984,25.4913723 113.636923,25.9181785 113.591262,26.2574523 C113.545428,26.5953477 113.463409,26.8605292 113.344172,27.0536862 C113.224935,27.2468431 113.064862,27.3827938 112.862917,27.4656738 C112.661662,27.5483815 112.405268,27.5888738 112.093563,27.5888738 L94.6742892,27.5888738 C94.8755446,30.4845046 95.6543754,32.6107815 97.0092308,33.9656369 C98.3647754,35.32256 100.159877,35.99904 102.395225,35.99904 C103.493686,35.99904 104.442068,35.8704985 105.238302,35.6147938 C106.035225,35.3577108 106.731865,35.0742646 107.326843,34.7634215 C107.921822,34.4517169 108.444086,34.1677538 108.89312,33.91136 C109.341465,33.6549662 109.776886,33.5257354 110.198178,33.5257354 C110.472837,33.5257354 110.711138,33.5808738 110.912394,33.6913231 C111.114338,33.8017723 111.288025,33.9558154 111.434658,34.15776 L113.412751,36.6312369 C112.661662,37.5103508 111.818905,38.2486892 110.884652,38.8443569 C109.951089,39.4400246 108.975138,39.9159385 107.958868,40.2739938 C106.942597,40.6292923 105.907372,40.8817231 104.853883,41.0292185 C103.800566,41.1760246 102.779471,41.2492554 101.790769,41.2492554 C99.8307692,41.2492554 98.0080985,40.9241108 96.3227569,40.2739938 C94.6374154,39.6224985 93.1728,38.6606769 91.9268431,37.3885292 C90.6810585,36.1143138 89.7009723,34.5380431 88.9869292,32.6595446 C88.2727138,30.7822523 87.9153477,28.6068677 87.9153477,26.1333908 C87.9153477,24.2090585 88.2263631,22.3998277 88.8496,20.7056985 C89.4721477,19.0095015 90.3653908,17.5355815 91.5284677,16.2815262 C92.6915446,15.0255754 94.1110154,14.0320492 95.7870523,13.2990523 C97.4630892,12.5660554 99.3541662,12.1981785 101.460972,12.1981785 L101.460972,12.1981785 Z M81.20672,18.1346954 C81.0237292,18.4281354 80.8310892,18.6340431 80.6298338,18.7525908 C80.4285785,18.8737231 80.1721846,18.9323077 79.86048,18.9323077 C79.5306831,18.9323077 79.1786585,18.8415015 78.8030277,18.6576492 C78.4273969,18.4737969 77.9919754,18.2678892 77.4979692,18.0390646 C77.0032738,17.8095508 76.4398277,17.6036431 75.8078031,17.4197908 C75.1757785,17.2380062 74.4300308,17.1451323 73.5684923,17.1451323 C72.2317292,17.1451323 71.1784123,17.4297846 70.4090585,17.9971938 C69.6397046,18.5666708 69.2554585,19.3075938 69.2554585,20.2244431 C69.2554585,20.8282092 69.4520615,21.3370338 69.8457846,21.7490215 C70.2395077,22.1610092 70.7617723,22.5244062 71.4120615,22.8354215 C72.0623508,23.1464369 72.7993108,23.4264369 73.6238031,23.6733538 C74.4482954,23.9197538 75.2903631,24.1902769 76.1512123,24.4830277 C77.0127508,24.7778462 77.8548185,25.1110892 78.6793108,25.4865477 C79.5038031,25.8620062 80.2407631,26.3386092 80.8910523,26.9161846 C81.5413415,27.49376 82.0636062,28.1841969 82.4573292,28.9919754 C82.8510523,29.7963077 83.0483446,30.7688123 83.0483446,31.9036308 C83.0483446,33.2605538 82.8005662,34.5104738 82.3058708,35.6552862 C81.8118646,36.8002708 81.0883446,37.7896615 80.1351385,38.6236308 C79.1834831,39.4576 78.0062769,40.1077169 76.6055877,40.5741538 C75.2042092,41.0419692 73.5969231,41.2747569 71.78304,41.2747569 C70.8117415,41.2747569 69.8647385,41.1879138 68.9392738,41.0142277 C68.0144985,40.8405415 67.12608,40.5962092 66.2745354,40.2853662 C65.4224738,39.9743508 64.6348554,39.6068185 63.9113354,39.1869046 C63.1878154,38.7649231 62.5516554,38.3065846 62.0018215,37.8124062 L63.5674092,35.2291692 C63.7693538,34.9181538 64.0069662,34.6798523 64.2821415,34.5144369 C64.5568,34.3488492 64.9046892,34.2680369 65.3261538,34.2680369 C65.7476185,34.2680369 66.1459938,34.3871015 66.5216246,34.6247138 C66.8972554,34.8616369 67.3319877,35.1200985 67.8266831,35.3933785 C68.3206892,35.6694154 68.9022277,35.9258092 69.5712985,36.1641108 C70.23968,36.4024123 71.0870892,36.5200985 72.1128369,36.5200985 C72.9185477,36.5200985 73.6103631,36.4244677 74.1872492,36.2326892 C74.7641354,36.0395323 75.2405662,35.7877908 75.6161969,35.4767754 C75.9918277,35.1645538 76.2663138,34.8030523 76.44,34.3910646 C76.6143754,33.9783877 76.7012185,33.5531323 76.7012185,33.1128862 C76.7012185,32.4526031 76.5046154,31.9120738 76.1102031,31.4914708 C75.7171692,31.0694892 75.1942154,30.7040246 74.5439262,30.39232 C73.8938092,30.0800985 73.1527138,29.8013046 72.3187446,29.5550769 C71.4854646,29.3067815 70.6334031,29.0360862 69.7637662,28.7433354 C68.89344,28.4505846 68.0413785,28.10528 67.2080985,27.7115569 C66.3748185,27.3178338 65.6330338,26.8196923 64.9829169,26.2152369 C64.3328,25.6107815 63.8103631,24.86848 63.41664,23.9879877 C63.0229169,23.1095631 62.8263138,22.04608 62.8263138,20.8016738 C62.8263138,19.6466954 63.0544492,18.5475446 63.5127877,17.5023262 C63.9704369,16.4583138 64.6434708,15.5476677 65.5320615,14.76832 C66.42048,13.9894892 67.5284185,13.3669415 68.8570831,12.8984369 C70.1843692,12.432 71.7189415,12.1978338 73.4589046,12.1978338 C75.4008123,12.1978338 77.1681723,12.5188431 78.7620185,13.1610338 C80.3551754,13.8011569 81.6831508,14.64512 82.7452554,15.6891323 L81.20672,18.1346954 L81.20672,18.1346954 Z M56.5021046,4.42141538 C56.5021046,5.00760615 56.38304,5.55692308 56.1454277,6.06971077 C55.9071262,6.58318769 55.5907692,7.03291077 55.1977354,7.41646769 C54.8033231,7.80209231 54.3415385,8.10914462 53.8097969,8.33728 C53.2787446,8.56748308 52.7106462,8.68189538 52.1061908,8.68189538 C51.52,8.68189538 50.9660308,8.56748308 50.4442831,8.33728 C49.9220185,8.10914462 49.4683323,7.80226462 49.0839138,7.41646769 C48.6996677,7.03273846 48.3926154,6.58318769 48.1637908,6.06971077 C47.9342769,5.55675077 47.8198646,5.00760615 47.8198646,4.42141538 C47.8198646,3.81627077 47.9342769,3.24886154 48.1637908,2.71780923 C48.3926154,2.18537846 48.6994954,1.72841846 49.0839138,1.34279385 C49.46816,0.959064615 49.9218462,0.652184615 50.4442831,0.421981538 C50.9658585,0.193846154 51.5198277,0.0787446154 52.1061908,0.0787446154 C52.7106462,0.0787446154 53.2787446,0.193846154 53.8097969,0.421981538 C54.3415385,0.652184615 54.8033231,0.959064615 55.1977354,1.34279385 C55.5907692,1.72841846 55.9071262,2.18555077 56.1454277,2.71780923 C56.38304,3.24886154 56.5021046,3.81627077 56.5021046,4.42141538 L56.5021046,4.42141538 Z M55.4858338,12.6384246 L55.4858338,40.8369231 L48.69984,40.8369231 L48.69984,12.6384246 L55.4858338,12.6384246 L55.4858338,12.6384246 Z M0.0363569231,12.6384246 L5.42097231,12.6384246 C5.93393231,12.6384246 6.36470154,12.7574892 6.71259077,12.9957908 C7.06048,13.2340923 7.28068923,13.5370092 7.37149538,13.9024738 L11.41056,28.9638892 C11.6305969,29.7876923 11.8089354,30.5934031 11.9469538,31.3822277 C12.0842831,32.1696738 12.2167877,32.9579815 12.3453292,33.7454277 C12.5465846,32.9579815 12.76128,32.1696738 12.9907938,31.3822277 C13.2189292,30.5934031 13.4618831,29.7876923 13.7184492,28.9638892 L18.3895385,13.8478523 C18.4999877,13.4823877 18.7193354,13.1794708 19.0491323,12.9411692 C19.37824,12.7028677 19.7633477,12.5838031 20.2027323,12.5838031 L23.1979569,12.5838031 C23.6919631,12.5838031 24.10464,12.7028677 24.4337477,12.9411692 C24.7635446,13.1794708 24.9835815,13.4823877 25.0933415,13.8478523 L29.7092923,29.2383754 C29.9475938,30.0258215 30.1629785,30.7912123 30.3547569,31.5342031 C30.5472246,32.2752985 30.73504,33.0217354 30.9182031,33.7735138 C31.0467446,32.9853785 31.1887262,32.1965538 31.34432,31.4089354 C31.4999138,30.6213169 31.6970338,29.8056123 31.9353354,28.9637169 L36.1117292,13.9023015 C36.2025354,13.5368369 36.4227446,13.23392 36.7706338,12.9956185 C37.1185231,12.7573169 37.5217231,12.6382523 37.9795446,12.6382523 L43.11776,12.6382523 L34.1882585,40.8369231 L28.7209354,40.8369231 C28.1340554,40.8369231 27.71328,40.4330338 27.4568862,39.6273231 L22.3738092,23.3294277 C22.2089108,22.7990646 22.0581415,22.2619815 21.9208123,21.7207631 C21.7834831,21.1816123 21.6683815,20.6445292 21.5768862,20.1134769 C21.4671262,20.664 21.3480615,21.2079754 21.21952,21.7490215 C21.0916677,22.29024 20.9448615,22.8354215 20.7799631,23.3845662 L15.6424369,39.6273231 C15.3860431,40.4330338 14.8913477,40.8369231 14.15904,40.8369231 L8.96551385,40.8369231 L0.0363569231,12.6384246 L0.0363569231,12.6384246 Z" id="path-3"></path>
        <path d="M99.9775754,3.98737231 C99.8557538,4.21757538 99.6794831,4.33405538 99.4485908,4.33405538 C99.27232,4.33405538 99.0447015,4.20758154 98.7667692,3.95584 C98.4888369,3.70478769 98.1118277,3.42685538 97.6372923,3.12118154 C97.1627569,2.81619692 96.5691569,2.53430154 95.85632,2.27721846 C95.1441723,2.01875692 94.2652308,1.89159385 93.2212185,1.89159385 C92.176,1.89159385 91.2565662,2.03891692 90.4629169,2.33787077 C89.6692677,2.63682462 89.0050215,3.04329846 88.4686277,3.55953231 C87.9322338,4.07576615 87.5255877,4.67212308 87.2476554,5.35067077 C86.9697231,6.02921846 86.8296369,6.74257231 86.8296369,7.48900923 C86.8296369,8.46633846 87.0369231,9.27394462 87.4508062,9.912 C87.8646892,10.5500554 88.4112492,11.0912738 89.0897969,11.5394462 C89.7676554,11.9877908 90.5375262,12.3653169 91.3997538,12.6701292 C92.2606031,12.9751138 93.1457477,13.2759631 94.0550154,13.5747446 C94.9642831,13.8735262 95.8501169,14.2028062 96.7109662,14.5620677 C97.5725046,14.9215015 98.3425477,15.3738092 99.0209231,15.9169231 C99.6992985,16.4600369 100.245169,17.1277292 100.659914,17.9220677 C101.073108,18.7155446 101.280566,19.70304 101.280566,20.8836923 C101.280566,22.0919138 101.07328,23.2286277 100.659914,24.2948677 C100.245342,25.35904 99.6455385,26.2858831 98.8587815,27.0733292 C98.0713354,27.8593969 97.1074462,28.4807385 95.9686646,28.9351138 C94.8285046,29.3894892 93.5260308,29.6176246 92.0607262,29.6176246 C90.1613785,29.6176246 88.5256615,29.2811077 87.1559877,28.6099692 C85.7856246,27.9376246 84.5841231,27.01888 83.5530338,25.8516677 L84.1232,24.9551508 C84.2860308,24.7525169 84.4759138,24.6501662 84.6933662,24.6501662 C84.8151877,24.6501662 84.9712985,24.7309785 85.1611815,24.8944985 C85.3515815,25.05664 85.5817846,25.2578954 85.8531692,25.4941292 C86.1250708,25.7324308 86.4502154,25.9908923 86.8298092,26.2681354 C87.2100923,26.5460677 87.6517169,26.8045292 88.1531323,27.0421415 C88.6552369,27.2790646 89.2321231,27.4789415 89.8829292,27.6424615 C90.5344246,27.8040862 91.2741415,27.8867938 92.10208,27.8867938 C93.2415508,27.8867938 94.2593723,27.7131077 95.1545108,27.3678031 C96.0496492,27.0204308 96.8062523,26.5500308 97.4234585,25.9522954 C98.0406646,25.3552492 98.5124431,24.6458585 98.8382769,23.8260185 C99.1641108,23.0041108 99.3269415,22.1258585 99.3269415,21.1888492 C99.3269415,20.1712 99.1196554,19.3330954 98.7057723,18.67488 C98.2925785,18.0166646 97.7460185,17.4673477 97.0674708,17.0252062 C96.3889231,16.58496 95.6197415,16.2155323 94.7575138,15.9165785 C93.8959754,15.6177969 93.0108308,15.3262523 92.1022523,15.0402215 C91.1929846,14.7555692 90.3071508,14.4364554 89.4456123,14.08512 C88.5847631,13.7310277 87.8140308,13.2794092 87.1356554,12.7302646 C86.4571077,12.1804308 85.9114092,11.4965415 85.4973538,10.6739446 C85.08416,9.85272615 84.8767015,8.82508308 84.8767015,7.58929231 C84.8767015,6.62609231 85.0596923,5.69735385 85.4260185,4.80066462 C85.7921723,3.90552615 86.3285662,3.11463385 87.0339938,2.42798769 C87.7394215,1.74340923 88.6109538,1.19426462 89.6489354,0.780381538 C90.6874338,0.366498462 91.8708431,0.159212308 93.2014031,0.159212308 C94.6928985,0.159212308 96.0331077,0.396824615 97.2203077,0.87136 C98.4075077,1.34589538 99.4899446,2.07286154 100.466585,3.05019077 L99.9775754,3.98737231 L99.9775754,3.98737231 Z M62.6514215,16.0178954 L68.0043323,16.0178954 C69.2797538,16.0178954 70.4193969,15.8421415 71.4236062,15.4889108 C72.4271262,15.1355077 73.27936,14.6468431 73.9778954,14.0236062 C74.6766031,13.3989908 75.2123077,12.6620308 75.5851815,11.8139323 C75.9587446,10.9665231 76.1451815,10.0410585 76.1451815,9.03547077 C76.1451815,6.82235077 75.46336,5.12012308 74.0997169,3.92689231 C72.7360738,2.73142154 70.7040492,2.13454769 68.0043323,2.13454769 L62.6514215,2.13454769 L62.6514215,16.0178954 L62.6514215,16.0178954 Z M62.6514215,17.6877292 L62.6514215,29.2923077 L60.5756308,29.2923077 L60.5756308,0.485907692 L68.0043323,0.485907692 C71.3824246,0.485907692 73.9301662,1.22493538 75.6465231,2.70368 C77.36288,4.18311385 78.2209723,6.29319385 78.2209723,9.03529846 C78.2209723,10.29728 77.9874954,11.4582892 77.5189908,12.5164308 C77.0511754,13.5745723 76.3760738,14.4872862 75.4936862,15.2545723 C74.6119877,16.0218585 73.5397169,16.6189046 72.2784246,17.0469169 C71.0164431,17.4737231 69.5921477,17.6877292 68.0043323,17.6877292 L62.6514215,17.6877292 L62.6514215,17.6877292 Z M49.0970092,14.8791138 C49.0970092,12.8700062 48.8190769,11.0647385 48.2623508,9.46348308 C47.7063138,7.86222769 46.9230031,6.50530462 45.9119015,5.39064615 C44.9009723,4.27805538 43.6825846,3.42668308 42.2584615,2.83635692 C40.8341662,2.24672 39.2532431,1.95190154 37.5165538,1.95190154 C35.8069169,1.95190154 34.2433969,2.24672 32.8251323,2.83635692 C31.4075569,3.42668308 30.1860677,4.27805538 29.1615262,5.39064615 C28.1371569,6.50530462 27.3435077,7.86222769 26.7802338,9.46348308 C26.2174769,11.0647385 25.9362708,12.8700062 25.9362708,14.8791138 C25.9362708,16.9002831 26.2176492,18.7095138 26.7802338,20.3028431 C27.34368,21.8980677 28.1371569,23.2515446 29.1615262,24.3655138 C30.1858954,25.4781046 31.4075569,26.3262031 32.8251323,26.9098092 C34.2432246,27.4934154 35.8069169,27.7861662 37.5165538,27.7861662 C39.2530708,27.7861662 40.8341662,27.4934154 42.2584615,26.9098092 C43.6827569,26.3262031 44.9009723,25.4781046 45.9119015,24.3655138 C46.9228308,23.2515446 47.7063138,21.8980677 48.2623508,20.3028431 C48.8189046,18.7095138 49.0970092,16.9002831 49.0970092,14.8791138 L49.0970092,14.8791138 Z M51.2541292,14.8791138 C51.2541292,17.1042954 50.9222646,19.1235692 50.2573292,20.9348677 C49.5923938,22.7461662 48.6560738,24.2948677 47.4485415,25.5764923 C46.2410092,26.8593231 44.7958646,27.8500923 43.11328,28.5488 C41.4312123,29.2481969 39.5654646,29.5974646 37.5167262,29.5974646 C35.4955569,29.5974646 33.6432492,29.2481969 31.9604923,28.5488 C30.2777354,27.8500923 28.8334523,26.8593231 27.6252308,25.5764923 C26.4176985,24.2948677 25.4781046,22.7461662 24.8064492,20.9348677 C24.1353108,19.1235692 23.7994831,17.1044677 23.7994831,14.8791138 C23.7994831,12.6659938 24.1353108,10.6548185 24.8064492,8.84162462 C25.4781046,7.03032615 26.4178708,5.48369231 27.6252308,4.20137846 C28.8334523,2.91785846 30.2779077,1.92364308 31.9604923,1.21890462 C33.6432492,0.512098462 35.4955569,0.159556923 37.5167262,0.159556923 C39.5656369,0.159556923 41.4313846,0.509513846 43.11328,1.20891077 C44.7960369,1.90761846 46.2410092,2.90097231 47.4485415,4.19138462 C48.6560738,5.47972923 49.5922215,7.03049846 50.2573292,8.84162462 C50.9222646,10.6548185 51.2541292,12.6659938 51.2541292,14.8791138 L51.2541292,14.8791138 Z M2.16452923,16.0178954 L7.51675077,16.0178954 C8.79286154,16.0178954 9.93181538,15.8421415 10.9360246,15.4889108 C11.9402338,15.13568 12.7917785,14.6468431 13.4903138,14.0236062 C14.1890215,13.3989908 14.7254154,12.6620308 15.0982892,11.8139323 C15.4711631,10.9665231 15.6582892,10.0410585 15.6582892,9.03547077 C15.6582892,6.82235077 14.9757785,5.12012308 13.6121354,3.92689231 C12.2491815,2.73142154 10.2171569,2.13454769 7.51675077,2.13454769 L2.16452923,2.13454769 L2.16452923,16.0178954 L2.16452923,16.0178954 Z M2.16452923,17.6877292 L2.16452923,29.2923077 L0.0887384615,29.2923077 L0.0887384615,0.485907692 L7.51675077,0.485907692 C10.8955323,0.485907692 13.4425846,1.22493538 15.1589415,2.70368 C16.8752985,4.18311385 17.73408,6.29319385 17.73408,9.03529846 C17.73408,10.29728 17.4999138,11.4582892 17.0314092,12.5164308 C16.5635938,13.5745723 15.8884923,14.4872862 15.0067938,15.2545723 C14.1250954,16.0218585 13.0528246,16.6189046 11.7908431,17.0469169 C10.5295508,17.4737231 9.10456615,17.6877292 7.51675077,17.6877292 L2.16452923,17.6877292 L2.16452923,17.6877292 Z" id="path-5"></path>
        <path id="path-7" d="M6.98380308,7.84809846 C6.81545846,6.65883077 6.47963077,5.30190769 5.97545846,3.77732923 C5.73043692,3.05449846 5.60792615,2.49105231 5.60792615,2.09129846 C5.60792615,1.44514462 5.76955077,0.950449231 6.09245538,0.609107692 C6.41484308,0.265870769 6.76359385,0.0942523077 7.13836308,0.0942523077 C7.55155692,0.0942523077 7.93924923,0.261907692 8.30144,0.599113846 C8.66294154,0.934252308 8.84334769,1.42498462 8.84334769,2.07113846 C8.84334769,2.45883077 8.65622154,3.18372923 8.28128,4.24187077 C7.88152615,5.35446154 7.63581538,6.55596308 7.54552615,7.84827077 C8.35933538,7.29292308 9.21811692,6.48531692 10.1227323,5.42528 C11.28512,4.06835692 12.2671015,3.38998154 13.06816,3.38998154 C13.4813538,3.38998154 13.8368246,3.52265846 14.1337108,3.78784 C14.4312862,4.05233231 14.5799877,4.40969846 14.5799877,4.86407385 C14.5799877,5.51022769 14.3377231,6.00096 13.8530215,6.33609846 C13.3684923,6.67330462 12.6031015,6.93779692 11.5565046,7.13164308 C10.2130215,7.39010462 8.97929846,7.78985846 7.85585231,8.33314462 C8.51406769,8.68120615 9.47657846,8.97326769 10.7426954,9.20536615 C12.35808,9.50225231 13.4007138,9.86771692 13.8724923,10.2998646 C14.3435815,10.73408 14.5798154,11.2206769 14.5798154,11.7637908 C14.5798154,12.1252923 14.4378338,12.4463015 14.1530092,12.7228554 C13.8690462,13.0007877 13.5135754,13.1408738 13.0874585,13.1408738 C12.2347077,13.1408738 11.2465231,12.5128123 10.12256,11.2589292 C9.03684923,10.0574277 8.17875692,9.24379077 7.54535385,8.81767385 C7.64839385,10.1745969 7.95854769,11.51136 8.47495385,12.8298585 C8.74685538,13.5285662 8.88211692,14.0635815 8.88211692,14.4392123 C8.88211692,15.0200615 8.72393846,15.4980431 8.40758154,15.8728123 C8.09122462,16.2484431 7.71300923,16.43488 7.27414154,16.43488 C6.87369846,16.43488 6.50220308,16.2605046 6.15948308,15.9112369 C5.81762462,15.5619692 5.64652308,15.0793354 5.64652308,14.4586831 C5.64652308,14.0959754 5.78109538,13.5406277 6.05299692,12.7914338 C6.55648,11.3437046 6.86680615,10.0190031 6.98311385,8.81767385 C6.03938462,9.41127385 5.05809231,10.3543138 4.03699692,11.6466215 C3.23662769,12.6549662 2.45521231,13.1589662 1.69275077,13.1589662 C1.24044308,13.1589662 0.856196923,13.0297354 0.539150769,12.7712738 C0.222793846,12.5128123 0.0653046154,12.1513108 0.0653046154,11.6869415 C0.0653046154,10.4835446 1.11793231,9.71488 3.22336,9.37888 C4.94178462,9.09422769 6.11089231,8.74685538 6.73068308,8.33297231 C5.55485538,7.75143385 4.36679385,7.35633231 3.16546462,7.14973538 C1.13688615,6.78823385 0.1232,6.03921231 0.1232,4.90094769 C0.1232,4.48827077 0.281378462,4.13900308 0.598424615,3.85435077 C0.914781538,3.57159385 1.27283692,3.42961231 1.67328,3.42961231 C2.43591385,3.42961231 3.30141538,3.99099077 4.26995692,5.11495385 C4.6704,5.58070154 5.04465231,5.98045538 5.39392,6.31714462 L6.98380308,7.84809846 L6.98380308,7.84809846 Z"></path>
    </defs>
    <g id="Page-1" stroke="none" stroke-width="1" fill="none" fill-rule="evenodd" sketch:type="MSPage">
        <g id="Group-10" sketch:type="MSLayerGroup">
            <g id="Group-4-Copy-4" fill="#0F0D20" sketch:type="MSShapeGroup">
                <rect id="Rectangle-22" x="0" y="0" width="540" height="300"></rect>
            </g>
            <g id="Group-9" transform="translate(124.000000, 120.000000)">
                <g id="Logo">
                    <mask id="mask-2" sketch:name="SVGID_1_" fill="white">
                        <use xlink:href="#path-1"></use>
                    </mask>
                    <g id="SVGID_1_"></g>
                    <rect id="Rectangle-path" fill="#F7F7F7" sketch:type="MSShapeGroup" mask="url(#mask-2)" x="-17.704918" y="-17.704918" width="88.5245902" height="95.4098361"></rect>
                </g>
                <g id="Group" transform="translate(68.000000, 5.000000)">
                    <g id="Clipped">
                        <mask id="mask-4" sketch:name="SVGID_3_" fill="white">
                            <use xlink:href="#path-3"></use>
                        </mask>
                        <g id="SVGID_3_"></g>
                        <rect id="Rectangle-path" fill="#F7F7F7" sketch:type="MSShapeGroup" mask="url(#mask-4)" x="-5.13287385" y="-5.09048615" width="123.961945" height="51.5348185"></rect>
                    </g>
                    <g id="Clipped" transform="translate(122.683077, 11.544615)">
                        <mask id="mask-6" sketch:name="SVGID_5_" fill="white">
                            <use xlink:href="#path-5"></use>
                        </mask>
                        <g id="SVGID_5_"></g>
                        <rect id="Rectangle-path" fill="#F7F7F7" sketch:type="MSShapeGroup" mask="url(#mask-6)" x="-5.08032" y="-5.00967385" width="111.530117" height="39.7963569"></rect>
                    </g>
                    <g id="Clipped" transform="translate(153.181538, 18.264615)">
                        <mask id="mask-8" sketch:name="SVGID_1_" fill="white">
                            <use xlink:href="#path-7"></use>
                        </mask>
                        <g id="SVGID_1_"></g>
                        <rect id="Rectangle-path" fill="#F7F7F7" sketch:type="MSShapeGroup" mask="url(#mask-8)" x="-5.10323692" y="-5.07497846" width="24.8526277" height="26.6787446"></rect>
                    </g>
                </g>
            </g>
        </g>
    </g>
</svg>