<?xml version="1.0" encoding="UTF-8" standalone="no"?>
<svg width="240px" height="96px" viewBox="0 0 240 96" version="1.1" xmlns="http://www.w3.org/2000/svg" xmlns:xlink="http://www.w3.org/1999/xlink" xmlns:sketch="http://www.bohemiancoding.com/sketch/ns">
    <!-- Generator: Sketch 3.5.1 (25234) - http://www.bohemiancoding.com/sketch -->
    <title>WisePOPS</title>
    <desc>Created with Sketch.</desc>
    <defs>
        <path id="path-1" d="M7.48264615,8.40867692 C7.30227692,7.13446154 6.94246154,5.68061538 6.40227692,4.04713846 C6.13975385,3.27267692 6.00849231,2.66898462 6.00849231,2.24067692 C6.00849231,1.54836923 6.18166154,1.01833846 6.52763077,0.652615385 C6.87304615,0.284861538 7.24670769,0.100984615 7.64824615,0.100984615 C8.09095385,0.100984615 8.50633846,0.280615385 8.8944,0.641907692 C9.28172308,1.00098462 9.47501538,1.52676923 9.47501538,2.21907692 C9.47501538,2.63446154 9.27452308,3.41113846 8.8728,4.54486154 C8.44449231,5.73692308 8.18123077,7.02424615 8.08449231,8.40886154 C8.95643077,7.81384615 9.87655385,6.94855385 10.8457846,5.8128 C12.0912,4.35895385 13.1433231,3.63212308 14.0016,3.63212308 C14.4443077,3.63212308 14.8251692,3.77427692 15.1432615,4.0584 C15.4620923,4.34178462 15.6214154,4.72467692 15.6214154,5.21150769 C15.6214154,5.90381538 15.3618462,6.4296 14.8425231,6.78867692 C14.3233846,7.14996923 13.5033231,7.43335385 12.3819692,7.64104615 C10.9425231,7.91796923 9.62067692,8.34627692 8.41698462,8.92836923 C9.12221538,9.30129231 10.1534769,9.61421538 11.5100308,9.86289231 C13.2408,10.1809846 14.3579077,10.5725538 14.8633846,11.0355692 C15.3681231,11.5008 15.6212308,12.0221538 15.6212308,12.6040615 C15.6212308,12.9913846 15.4691077,13.3353231 15.1639385,13.6316308 C14.8596923,13.9294154 14.4788308,14.0795077 14.0222769,14.0795077 C13.1086154,14.0795077 12.0498462,13.4065846 10.8456,12.0631385 C9.68233846,10.7758154 8.76295385,9.90406154 8.08430769,9.44750769 C8.19470769,10.9013538 8.52701538,12.3336 9.08030769,13.7462769 C9.37163077,14.4948923 9.51655385,15.0681231 9.51655385,15.4705846 C9.51655385,16.0929231 9.34707692,16.6050462 9.00812308,17.0065846 C8.66916923,17.4090462 8.26393846,17.6088 7.79372308,17.6088 C7.36467692,17.6088 6.96664615,17.4219692 6.59944615,17.0477538 C6.23316923,16.6735385 6.04984615,16.1564308 6.04984615,15.4914462 C6.04984615,15.1028308 6.19403077,14.5078154 6.48535385,13.7051077 C7.0248,12.1539692 7.35729231,10.7346462 7.48190769,9.44750769 C6.47076923,10.0835077 5.41938462,11.0939077 4.32535385,12.4785231 C3.46781538,13.5588923 2.63058462,14.0988923 1.81366154,14.0988923 C1.32904615,14.0988923 0.917353846,13.9604308 0.577661538,13.6835077 C0.238707692,13.4065846 0.0699692308,13.0192615 0.0699692308,12.5217231 C0.0699692308,11.2323692 1.19778462,10.4088 3.4536,10.0488 C5.29476923,9.74381538 6.54738462,9.37163077 7.21144615,8.92818462 C5.95163077,8.30510769 4.67870769,7.88178462 3.39156923,7.66043077 C1.21809231,7.27310769 0.132,6.47058462 0.132,5.25101538 C0.132,4.80886154 0.301476923,4.43464615 0.641169231,4.12966154 C0.980123077,3.82670769 1.36375385,3.67458462 1.7928,3.67458462 C2.60990769,3.67458462 3.53723077,4.27606154 4.57495385,5.48030769 C5.004,5.97932308 5.40498462,6.40763077 5.7792,6.76836923 L7.48264615,8.40867692 L7.48264615,8.40867692 Z"></path>
        <path d="M108.855323,18.2833846 C106.735938,18.2833846 105.077169,18.8804308 103.880123,20.0791385 C102.683077,21.2754462 101.917846,22.9739077 101.583877,25.1719385 L115.2432,25.1719385 C115.2432,24.2307692 115.115631,23.3416615 114.860308,22.5079385 C114.604985,21.6734769 114.213415,20.9424 113.682646,20.3148923 C113.153354,19.6868308 112.4856,19.1898462 111.681415,18.8265231 C110.876677,18.4630154 109.934215,18.2833846 108.855323,18.2833846 L108.855323,18.2833846 Z M108.708185,13.0694769 C110.611385,13.0694769 112.363015,13.3744615 113.962523,13.9824 C115.562031,14.5925538 116.940923,15.4794462 118.099015,16.6478769 C119.256554,17.8161231 120.159323,19.2483692 120.806954,20.9466462 C121.454585,22.6449231 121.7784,24.5833846 121.7784,26.7620308 C121.7784,27.3121846 121.753846,27.7694769 121.704923,28.1329846 C121.655815,28.4950154 121.567938,28.7791385 121.440185,28.9860923 C121.312431,29.1930462 121.140923,29.3387077 120.924554,29.4275077 C120.708923,29.5161231 120.434215,29.5595077 120.100246,29.5595077 L101.436738,29.5595077 C101.652369,32.6619692 102.486831,34.9401231 103.938462,36.3917538 C105.390831,37.8456 107.314154,38.5704 109.709169,38.5704 C110.886092,38.5704 111.902215,38.4326769 112.755323,38.1587077 C113.609169,37.8832615 114.355569,37.5795692 114.993046,37.2465231 C115.630523,36.9125538 116.190092,36.6083077 116.6712,36.3336 C117.151569,36.0588923 117.618092,35.9204308 118.069477,35.9204308 C118.363754,35.9204308 118.619077,35.9795077 118.834708,36.0978462 C119.051077,36.2161846 119.237169,36.3812308 119.394277,36.5976 L121.513662,39.2477538 C120.708923,40.1896615 119.805969,40.9807385 118.804985,41.6189538 C117.804738,42.2571692 116.759077,42.7670769 115.670215,43.1507077 C114.581354,43.5313846 113.472185,43.8018462 112.343446,43.9598769 C111.214892,44.1171692 110.120862,44.1956308 109.061538,44.1956308 C106.961538,44.1956308 105.008677,43.8472615 103.202954,43.1507077 C101.397231,42.4526769 99.828,41.4221538 98.4930462,40.0591385 C97.1582769,38.6939077 96.1081846,37.0050462 95.3431385,34.9923692 C94.5779077,32.9809846 94.1950154,30.6502154 94.1950154,28.0000615 C94.1950154,25.9382769 94.5282462,23.9998154 95.196,22.1846769 C95.8630154,20.3673231 96.8200615,18.7881231 98.0662154,17.4444923 C99.3123692,16.0988308 100.833231,15.0343385 102.628985,14.2489846 C104.424738,13.4636308 106.450892,13.0694769 108.708185,13.0694769 L108.708185,13.0694769 Z M87.0072,19.4300308 C86.8111385,19.7444308 86.6047385,19.9650462 86.3891077,20.0920615 C86.1734769,20.2218462 85.8987692,20.2846154 85.5648,20.2846154 C85.2114462,20.2846154 84.8342769,20.1873231 84.4318154,19.9903385 C84.0293538,19.7933538 83.5628308,19.5727385 83.0335385,19.3275692 C82.5035077,19.0816615 81.8998154,18.8610462 81.2226462,18.6640615 C80.5454769,18.4692923 79.7464615,18.3697846 78.8233846,18.3697846 C77.3911385,18.3697846 76.2625846,18.6747692 75.4382769,19.2827077 C74.6139692,19.8928615 74.2022769,20.6867077 74.2022769,21.6690462 C74.2022769,22.3159385 74.4129231,22.8611077 74.8347692,23.3025231 C75.2566154,23.7439385 75.8161846,24.1332923 76.5129231,24.4665231 C77.2096615,24.7997538 77.9992615,25.0997538 78.8826462,25.3643077 C79.7660308,25.6283077 80.6682462,25.9181538 81.5905846,26.2318154 C82.5136615,26.5476923 83.4158769,26.9047385 84.2992615,27.3070154 C85.1826462,27.7092923 85.9722462,28.2199385 86.6689846,28.8387692 C87.3657231,29.4576 87.9252923,30.1973538 88.3471385,31.0628308 C88.7689846,31.9246154 88.9803692,32.9665846 88.9803692,34.1824615 C88.9803692,35.6363077 88.7148923,36.9755077 88.1848615,38.2020923 C87.6555692,39.4288615 86.8803692,40.4889231 85.8590769,41.3824615 C84.8394462,42.276 83.5781538,42.9725538 82.0774154,43.4723077 C80.5759385,43.9735385 78.8538462,44.2229538 76.9104,44.2229538 C75.8697231,44.2229538 74.8550769,44.1299077 73.8635077,43.9438154 C72.8726769,43.7577231 71.9208,43.4959385 71.0084308,43.1628923 C70.0955077,42.8296615 69.2516308,42.4358769 68.4764308,41.9859692 C67.7012308,41.5338462 67.0196308,41.0427692 66.4305231,40.5132923 L68.1079385,37.7455385 C68.3243077,37.4123077 68.5788923,37.1569846 68.8737231,36.9797538 C69.168,36.8023385 69.5407385,36.7157538 69.9923077,36.7157538 C70.4438769,36.7157538 70.8707077,36.8433231 71.2731692,37.0979077 C71.6756308,37.3517538 72.1414154,37.6286769 72.6714462,37.9214769 C73.2007385,38.2172308 73.8238154,38.4919385 74.5406769,38.7472615 C75.2568,39.0025846 76.1647385,39.1286769 77.2637538,39.1286769 C78.1270154,39.1286769 78.8682462,39.0262154 79.4863385,38.8207385 C80.1044308,38.6137846 80.6148923,38.3440615 81.0173538,38.0108308 C81.4198154,37.6763077 81.7139077,37.2889846 81.9,36.8475692 C82.0868308,36.4054154 82.1798769,35.9497846 82.1798769,35.4780923 C82.1798769,34.7706462 81.9692308,34.1915077 81.5466462,33.7408615 C81.1255385,33.2887385 80.5652308,32.8971692 79.8684923,32.5632 C79.1719385,32.2286769 78.3779077,31.9299692 77.4843692,31.6661538 C76.5915692,31.4001231 75.6786462,31.1100923 74.7468923,30.7964308 C73.8144,30.4827692 72.9014769,30.1128 72.0086769,29.6909538 C71.1158769,29.2691077 70.3211077,28.7353846 69.6245538,28.0877538 C68.928,27.4401231 68.3682462,26.6448 67.9464,25.7014154 C67.5245538,24.7602462 67.3139077,23.6208 67.3139077,22.2875077 C67.3139077,21.0500308 67.5583385,19.8723692 68.0494154,18.7524923 C68.5397538,17.6339077 69.2608615,16.6582154 70.2129231,15.8232 C71.1648,14.9887385 72.3518769,14.3217231 73.7754462,13.8197538 C75.1975385,13.32 76.8417231,13.0691077 78.7059692,13.0691077 C80.7865846,13.0691077 82.6801846,13.4130462 84.3878769,14.1011077 C86.0948308,14.7869538 87.5176615,15.6912 88.6556308,16.8097846 L87.0072,19.4300308 L87.0072,19.4300308 Z M60.5379692,4.73723077 C60.5379692,5.36529231 60.4104,5.95384615 60.1558154,6.50326154 C59.9004923,7.05341538 59.5615385,7.53526154 59.1404308,7.94621538 C58.7178462,8.35938462 58.2230769,8.68836923 57.6533538,8.9328 C57.0843692,9.17944615 56.4756923,9.30203077 55.8280615,9.30203077 C55.2,9.30203077 54.6064615,9.17944615 54.0474462,8.9328 C53.4878769,8.68836923 53.0017846,8.35956923 52.5899077,7.94621538 C52.1782154,7.53507692 51.8492308,7.05341538 51.6040615,6.50326154 C51.3581538,5.95366154 51.2355692,5.36529231 51.2355692,4.73723077 C51.2355692,4.08886154 51.3581538,3.48092308 51.6040615,2.91193846 C51.8492308,2.34147692 52.1780308,1.85187692 52.5899077,1.43870769 C53.0016,1.02756923 53.4876923,0.698769231 54.0474462,0.452123077 C54.6062769,0.207692308 55.1998154,0.0843692308 55.8280615,0.0843692308 C56.4756923,0.0843692308 57.0843692,0.207692308 57.6533538,0.452123077 C58.2230769,0.698769231 58.7178462,1.02756923 59.1404308,1.43870769 C59.5615385,1.85187692 59.9004923,2.34166154 60.1558154,2.91193846 C60.4104,3.48092308 60.5379692,4.08886154 60.5379692,4.73723077 L60.5379692,4.73723077 Z M59.4491077,13.5411692 L59.4491077,43.7538462 L52.1784,43.7538462 L52.1784,13.5411692 L59.4491077,13.5411692 L59.4491077,13.5411692 Z M0.0389538462,13.5411692 L5.80818462,13.5411692 C6.35778462,13.5411692 6.81932308,13.6687385 7.19206154,13.9240615 C7.5648,14.1793846 7.80073846,14.5039385 7.89803077,14.8955077 L12.2256,31.0327385 C12.4613538,31.9153846 12.6524308,32.7786462 12.8003077,33.6238154 C12.9474462,34.4675077 13.0894154,35.3121231 13.2271385,36.1558154 C13.4427692,35.3121231 13.6728,34.4675077 13.9187077,33.6238154 C14.1631385,32.7786462 14.4234462,31.9153846 14.6983385,31.0327385 L19.7030769,14.8369846 C19.8214154,14.4454154 20.0564308,14.1208615 20.4097846,13.8655385 C20.7624,13.6102154 21.1750154,13.4826462 21.6457846,13.4826462 L24.8549538,13.4826462 C25.3842462,13.4826462 25.8264,13.6102154 26.1790154,13.8655385 C26.5323692,14.1208615 26.7681231,14.4454154 26.8857231,14.8369846 L31.8313846,31.3268308 C32.0867077,32.1705231 32.3174769,32.9905846 32.5229538,33.7866462 C32.7291692,34.5806769 32.9304,35.3804308 33.1266462,36.1859077 C33.2643692,35.3414769 33.4164923,34.4963077 33.5832,33.6524308 C33.7499077,32.8085538 33.9611077,31.9345846 34.2164308,31.0325538 L38.6911385,14.8953231 C38.7884308,14.5037538 39.0243692,14.1792 39.3971077,13.9238769 C39.7698462,13.6685538 40.2018462,13.5409846 40.6923692,13.5409846 L46.1976,13.5409846 L36.6302769,43.7538462 L30.7724308,43.7538462 C30.1436308,43.7538462 29.6928,43.3211077 29.4180923,42.4578462 L23.9719385,24.9958154 C23.7952615,24.4275692 23.6337231,23.8521231 23.4865846,23.2722462 C23.3394462,22.6945846 23.2161231,22.1191385 23.1180923,21.5501538 C23.0004923,22.14 22.8729231,22.7228308 22.7352,23.3025231 C22.5982154,23.8824 22.4409231,24.4665231 22.2642462,25.0548923 L16.7597538,42.4578462 C16.4850462,43.3211077 15.9550154,43.7538462 15.1704,43.7538462 L9.60590769,43.7538462 L0.0389538462,13.5411692 L0.0389538462,13.5411692 Z" id="path-3"></path>
        <path d="M107.118831,4.27218462 C106.988308,4.51883077 106.799446,4.64363077 106.552062,4.64363077 C106.3632,4.64363077 106.119323,4.50812308 105.821538,4.2384 C105.523754,3.96941538 105.119815,3.67163077 104.611385,3.34412308 C104.102954,3.01735385 103.466954,2.71532308 102.7032,2.43987692 C101.940185,2.16295385 100.998462,2.02670769 99.8798769,2.02670769 C98.76,2.02670769 97.7748923,2.18455385 96.9245538,2.50486154 C96.0742154,2.82516923 95.3625231,3.26067692 94.7878154,3.81378462 C94.2131077,4.36689231 93.7774154,5.00584615 93.4796308,5.73286154 C93.1818462,6.45987692 93.0317538,7.22418462 93.0317538,8.02393846 C93.0317538,9.07107692 93.2538462,9.93636923 93.6972923,10.62 C94.1407385,11.3036308 94.7263385,11.8835077 95.4533538,12.3636923 C96.1796308,12.8440615 97.0044923,13.2485538 97.9283077,13.5751385 C98.8506462,13.9019077 99.7990154,14.2242462 100.773231,14.5443692 C101.747446,14.8644923 102.696554,15.2172923 103.618892,15.6022154 C104.541969,15.9873231 105.367015,16.4719385 106.093846,17.0538462 C106.820677,17.6357538 107.405538,18.3511385 107.849908,19.2022154 C108.292615,20.0523692 108.514892,21.1104 108.514892,22.3753846 C108.514892,23.6699077 108.2928,24.8878154 107.849908,26.0302154 C107.405723,27.1704 106.763077,28.1634462 105.920123,29.0071385 C105.076431,29.8493538 104.043692,30.5150769 102.823569,31.0019077 C101.601969,31.4887385 100.206462,31.7331692 98.6364923,31.7331692 C96.6014769,31.7331692 94.8489231,31.3726154 93.3814154,30.6535385 C91.9131692,29.9331692 90.6258462,28.9488 89.5211077,27.6982154 L90.132,26.7376615 C90.3064615,26.5205538 90.5099077,26.4108923 90.7428923,26.4108923 C90.8734154,26.4108923 91.0406769,26.4974769 91.2441231,26.6726769 C91.4481231,26.8464 91.6947692,27.0620308 91.9855385,27.3151385 C92.2768615,27.5704615 92.6252308,27.8473846 93.0319385,28.1444308 C93.4393846,28.4422154 93.9125538,28.7191385 94.4497846,28.9737231 C94.9877538,29.2275692 95.6058462,29.4417231 96.3031385,29.6169231 C97.0011692,29.7900923 97.7937231,29.8787077 98.6808,29.8787077 C99.9016615,29.8787077 100.992185,29.6926154 101.951262,29.3226462 C102.910338,28.9504615 103.720985,28.4464615 104.382277,27.8060308 C105.043569,27.1663385 105.549046,26.4062769 105.898154,25.5278769 C106.247262,24.6472615 106.421723,23.7062769 106.421723,22.7023385 C106.421723,21.612 106.199631,20.7140308 105.756185,20.0088 C105.313477,19.3035692 104.727877,18.7150154 104.000862,18.2412923 C103.273846,17.7696 102.449723,17.3737846 101.525908,17.0534769 C100.602831,16.7333538 99.6544615,16.4209846 98.6809846,16.1145231 C97.7067692,15.8095385 96.7576615,15.4676308 95.8345846,15.0912 C94.9122462,14.7118154 94.0864615,14.2279385 93.3596308,13.6395692 C92.6326154,13.0504615 92.0479385,12.3177231 91.6043077,11.4363692 C91.1616,10.5564923 90.9393231,9.45544615 90.9393231,8.13138462 C90.9393231,7.09938462 91.1353846,6.10430769 91.5278769,5.14356923 C91.9201846,4.18449231 92.4948923,3.33710769 93.2507077,2.60141538 C94.0065231,1.86793846 94.9403077,1.27956923 96.0524308,0.836123077 C97.1651077,0.392676923 98.4330462,0.170584615 99.8586462,0.170584615 C101.456677,0.170584615 102.892615,0.425169231 104.164615,0.9336 C105.436615,1.44203077 106.596369,2.22092308 107.642769,3.26806154 L107.118831,4.27218462 L107.118831,4.27218462 Z M67.1265231,17.1620308 L72.8617846,17.1620308 C74.2283077,17.1620308 75.4493538,16.9737231 76.5252923,16.5952615 C77.6004923,16.2166154 78.5136,15.6930462 79.2620308,15.0252923 C80.0106462,14.3560615 80.5846154,13.5664615 80.9841231,12.6577846 C81.3843692,11.7498462 81.5841231,10.7582769 81.5841231,9.68086154 C81.5841231,7.30966154 80.8536,5.48584615 79.3925538,4.20738462 C77.9315077,2.92652308 75.7543385,2.28701538 72.8617846,2.28701538 L67.1265231,2.28701538 L67.1265231,17.1620308 L67.1265231,17.1620308 Z M67.1265231,18.9511385 L67.1265231,31.3846154 L64.9024615,31.3846154 L64.9024615,0.520615385 L72.8617846,0.520615385 C76.4811692,0.520615385 79.2108923,1.31243077 81.0498462,2.8968 C82.8888,4.48190769 83.8081846,6.74270769 83.8081846,9.68067692 C83.8081846,11.0328 83.5580308,12.2767385 83.0560615,13.4104615 C82.5548308,14.5441846 81.8315077,15.5220923 80.8860923,16.3441846 C79.9414154,17.1662769 78.7925538,17.8059692 77.4411692,18.2645538 C76.0890462,18.7218462 74.5630154,18.9511385 72.8617846,18.9511385 L67.1265231,18.9511385 L67.1265231,18.9511385 Z M52.6039385,15.9419077 C52.6039385,13.7892923 52.3061538,11.8550769 51.7096615,10.1394462 C51.1139077,8.42381538 50.2746462,6.96996923 49.1913231,5.77569231 C48.1081846,4.58363077 46.8027692,3.67144615 45.2769231,3.03895385 C43.7508923,2.4072 42.0570462,2.09132308 40.1963077,2.09132308 C38.3645538,2.09132308 36.6893538,2.4072 35.1697846,3.03895385 C33.6509538,3.67144615 32.3422154,4.58363077 31.2444923,5.77569231 C30.1469538,6.96996923 29.2966154,8.42381538 28.6931077,10.1394462 C28.0901538,11.8550769 27.7888615,13.7892923 27.7888615,15.9419077 C27.7888615,18.1074462 28.0903385,20.0459077 28.6931077,21.7530462 C29.2968,23.4622154 30.1469538,24.9123692 31.2444923,26.1059077 C32.3420308,27.2979692 33.6509538,28.2066462 35.1697846,28.8319385 C36.6891692,29.4572308 38.3645538,29.7708923 40.1963077,29.7708923 C42.0568615,29.7708923 43.7508923,29.4572308 45.2769231,28.8319385 C46.8029538,28.2066462 48.1081846,27.2979692 49.1913231,26.1059077 C50.2744615,24.9123692 51.1139077,23.4622154 51.7096615,21.7530462 C52.3059692,20.0459077 52.6039385,18.1074462 52.6039385,15.9419077 L52.6039385,15.9419077 Z M54.9151385,15.9419077 C54.9151385,18.3260308 54.5595692,20.4895385 53.8471385,22.4302154 C53.1347077,24.3708923 52.1315077,26.0302154 50.8377231,27.4033846 C49.5439385,28.7778462 47.9955692,29.8393846 46.1928,30.588 C44.3905846,31.3373538 42.3915692,31.7115692 40.1964923,31.7115692 C38.0309538,31.7115692 36.0463385,31.3373538 34.2433846,30.588 C32.4404308,29.8393846 30.8929846,28.7778462 29.5984615,27.4033846 C28.3046769,26.0302154 27.2979692,24.3708923 26.5783385,22.4302154 C25.8592615,20.4895385 25.4994462,18.3262154 25.4994462,15.9419077 C25.4994462,13.5707077 25.8592615,11.4158769 26.5783385,9.47316923 C27.2979692,7.53249231 28.3048615,5.87538462 29.5984615,4.50147692 C30.8929846,3.12627692 32.4406154,2.06104615 34.2433846,1.30596923 C36.0463385,0.548676923 38.0309538,0.170953846 40.1964923,0.170953846 C42.3917538,0.170953846 44.3907692,0.545907692 46.1928,1.29526154 C47.9957538,2.04387692 49.5439385,3.10818462 50.8377231,4.49076923 C52.1315077,5.87113846 53.1345231,7.53267692 53.8471385,9.47316923 C54.5595692,11.4158769 54.9151385,13.5707077 54.9151385,15.9419077 L54.9151385,15.9419077 Z M2.31913846,17.1620308 L8.05366154,17.1620308 C9.42092308,17.1620308 10.6412308,16.9737231 11.7171692,16.5952615 C12.7931077,16.2168 13.7054769,15.6930462 14.4539077,15.0252923 C15.2025231,14.3560615 15.7772308,13.5664615 16.1767385,12.6577846 C16.5762462,11.7498462 16.7767385,10.7582769 16.7767385,9.68086154 C16.7767385,7.30966154 16.0454769,5.48584615 14.5844308,4.20738462 C13.1241231,2.92652308 10.9469538,2.28701538 8.05366154,2.28701538 L2.31913846,2.28701538 L2.31913846,17.1620308 L2.31913846,17.1620308 Z M2.31913846,18.9511385 L2.31913846,31.3846154 L0.0950769231,31.3846154 L0.0950769231,0.520615385 L8.05366154,0.520615385 C11.6737846,0.520615385 14.4027692,1.31243077 16.2417231,2.8968 C18.0806769,4.48190769 19.0008,6.74270769 19.0008,9.68067692 C19.0008,11.0328 18.7499077,12.2767385 18.2479385,13.4104615 C17.7467077,14.5441846 17.0233846,15.5220923 16.0787077,16.3441846 C15.1340308,17.1662769 13.9851692,17.8059692 12.6330462,18.2645538 C11.2816615,18.7218462 9.75489231,18.9511385 8.05366154,18.9511385 L2.31913846,18.9511385 L2.31913846,18.9511385 Z" id="path-5"></path>
    </defs>
    <g id="Page-1" stroke="none" stroke-width="1" fill="none" fill-rule="evenodd" sketch:type="MSPage">
        <g id="WisePOPS" sketch:type="MSArtboardGroup">
            <g id="Clipped" sketch:type="MSLayerGroup" transform="translate(164.123077, 43.569231)">
                <mask id="mask-2" sketch:name="SVGID_1_" fill="white">
                    <use xlink:href="#path-1"></use>
                </mask>
                <g id="SVGID_1_"></g>
                <rect id="Rectangle-path" fill="#0F0D20" sketch:type="MSShapeGroup" mask="url(#mask-2)" x="-5.46775385" y="-5.43747692" width="26.6278154" height="28.5843692"></rect>
            </g>
            <g id="Clipped" sketch:type="MSLayerGroup" transform="translate(0.000000, 24.000000)">
                <mask id="mask-4" sketch:name="SVGID_3_" fill="white">
                    <use xlink:href="#path-3"></use>
                </mask>
                <g id="SVGID_3_"></g>
                <rect id="Rectangle-path" fill="#0F0D20" sketch:type="MSShapeGroup" mask="url(#mask-4)" x="-5.49950769" y="-5.45409231" width="132.816369" height="55.2158769"></rect>
            </g>
            <g id="Clipped" sketch:type="MSLayerGroup" transform="translate(131.446154, 36.369231)">
                <mask id="mask-6" sketch:name="SVGID_5_" fill="white">
                    <use xlink:href="#path-5"></use>
                </mask>
                <g id="SVGID_5_"></g>
                <rect id="Rectangle-path" fill="#0F0D20" sketch:type="MSShapeGroup" mask="url(#mask-6)" x="-5.4432" y="-5.36750769" width="119.496554" height="42.6389538"></rect>
            </g>
        </g>
    </g>
</svg>