<?xml version="1.0" encoding="UTF-8" standalone="no"?>
<svg width="64px" height="64px" viewBox="0 0 64 64" version="1.1" xmlns="http://www.w3.org/2000/svg" xmlns:xlink="http://www.w3.org/1999/xlink" xmlns:sketch="http://www.bohemiancoding.com/sketch/ns">
    <!-- Generator: Sketch 3.5.1 (25234) - http://www.bohemiancoding.com/sketch -->
    <title>Artboard 13</title>
    <desc>Created with Sketch.</desc>
    <defs>
        <path id="path-1" d="M26.0050548,29.3731549 C25.3722859,24.8679657 24.1099863,19.7276636 22.2149178,13.9522486 C21.2939378,11.2140178 20.8334479,9.07956854 20.8334479,7.56521923 C20.8334479,5.11745632 21.4409579,3.24344904 22.6546825,1.95037748 C23.8664642,0.650125828 25.1773386,1.77635684e-14 26.5860105,1.77635684e-14 C28.1391118,1.77635684e-14 29.5963586,0.635112882 30.9577509,1.91251875 C32.3165526,3.18209178 32.9946581,5.04108612 32.9946581,7.48884902 C32.9946581,8.95750677 32.2912937,11.7035704 30.8819741,15.7120269 C29.3793907,19.9267483 28.4558201,24.4782818 28.1164435,29.3738076 C31.1753665,27.270037 34.40333,24.2106597 37.8035726,20.1950231 C42.1727223,15.054721 45.8637665,12.4848963 48.8747622,12.4848963 C50.4278635,12.4848963 51.7639969,12.9875036 52.8799241,13.9920655 C53.9984419,14.9940165 54.557377,16.3477925 54.557377,18.0690594 C54.557377,20.5168223 53.6467597,22.3758167 51.8248774,23.6453897 C50.0036427,24.9227956 47.1267137,25.9247465 43.192795,26.6590754 C38.1429491,27.6381805 33.505666,29.1525299 29.2828886,31.2106089 C31.7569698,32.5291372 35.3748279,33.635526 40.1338721,34.5147625 C46.2057337,35.6394279 50.1247561,37.0238826 51.8980636,38.6609465 C53.6687803,40.3058431 54.5567294,42.1491718 54.5567294,44.2065981 C54.5567294,45.5760399 54.0230532,46.7920885 52.9524626,47.839731 C51.8851103,48.8925954 50.5489769,49.4232704 48.9473007,49.4232704 C45.7420054,49.4232704 42.0276453,47.0440449 37.8029249,42.2940794 C33.7219862,37.7425458 30.4966133,34.6603228 28.1157959,33.0461047 C28.5030997,38.1864068 29.6688971,43.2503387 31.6099498,48.2450805 C32.6319656,50.8919282 33.1403828,52.9186758 33.1403828,54.341642 C33.1403828,56.5420177 32.5458261,58.3527095 31.3567127,59.772412 C30.1675993,61.1953782 28.7459741,61.9016393 27.0963708,61.9016393 C25.5911967,61.9016393 24.1948305,61.2410697 22.9066243,59.9179723 C21.6216565,58.5948748 20.9785249,56.7665591 20.9785249,54.4154013 C20.9785249,53.0413904 21.4843514,50.9376197 22.5063672,48.0995202 C24.398845,42.6152258 25.5652901,37.5969855 26.0024642,33.0461047 C22.4552016,35.2947829 18.7667481,38.8672113 14.9286838,43.7627371 C11.9202788,47.5825527 8.98311692,49.4918078 6.11719822,49.4918078 C4.41707696,49.4918078 2.97278346,49.0022552 1.78107942,48.02315 C0.591966032,47.0440449 -7.46069873e-14,45.6746031 -7.46069873e-14,43.9154775 C-7.46069873e-14,39.3567639 3.95658697,36.4449051 11.8704086,35.1720684 C18.329574,34.0937472 22.7239827,32.7778299 25.0536346,31.2099562 C20.633967,29.0069696 16.1683151,27.5102441 11.652793,26.7276127 C4.02783014,25.358171 0.217615522,22.5207242 0.217615522,18.2087451 C0.217615522,16.6454405 0.812172214,15.3223431 2.00387626,14.2440219 C3.19298965,13.1728809 4.53883802,12.6350258 6.04401204,12.6350258 C8.91057841,12.6350258 12.1638009,14.7616422 15.8043273,19.0194442 C17.3095013,20.7837917 18.7162302,22.298141 20.0290476,23.5735886 L26.0050548,29.3731549 L26.0050548,29.3731549 Z"></path>
    </defs>
    <g id="Page-1" stroke="none" stroke-width="1" fill="none" fill-rule="evenodd" sketch:type="MSPage">
        <g id="Artboard-13" sketch:type="MSArtboardGroup">
            <g id="Logo-Copy-2" sketch:type="MSLayerGroup" transform="translate(5.000000, 1.000000)">
                <mask id="mask-2" sketch:name="SVGID_1_" fill="white">
                    <use xlink:href="#path-1"></use>
                </mask>
                <g id="SVGID_1_"></g>
                <rect id="Rectangle-path" fill="#0F0D20" sketch:type="MSShapeGroup" mask="url(#mask-2)" x="-18.8852459" y="-18.8852459" width="94.4262295" height="101.770492"></rect>
            </g>
        </g>
    </g>
</svg>