<?xml version="1.0" encoding="utf-8"?>
<!-- Generator: Adobe Illustrator 16.0.0, SVG Export Plug-In . SVG Version: 6.00 Build 0)  -->
<!DOCTYPE svg PUBLIC "-//W3C//DTD SVG 1.1//EN" "http://www.w3.org/Graphics/SVG/1.1/DTD/svg11.dtd">
<svg version="1.1" id="Layer_1" xmlns="http://www.w3.org/2000/svg" xmlns:xlink="http://www.w3.org/1999/xlink" x="0px" y="0px"
	 width="220px" height="75px" viewBox="0 0 220 75" enable-background="new 0 0 220 75" xml:space="preserve">
<g>
	<path fill="#FFFFFF" d="M89.393,46.686c0,2.589,0.112,5.121,0.45,6.645h-7.714l-0.505-2.762h-0.169
		c-1.8,2.2-4.617,3.379-7.881,3.379c-5.576,0-8.896-4.052-8.896-8.444c0-7.15,6.418-10.527,16.158-10.527v-0.337
		c0-1.462-0.789-3.548-5.01-3.548c-2.816,0-5.801,0.958-7.603,2.028l-1.575-5.46c1.914-1.071,5.685-2.478,10.697-2.478
		c9.176,0,12.048,5.404,12.048,11.876V46.686z M81.117,40.326c-4.505,0-7.996,1.065-7.996,4.333c0,2.196,1.465,3.265,3.379,3.265
		c2.083,0,3.883-1.406,4.448-3.154c0.111-0.448,0.168-0.955,0.168-1.462V40.326z"/>
	<path fill="#FFFFFF" d="M91.599,35.034c0-3.604-0.113-6.643-0.225-9.234h7.431l0.393,3.828h0.112
		c2.027-2.87,5.179-4.447,9.176-4.447c6.024,0,11.429,5.235,11.429,14.018c0,10.019-6.361,14.749-12.497,14.749
		c-3.321,0-5.914-1.351-7.15-3.15h-0.113v13.678h-8.557V35.034z M100.156,41.507c0,0.675,0.057,1.236,0.169,1.801
		c0.562,2.31,2.531,4.054,5.01,4.054c3.716,0,5.912-3.097,5.912-7.771c0-4.39-1.971-7.712-5.798-7.712
		c-2.42,0-4.561,1.802-5.123,4.336c-0.112,0.449-0.169,1.016-0.169,1.52V41.507z"/>
	<path fill="#FFFFFF" d="M131.766,18.312V25.8h6.135v6.305h-6.135v10.021c0,3.322,0.844,4.841,3.377,4.841
		c1.182,0,1.744-0.057,2.533-0.225l0.055,6.473c-1.068,0.397-3.15,0.733-5.516,0.733c-2.758,0-5.066-0.958-6.475-2.363
		c-1.576-1.631-2.365-4.279-2.365-8.164V32.104h-3.66V25.8h3.66v-5.18L131.766,18.312z"/>
	<rect x="139.854" y="25.8" fill="#FFFFFF" width="8.557" height="27.53"/>
	<path fill="#FFFFFF" d="M150.48,21.086l8.559-5.418v13.396h0.113c1.633-2.365,4.504-3.883,8.332-3.883
		c6.586,0,11.373,5.46,11.316,13.905c0,9.91-6.25,14.861-12.553,14.861c-3.211,0-6.363-1.179-8.277-4.447h-0.111l-0.34,3.83h-7.262
		c0.115-1.804,0.223-5.122,0.223-8.222V21.086z M159.039,41.618c0,0.563,0.059,1.068,0.172,1.521
		c0.561,2.253,2.531,4.054,5.01,4.054c3.66,0,5.91-2.813,5.91-7.767c0-4.281-1.914-7.658-5.91-7.658
		c-2.309,0-4.449,1.746-5.01,4.221c-0.113,0.506-0.172,1.012-0.172,1.576V41.618z"/>
	<rect x="180.311" y="13.359" fill="#FFFFFF" width="8.557" height="39.971"/>
	<path fill="#FFFFFF" d="M198.867,42.238c0.281,3.603,3.771,5.291,7.77,5.291c2.926,0,5.293-0.394,7.6-1.183l1.127,5.799
		c-2.816,1.185-6.248,1.746-9.965,1.746c-9.346,0-14.693-5.405-14.693-14.073c0-6.983,4.391-14.695,13.904-14.695
		c8.895,0,12.273,6.924,12.273,13.736c0,1.467-0.17,2.759-0.281,3.434L198.867,42.238z M208.943,36.383
		c0-2.025-0.9-5.573-4.785-5.573c-3.658,0-5.121,3.322-5.344,5.573H208.943z"/>
	<path fill="#FFFFFF" d="M144.053,23.091c-2.701,0-4.447-1.907-4.447-4.29c0-2.436,1.799-4.287,4.553-4.287
		c2.752,0,4.447,1.851,4.498,4.287c0,2.383-1.746,4.29-4.551,4.29H144.053z"/>
	<path fill="#F79839" d="M41.696,20.666c-2.228-0.578-4.986,0.351-5.914,1.63c-0.151,0.208-0.31,0.547-0.26,0.778
		c0.235,1.092,1.992,0.516,1.996,0.516c3.036-0.551,5.178,3.244,1.379,5.061c-3.608,1.728-6.176-0.965-6.799-1.507
		c0.431-0.507,0.812-1.064,1.14-1.661c0.81-1.478,1.273-3.205,1.273-5.05c0-5.472-4.079-9.907-9.111-9.907
		c-5.032,0-9.111,4.436-9.111,9.907c0,1.896,0.492,3.67,1.344,5.177c0.329,0.581,0.71,1.118,1.135,1.61
		c-0.23,0.228-4.041,2.654-7.185,1.026c-1.22-0.631-1.704-1.926-1.141-3.076c0.399-0.817,1.137-1.411,2.039-1.473
		c2.247-0.155,1.815-1.689,0.971-2.135c-1.292-0.685-2.553-0.733-3.951-0.354c-2.846,0.767-4.222,3.708-4.026,6.104
		c0.264,3.232,1.684,5.795,4.712,6.856c2.001,0.704,4.074,0.787,6.163,0.44c0.717-0.117,1.419-0.33,2.127-0.498
		c0.019,0.037-1.744,1.119-2.645,1.617c-0.779,0.427-1.611,0.78-2.333,1.278c-1.492,1.032-2.317,2.458-2.241,4.225
		c0.088,2.014,1.069,3.629,2.797,4.802c1.378,0.938,2.895,1.257,4.542,0.687c1.971-0.679,3.187-2.455,3.009-4.392
		c-0.031-0.341-0.125-0.674-0.522-0.786c-0.37-0.103-0.658,0.074-0.861,0.353c-0.196,0.271-0.356,0.569-0.547,0.844
		c-0.408,0.589-1.001,0.684-1.577,0.241c-0.513-0.393-0.798-0.905-0.669-1.54c0.126-0.631,0.566-1.018,1.234-1.161
		c1.184-0.256,2.386-0.457,3.547-0.788c2.285-0.652,3.884-2.027,4.631-4.218c0.037-0.109,0.108-0.208,0.163-0.316
		c0.989,0.618,1.84,1.708,2.165,2.749c0.495,1.576-0.075,2.781-1.6,3.551c-1.086,0.55-2.172,1.119-3.175,1.788
		c-1.723,1.148-2.073,2.704-1.934,4.718c0.187,2.686,1.571,2.097,1.571,2.097c0.318-0.137,0.494-0.649,0.507-1.1
		c0.047-1.859,0.913-2.865,2.639-3.065c0.629-0.074,1.268-0.056,1.899-0.12c1.703-0.173,3.284-0.674,4.679-1.644
		c2.994-2.085,3.083-6.161,1.324-8.649c-0.087-0.127-0.171-0.253-0.293-0.428C48.635,34.284,47.868,22.262,41.696,20.666z"/>
	<path fill="#AADEE9" d="M57.059,40.085c-1.423-1.976-3.467-3.523-5.933-4.319c-0.118-0.442-0.262-0.89-0.438-1.333
		c-0.435-1.115-1.024-2.225-1.697-3.243c-0.228-0.347-0.472-0.677-0.72-1c-0.077,0.254-0.157,0.51-0.256,0.758v0.005
		c-0.107,0.274-0.229,0.538-0.357,0.796c-0.235,0.478-0.512,0.927-0.815,1.351c-0.3,0.418-0.623,0.815-0.987,1.173
		c-0.926,0.908-2.028,1.59-3.213,2.055c-0.792,0.313-1.621,0.533-2.479,0.678c-0.425,0.072-0.835,0.119-1.235,0.157
		c0.173,0.718,2.657,12.131-11.619,11.578c-0.133,0.017-0.244,0.028-0.244,0.028c-0.009,0.011-0.073,4.145-3.401,4.428
		c-2.447,0.209-3.798-3.418-3.843-3.604C19.494,49.764,7.2,52.908,8.35,39.159c-0.514,0.306-0.672,0.438-1.133,0.822
		c-1.676,1.388-2.979,3.282-3.636,5.519c-0.313,1.06-0.463,2.133-0.463,3.189c0,2.463,0.812,4.824,2.25,6.75
		c1.435,1.925,3.501,3.424,5.994,4.143c1.067,0.309,2.147,0.455,3.208,0.455c2.497-0.003,4.885-0.824,6.836-2.268
		c0.604,0.804,1.299,1.543,2.096,2.185c1.246,1.005,2.711,1.781,4.343,2.254c1.156,0.336,2.326,0.494,3.478,0.494
		c3.69-0.001,7.172-1.643,9.511-4.419c0.888,0.546,1.855,0.995,2.901,1.299h-0.001c1.088,0.312,2.19,0.466,3.276,0.466
		c2.665,0,5.227-0.905,7.32-2.488c2.093-1.581,3.729-3.851,4.533-6.579c0.357-1.208,0.53-2.431,0.53-3.628
		C59.391,44.697,58.555,42.158,57.059,40.085z"/>
</g>
</svg>
