<?xml version="1.0" encoding="UTF-8" standalone="no"?>
<svg width="580px" height="480px" viewBox="0 0 580 480" version="1.1" xmlns="http://www.w3.org/2000/svg" xmlns:xlink="http://www.w3.org/1999/xlink" xmlns:sketch="http://www.bohemiancoding.com/sketch/ns">
    <!-- Generator: Sketch 3.5.1 (25234) - http://www.bohemiancoding.com/sketch -->
    <title>Artboard 1</title>
    <desc>Created with Sketch.</desc>
    <defs>
        <path d="M374.613481,426.106957 C348.778068,398.483472 324.116993,370.859986 297.694412,342.648767 C315.309466,315.025281 321.181151,281.524459 322.942656,249.199103 L371.09047,249.199103 L371.09047,191.013464 L263.638641,191.013464 C263.638641,203.943606 263.638641,223.338819 262.464304,242.146298 C261.289967,261.541512 258.941293,280.348991 251.895272,293.279133 L179.67355,214.522813 C225.472691,188.074795 258.354125,156.924907 258.354125,102.853403 C258.354125,37.614959 203.747458,0 143.269106,0 C80.4420798,0 29.3584233,39.3781602 29.3584233,105.204338 C29.3584233,143.994765 47.5606457,166.91638 73.9832266,195.715333 C29.9455917,222.751085 -2.84217094e-14,258.602843 -2.84217094e-14,310.323412 C-2.84217094e-14,388.491998 64.0013627,436.686164 137.984589,436.686164 C180.847887,436.686164 222.536848,422.580555 256.005451,393.193868 L285.363874,426.106957 L374.613481,426.106957 Z M189.655414,105.792072 C189.655414,140.468362 162.058496,153.986238 136.223084,168.091848 C119.195198,150.459836 96.8827968,131.064623 96.8827968,104.028871 C96.8827968,75.229918 119.195198,60.5365746 143.269106,60.5365746 C169.691687,60.5365746 189.655414,76.9931192 189.655414,105.792072 L189.655414,105.792072 Z M211.967816,346.762903 C193.765594,366.74585 166.755844,372.623187 142.094769,372.623187 C102.754481,372.623187 67.5243735,350.289305 67.5243735,307.384743 C67.5243735,272.120719 89.2496067,258.015109 116.846525,241.558565 C149.14079,276.822589 179.67355,311.498879 211.967816,346.762903 L211.967816,346.762903 Z" id="path-1"></path>
    </defs>
    <g id="Page-1" stroke="none" stroke-width="1" fill="none" fill-rule="evenodd" sketch:type="MSPage">
        <g id="Artboard-1" sketch:type="MSArtboardGroup">
            <g id="Group-2-Copy" sketch:type="MSLayerGroup" transform="translate(91.000000, 0.000000)">
                <g id="Group-Copy" transform="translate(82.255965, 42.524946)">
                    <mask id="mask-2" sketch:name="Mask" fill="white">
                        <use xlink:href="#path-1"></use>
                    </mask>
                    <use id="Mask" sketch:type="MSShapeGroup" xlink:href="#path-1"></use>
                    <g id="Group" mask="url(#mask-2)" stroke-linecap="square" stroke="#3A3556" sketch:type="MSShapeGroup">
                        <g transform="translate(-78.289129, -235.093494)">
                            <path d="M1.31691492,337.138412 L548.355206,1.29859808" id="Line"></path>
                            <path d="M1.31691492,648.147513 L548.355206,312.307699" id="Line-Copy-12"></path>
                            <path d="M1.31691492,488.969626 L548.355206,153.129813" id="Line-Copy-6"></path>
                            <path d="M1.31691492,797.529837 L548.355206,461.690023" id="Line-Copy-13"></path>
                            <path d="M1.31691492,415.50291 L548.355206,79.6630959" id="Line-Copy-3"></path>
                            <path d="M1.31691492,721.614229 L548.355206,385.774416" id="Line-Copy-14"></path>
                            <path d="M1.31691492,567.334124 L548.355206,231.494311" id="Line-Copy-7"></path>
                            <path d="M1.31691492,878.343225 L548.355206,542.503412" id="Line-Copy-15"></path>
                            <path d="M1.31691492,361.627317 L548.355206,25.7875037" id="Line-Copy"></path>
                            <path d="M1.31691492,670.187528 L548.355206,334.347714" id="Line-Copy-16"></path>
                            <path d="M1.31691492,520.805204 L548.355206,184.96539" id="Line-Copy-8"></path>
                            <path d="M1.31691492,822.018742 L548.355206,486.178929" id="Line-Copy-17"></path>
                            <path d="M1.31691492,439.991815 L548.355206,104.152002" id="Line-Copy-4"></path>
                            <path d="M1.31691492,746.103135 L548.355206,410.263321" id="Line-Copy-18"></path>
                            <path d="M1.31691492,591.82303 L548.355206,255.983216" id="Line-Copy-9"></path>
                            <path d="M1.31691492,905.281021 L548.355206,569.441208" id="Line-Copy-19"></path>
                            <path d="M1.31691492,388.565113 L548.355206,52.7252998" id="Line-Copy-2"></path>
                            <path d="M1.31691492,694.676433 L548.355206,358.83662" id="Line-Copy-20"></path>
                            <path d="M1.31691492,542.845219 L548.355206,207.005405" id="Line-Copy-10"></path>
                            <path d="M1.31691492,851.405429 L548.355206,515.565615" id="Line-Copy-21"></path>
                            <path d="M1.31691492,466.929611 L548.355206,131.089798" id="Line-Copy-5"></path>
                            <path d="M1.31691492,775.489822 L548.355206,439.650008" id="Line-Copy-22"></path>
                            <path d="M1.31691492,618.760826 L548.355206,282.921012" id="Line-Copy-11"></path>
                            <path d="M1.31691492,927.321036 L548.355206,591.481223" id="Line-Copy-23"></path>
                        </g>
                    </g>
                </g>
                <path d="M375.385642,425.69988 C349.496977,398.102784 324.78507,370.505689 298.308026,342.321421 C315.959389,314.724325 321.843176,281.255507 323.608312,248.961033 L371.85537,248.961033 L371.85537,190.830981 L264.182059,190.830981 C264.182059,203.74877 264.182059,223.125454 263.005301,241.914966 C261.828544,261.29165 259.475029,280.081162 252.414484,292.998952 L180.043897,214.317871 C225.93744,187.895119 258.88665,156.77499 258.88665,102.755143 C258.88665,37.5790239 204.167426,0 143.564415,0 C80.6078887,0 29.4189375,39.3405406 29.4189375,105.103832 C29.4189375,143.857201 47.6586787,166.756919 74.1357224,195.528359 C30.0073162,222.538282 0,258.355789 0,310.026947 C0,388.120856 64.1332837,436.26898 138.269006,436.26898 C181.220655,436.26898 222.995546,422.176847 256.533135,392.818234 L285.952072,425.69988 L375.385642,425.69988 Z M190.046336,105.691005 C190.046336,140.334167 162.392535,153.839129 136.50387,167.931263 C119.440886,150.316096 97.0824937,130.939411 97.0824937,103.929488 C97.0824937,75.1580478 119.440886,60.4787416 143.564415,60.4787416 C170.041459,60.4787416 190.046336,76.9195645 190.046336,105.691005 L190.046336,105.691005 Z M212.404729,346.431626 C194.164987,366.395483 167.099565,372.267205 142.387657,372.267205 C102.966281,372.267205 67.6635562,349.95466 67.6635562,307.091086 C67.6635562,271.860751 89.4335699,257.768617 117.087371,241.327794 C149.448202,276.558129 180.043897,311.201292 212.404729,346.431626 L212.404729,346.431626 Z" id="&amp;-copy-6" fill="#17142B" sketch:type="MSShapeGroup"></path>
            </g>
        </g>
    </g>
</svg>