<?xml version="1.0" encoding="utf-8"?>
<!-- Generator: Adobe Illustrator 16.0.0, SVG Export Plug-In . SVG Version: 6.00 Build 0)  -->
<!DOCTYPE svg PUBLIC "-//W3C//DTD SVG 1.1//EN" "http://www.w3.org/Graphics/SVG/1.1/DTD/svg11.dtd">
<svg version="1.1" id="Layer_1" xmlns="http://www.w3.org/2000/svg" xmlns:xlink="http://www.w3.org/1999/xlink" x="0px" y="0px"
	 width="220px" height="75px" viewBox="0 0 220 75" enable-background="new 0 0 220 75" xml:space="preserve">
<g>
	<path fill-rule="evenodd" clip-rule="evenodd" fill="#65DFFF" d="M73.525,55.853c-0.224-0.106-0.46-0.187-0.688-0.281
		c-2.906-1.203-5.813-2.404-8.718-3.612c-0.261-0.111-0.505-0.263-0.758-0.394c0.445-0.193,0.827-0.193,1.207-0.193
		c2.761-0.002,5.52-0.004,8.279-0.004c0.708,0,1.288-0.332,1.158-1.033c-0.074-0.399-0.673-0.745-1.099-1.016
		c-0.206-0.129-0.552-0.032-0.838-0.032c-2.51-0.002-5.022,0-7.534-0.004c-0.332-0.002-0.662-0.034-0.993-0.05
		c0.299-0.349,0.625-0.522,0.972-0.665c2.053-0.856,4.113-1.705,6.169-2.559c0.665-0.274,1.117-0.724,0.785-1.475
		c-0.325-0.729-0.939-0.733-1.618-0.449c-2.019,0.85-4.046,1.684-6.071,2.52c-0.403,0.166-0.813,0.309-1.505,0.57
		c0.316-0.393,0.415-0.538,0.534-0.66c1.45-1.455,2.904-2.903,4.35-4.358c0.478-0.485,0.648-1.063,0.129-1.595
		c-0.516-0.524-1.099-0.387-1.596,0.09c-0.537,0.512-1.054,1.046-1.581,1.569c-1.054,1.054-2.107,2.105-3.161,3.155
		c-0.028-0.525,0.108-0.919,0.266-1.302c0.537-1.309,1.098-2.606,1.622-3.918c0.246-0.618,0.223-1.239-0.487-1.521
		c-0.665-0.266-1.164,0.033-1.434,0.697c-0.119,0.294-0.248,0.585-0.37,0.879c-0.592,1.42-1.184,2.84-1.778,4.259
		c-0.081-0.013-0.163-0.026-0.244-0.04c0-0.367,0-0.738,0-1.108c0-13.552,0-27.104-0.005-40.655c0-0.423,0.101-0.918-0.081-1.251
		c-0.194-0.363-0.654-0.765-1.021-0.791c-0.29-0.02-0.748,0.449-0.895,0.802c-0.167,0.398-0.072,0.906-0.072,1.365
		C56.45,16.271,56.45,29.753,56.45,43.233c0,0.401,0,0.804,0,1.203c-0.421-0.389-0.609-0.796-0.78-1.209
		C51.057,32.094,46.447,20.955,41.831,9.82c-0.317-0.767-0.562-1.832-1.722-1.333c-1.091,0.464-0.528,1.367-0.227,2.096
		c4.591,11.106,9.193,22.207,13.79,33.312c0.185,0.445,0.358,0.895,0.536,1.344c-0.468-0.157-0.768-0.428-1.054-0.716
		c-7.608-7.605-15.212-15.211-22.82-22.812c-0.561-0.562-1.104-1.367-2.042-0.622c-0.63,0.497-0.45,1.107,0.562,2.117
		c7.605,7.609,15.21,15.217,22.824,22.81c0.295,0.296,0.705,0.472,1.062,0.701c-0.12,0.121-0.242,0.239-0.363,0.36
		c-0.324-0.129-0.65-0.254-0.972-0.391c-8.818-3.648-17.637-7.301-26.454-10.951c-0.357-0.148-0.747-0.42-1.086-0.373
		c-0.421,0.057-0.974,0.296-1.152,0.629c-0.137,0.26,0.108,0.866,0.368,1.158c0.254,0.29,0.734,0.388,1.125,0.551
		c8.719,3.613,17.438,7.222,26.158,10.834c0.372,0.155,0.731,0.336,1.099,0.503c-0.019,0.083-0.036,0.164-0.054,0.248
		c-0.405,0-0.811,0-1.218,0c-8.313,0-16.629,0-24.944,0.002c-0.387,0-0.86-0.11-1.148,0.064c-0.383,0.236-0.824,0.681-0.863,1.076
		c-0.033,0.275,0.529,0.697,0.907,0.898c0.281,0.146,0.694,0.046,1.047,0.046c8.423,0,16.842,0,25.265,0c0.367,0,0.733,0,1.103,0
		c-0.275,0.371-0.573,0.521-0.883,0.647c-6.919,2.874-13.842,5.743-20.763,8.616c-0.295,0.121-0.708,0.175-0.849,0.396
		c-0.249,0.395-0.534,0.953-0.423,1.332c0.081,0.277,0.76,0.493,1.188,0.527c0.348,0.026,0.72-0.25,1.082-0.4
		c6.826-2.824,13.648-5.653,20.476-8.478c0.321-0.133,0.652-0.244,0.979-0.367c-0.178,0.47-0.438,0.754-0.71,1.026
		c-4.576,4.579-9.154,9.156-13.732,13.737c-0.224,0.226-0.576,0.429-0.632,0.694c-0.1,0.456-0.196,1.137,0.05,1.383
		c0.243,0.245,0.925,0.148,1.379,0.046c0.267-0.057,0.47-0.405,0.694-0.631c4.604-4.604,9.208-9.206,13.815-13.808
		c0.255-0.26,0.527-0.5,0.792-0.745c0.027,0.471-0.094,0.83-0.241,1.18c-2.162,5.227-4.327,10.448-6.489,15.676
		c-0.12,0.292-0.36,0.616-0.313,0.883c0.083,0.461,0.249,1.136,0.564,1.261c0.324,0.127,0.924-0.218,1.293-0.499
		c0.246-0.186,0.303-0.621,0.44-0.949c2.192-5.288,4.382-10.577,6.576-15.867c0.113-0.268,0.253-0.52,0.382-0.779
		c0.071,0.018,0.14,0.032,0.215,0.05c0,0.377,0,0.75,0,1.125c0,4.921,0,9.837,0.001,14.754c0,0.354-0.097,0.782,0.063,1.044
		c0.229,0.362,0.638,0.79,1.007,0.83c0.284,0.03,0.718-0.439,0.921-0.786c0.157-0.27,0.077-0.688,0.077-1.039
		c0.005-4.954,0.005-9.908,0.005-14.863c0-0.365,0-0.733,0-1.101c0.397,0.353,0.579,0.724,0.737,1.106
		c1.581,3.821,3.161,7.644,4.74,11.465c0.083,0.195,0.165,0.389,0.241,0.59c0.28,0.742,0.73,1.308,1.586,0.934
		c0.81-0.351,0.659-1.042,0.373-1.721c-1.709-4.11-3.412-8.226-5.113-12.342c-0.129-0.308-0.231-0.628-0.345-0.942
		c0.074-0.053,0.146-0.104,0.218-0.157c1.425,1.463,2.843,2.936,4.281,4.39c1.543,1.56,3.099,3.104,4.655,4.649
		c0.483,0.483,1.043,0.665,1.584,0.131c0.536-0.525,0.387-1.085-0.083-1.593c-0.165-0.18-0.347-0.353-0.52-0.526
		c-2.554-2.555-5.104-5.103-7.655-7.659c-0.254-0.254-0.494-0.523-0.742-0.786c1.438,0.351,2.736,0.879,4.03,1.415
		c2.059,0.85,4.114,1.706,6.173,2.554c0.635,0.258,1.218,0.2,1.523-0.487C74.524,56.586,74.132,56.147,73.525,55.853z
		 M57.423,52.452c-1.162-0.028-2.06-0.953-2.056-2.115c0.009-1.196,0.998-2.162,2.177-2.125c1.142,0.038,2.073,1.001,2.065,2.139
		C59.604,51.544,58.628,52.48,57.423,52.452z"/>
	<g>
		<path fill="#365257" d="M94.566,34.756c3.108,0,5.964,0.867,8.567,2.566l-1.59,2.458c-2.205-1.482-4.482-2.205-6.977-2.205
			c-5.675,0-9.543,4.013-9.543,9.977c0,6.435,3.615,10.556,9.543,10.556c2.133,0,4.374-0.542,5.748-1.41v-6.977h-7.013v-2.675
			h10.049v11.278c-2.386,1.663-5.566,2.603-8.82,2.603c-7.808,0-12.76-5.241-12.76-13.375C81.77,39.961,86.939,34.756,94.566,34.756
			z"/>
		<path fill="#365257" d="M108.191,41.66h2.748l0.252,3.289c1.374-2.386,3.182-3.759,5.604-3.759c1.156,0,2.024,0.181,2.747,0.542
			l-0.795,2.819c-0.724-0.289-1.338-0.434-2.205-0.434c-2.205,0-3.796,1.446-5.278,4.229v12.146h-3.072V41.66z"/>
		<path fill="#365257" d="M129.41,41.227c5.277,0,9.072,3.759,9.072,9.615c0,6.218-3.65,10.085-9.072,10.085
			c-5.459,0-9.109-3.867-9.109-10.085C120.301,44.985,124.168,41.227,129.41,41.227z M129.41,58.288
			c3.613,0,5.928-2.964,5.928-7.446c0-4.193-2.422-6.977-5.928-6.977c-3.508,0-6.002,2.783-6.002,6.977
			C123.408,55.324,125.723,58.288,129.41,58.288z"/>
		<path fill="#365257" d="M150.482,41.227c5.277,0,9.072,3.759,9.072,9.615c0,6.218-3.65,10.085-9.072,10.085
			c-5.459,0-9.109-3.867-9.109-10.085C141.373,44.985,145.24,41.227,150.482,41.227z M150.482,58.288
			c3.613,0,5.928-2.964,5.928-7.446c0-4.193-2.422-6.977-5.928-6.977c-3.508,0-6.002,2.783-6.002,6.977
			C144.48,55.324,146.795,58.288,150.482,58.288z"/>
		<path fill="#365257" d="M161.035,41.66h3.326l5.17,15.436h0.072l5.24-15.436h3.182l-6.688,18.833h-3.65L161.035,41.66z"/>
		<path fill="#365257" d="M188.471,41.19c5.494,0,7.699,3.831,7.699,8.639c0,0.398-0.107,1.121-0.145,1.519h-13.447
			c0.109,4.446,2.277,6.94,6.146,6.94c1.951,0,3.83-0.759,5.385-1.808l1.447,2.241c-1.988,1.338-4.41,2.241-6.869,2.241
			c-5.855,0-9.182-3.795-9.182-10.085C179.506,45.058,183.229,41.19,188.471,41.19z M182.76,48.89h10.303
			c0-2.855-1.158-5.205-4.52-5.205C185.543,43.685,183.41,45.673,182.76,48.89z"/>
	</g>
</g>
</svg>
