<?xml version="1.0" encoding="utf-8"?>
<!-- Generator: Adobe Illustrator 16.0.0, SVG Export Plug-In . SVG Version: 6.00 Build 0)  -->
<!DOCTYPE svg PUBLIC "-//W3C//DTD SVG 1.1//EN" "http://www.w3.org/Graphics/SVG/1.1/DTD/svg11.dtd">
<svg version="1.1" id="Layer_1" xmlns="http://www.w3.org/2000/svg" xmlns:xlink="http://www.w3.org/1999/xlink" x="0px" y="0px"
	 width="220px" height="75px" viewBox="0 0 220 75" enable-background="new 0 0 220 75" xml:space="preserve">
<g>
	<path fill="#FFFAE1" d="M114.422,75h-12.458L77.098,22.757V75h-12.66V0h12.408l24.917,51.541V0h12.659V75z M155.562,38.379
		c0,4.923-1.676,9.11-5.023,12.56c-3.35,3.449-7.467,5.19-12.357,5.224c-4.891,0.034-9.01-1.699-12.357-5.199
		c-3.35-3.499-5.023-7.693-5.023-12.584c0-4.889,1.674-9.092,5.023-12.609c3.348-3.516,7.467-5.274,12.357-5.274
		c4.924,0,9.051,1.751,12.383,5.251C153.895,29.245,155.562,33.456,155.562,38.379z M154.859,75h-32.703V63.698h32.703V75z
		 M145.617,38.379c0-2.076-0.723-3.868-2.162-5.375c-1.439-1.507-3.197-2.26-5.273-2.26s-3.826,0.753-5.25,2.26
		c-1.424,1.508-2.135,3.299-2.135,5.375c0,2.078,0.711,3.861,2.135,5.351c1.424,1.491,3.174,2.235,5.25,2.235
		s3.834-0.744,5.273-2.235C144.895,42.24,145.617,40.457,145.617,38.379z"/>
</g>
</svg>
