<?xml version="1.0" encoding="utf-8"?>
<!-- Generator: Adobe Illustrator 16.0.0, SVG Export Plug-In . SVG Version: 6.00 Build 0)  -->
<!DOCTYPE svg PUBLIC "-//W3C//DTD SVG 1.1//EN" "http://www.w3.org/Graphics/SVG/1.1/DTD/svg11.dtd">
<svg version="1.1" xmlns="http://www.w3.org/2000/svg" xmlns:xlink="http://www.w3.org/1999/xlink" x="0px" y="0px" width="220px"
	 height="75px" viewBox="0 0 220 75" enable-background="new 0 0 220 75" xml:space="preserve">
<g id="Layer_1">
</g>
<g id="Layer_8">
	<g>
		<path fill="#581845" d="M110,75V54.545c4.557,0,8.839-1.774,12.057-4.996l14.474,14.454c-3.44,3.444-7.451,6.15-11.922,8.043
			C119.977,74.006,115.062,75,110,75z"/>
		<path fill="#900C3F" d="M136.527,64.005l-14.469-14.459c3.216-3.218,4.987-7.496,4.987-12.046h20.455
			c0,5.056-0.992,9.966-2.949,14.595C142.664,56.559,139.965,60.565,136.527,64.005z"/>
		<path fill="#C70039" d="M147.501,37.5h-20.455c0-4.551-1.774-8.831-4.996-12.054l14.467-14.462
			c3.439,3.44,6.142,7.449,8.03,11.914C146.507,27.529,147.501,32.442,147.501,37.5z"/>
		<path fill="#FF5733" d="M110,75c-5.057,0-9.969-0.993-14.599-2.951c-4.467-1.889-8.476-4.591-11.917-8.031
			s-6.144-7.45-8.033-11.916c-1.959-4.631-2.952-9.543-2.952-14.602c0-5.058,0.993-9.97,2.952-14.6
			c1.89-4.466,4.592-8.476,8.033-11.916c3.441-3.44,7.45-6.144,11.917-8.032C100.03,0.993,104.942,0,110,0c0.003,0,0.006,0,0.008,0
			c5.052,0,9.96,0.992,14.588,2.95c4.464,1.888,8.472,4.588,11.914,8.026l-14.455,14.473c-3.225-3.221-7.504-4.994-12.049-4.994
			c-0.001,0-0.002,0-0.004,0c-9.401,0-17.048,7.646-17.048,17.045S100.601,54.545,110,54.545V75z"/>
	</g>
</g>
</svg>
