<?xml version="1.0" encoding="UTF-8" standalone="no"?>
<svg width="1134px" height="665px" viewBox="0 0 1134 665" version="1.1" xmlns="http://www.w3.org/2000/svg" xmlns:xlink="http://www.w3.org/1999/xlink" xmlns:sketch="http://www.bohemiancoding.com/sketch/ns">
    <!-- Generator: Sketch 3.5.1 (25234) - http://www.bohemiancoding.com/sketch -->
    <title>line group</title>
    <desc>Created with Sketch.</desc>
    <defs>
        <path id="path-1" d="M1130.11289,312.126732 C1114.90061,265.59539 935.772705,332.309692 834.478149,314.231903 C754.876255,300.025549 730.116028,247.033508 659.317383,247.033508 C606.816956,247.033508 585.37764,299.047363 508.455082,299.047366 C431.532525,299.047369 447.820692,138.769073 429.828537,69.5687507 C411.836383,0.368427816 371.024763,0.454044136 364.49736,0.45404003 C357.969956,0.454035924 312.115003,-10.9699508 281.031317,80.788883 C249.947631,172.547717 232.929395,229.170242 147.092451,229.170242 C105.310498,229.170242 80.0195627,200.085893 38.0174575,200.085892 C-3.98464764,200.08589 0.133202485,247.033502 0.133202485,247.033502 C0.0795704695,247.487887 -4.03827966,294.435499 37.9638255,294.435497 C79.9659306,294.435495 105.256866,265.351146 147.038819,265.351146 C232.875763,265.351146 286.211075,317.17597 306.582431,520.80329 C320.037356,655.295585 342.170627,664.538062 362.349032,664.538062 C382.527438,664.538062 396.622989,644.684217 410.703342,563.876655 C424.783694,483.069093 436.620344,367.811667 508.40145,359.474023 C580.182556,351.136379 570.326854,481.536443 659.317355,481.536445 C748.307856,481.536446 719.812533,381.227759 834.478122,359.474036 C932.836767,340.813976 1109.44092,401.16283 1128.76468,363.657253 C1131.96838,357.439179 1133.64356,348.748427 1133.64355,336.850983 C1133.62725,333.138578 1133.47724,322.4176 1130.11289,312.126732 Z"></path>
    </defs>
    <g id="Page-1" stroke="none" stroke-width="1" fill="none" fill-rule="evenodd" sketch:type="MSPage">
        <g id="line-group" sketch:type="MSLayerGroup">
            <mask id="mask-2" sketch:name="Mask" fill="white">
                <use xlink:href="#path-1"></use>
            </mask>
            <use id="Mask" sketch:type="MSShapeGroup" xlink:href="#path-1"></use>
            <g mask="url(#mask-2)" stroke-linecap="square">
                <g transform="translate(-64.000000, -186.000000)">
                    <g id="Lines" transform="translate(0.000000, 48.000000)">
                        <path d="M0,360.000001 L311.769145,180" id="Line" stroke="#3A3656" sketch:type="MSShapeGroup"></path>
                        <path d="M0,372.000001 L311.769145,192" id="Line-Copy-16" stroke="#3A3656" sketch:type="MSShapeGroup"></path>
                        <path d="M0,384.000001 L311.769145,204" id="Line-Copy-17" stroke="#3A3656" sketch:type="MSShapeGroup"></path>
                        <path d="M0,396.000001 L311.769145,216" id="Line-Copy-18" stroke="#3A3656" sketch:type="MSShapeGroup"></path>
                        <path d="M0,408.000001 L311.769145,228" id="Line-Copy-19" stroke="#3A3656" sketch:type="MSShapeGroup"></path>
                        <path d="M0,420.000001 L311.769145,240" id="Line-Copy-20" stroke="#3A3656" sketch:type="MSShapeGroup"></path>
                        <path d="M0,432.000001 L311.769145,252" id="Line-Copy-21" stroke="#3A3656" sketch:type="MSShapeGroup"></path>
                        <path d="M0,444.000001 L311.769145,264" id="Line-Copy-22" stroke="#3A3656" sketch:type="MSShapeGroup"></path>
                        <path d="M0,456.000001 L311.769145,276" id="Line-Copy-23" stroke="#3A3656" sketch:type="MSShapeGroup"></path>
                        <path d="M0,468.000001 L311.769145,288" id="Line-Copy-24" stroke="#3A3656" sketch:type="MSShapeGroup"></path>
                        <path d="M0,480.000001 L311.769145,300" id="Line-Copy-25" stroke="#3A3656" sketch:type="MSShapeGroup"></path>
                        <path d="M0,492.000001 L311.769145,312" id="Line-Copy-26" stroke="#3A3656" sketch:type="MSShapeGroup"></path>
                        <path d="M0,504.000001 L311.769145,324" id="Line-Copy-27" stroke="#3A3656" sketch:type="MSShapeGroup"></path>
                        <path d="M0,516.000001 L311.769145,336" id="Line-Copy-28" stroke="#3A3656" sketch:type="MSShapeGroup"></path>
                        <path d="M0,528.000001 L311.769145,348" id="Line-Copy-29" stroke="#3A3656" sketch:type="MSShapeGroup"></path>
                        <path d="M0,540.000001 L311.769145,360" id="Line-Copy-30" stroke="#3A3656" sketch:type="MSShapeGroup"></path>
                        <path d="M0,348.000001 L311.769145,168" id="Line-Copy" stroke="#3A3656" sketch:type="MSShapeGroup"></path>
                        <path d="M0,336.000001 L311.769145,156" id="Line-Copy-2" stroke="#3A3656" sketch:type="MSShapeGroup"></path>
                        <path d="M0,324.000001 L311.769145,144" id="Line-Copy-3" stroke="#3A3656" sketch:type="MSShapeGroup"></path>
                        <path d="M0,312.000001 L311.769145,132" id="Line-Copy-4" stroke="#3A3656" sketch:type="MSShapeGroup"></path>
                        <path d="M0,300.000001 L311.769145,120" id="Line-Copy-5" stroke="#3A3656" sketch:type="MSShapeGroup"></path>
                        <path d="M0,288.000001 L311.769145,108" id="Line-Copy-6" stroke="#3A3656" sketch:type="MSShapeGroup"></path>
                        <path d="M0,276.000001 L311.769145,96" id="Line-Copy-7" stroke="#3A3656" sketch:type="MSShapeGroup"></path>
                        <path d="M0,264.000001 L311.769145,84" id="Line-Copy-8" stroke="#3A3656" sketch:type="MSShapeGroup"></path>
                        <path d="M0,252.000001 L311.769145,72" id="Line-Copy-9" stroke="#3A3656" sketch:type="MSShapeGroup"></path>
                        <path d="M0,240.000001 L311.769145,60" id="Line-Copy-10" stroke="#3A3656" sketch:type="MSShapeGroup"></path>
                        <path d="M0,228.000001 L311.769145,48" id="Line-Copy-11" stroke="#3A3656" sketch:type="MSShapeGroup"></path>
                        <path d="M0,216.000001 L311.769145,36" id="Line-Copy-12" stroke="#3A3656" sketch:type="MSShapeGroup"></path>
                        <path d="M0,204.000001 L311.769145,24" id="Line-Copy-13" stroke="#3A3656" sketch:type="MSShapeGroup"></path>
                        <path d="M0,192.000001 L311.769145,12" id="Line-Copy-14" stroke="#3A3656" sketch:type="MSShapeGroup"></path>
                        <path d="M0,180.000001 L311.769145,0" id="Line-Copy-15" stroke="#3A3656" sketch:type="MSShapeGroup"></path>
                    </g>
                    <g id="Lines-Copy-4" transform="translate(936.000000, 180.000000)">
                        <path d="M0,360.000001 L311.769145,180" id="Line" stroke="#3A3656" sketch:type="MSShapeGroup"></path>
                        <path d="M0,372.000001 L311.769145,192" id="Line-Copy-16" stroke="#3A3656" sketch:type="MSShapeGroup"></path>
                        <path d="M0,384.000001 L311.769145,204" id="Line-Copy-17" stroke="#3A3656" sketch:type="MSShapeGroup"></path>
                        <path d="M0,396.000001 L311.769145,216" id="Line-Copy-18" stroke="#3A3656" sketch:type="MSShapeGroup"></path>
                        <path d="M0,408.000001 L311.769145,228" id="Line-Copy-19" stroke="#3A3656" sketch:type="MSShapeGroup"></path>
                        <path d="M0,420.000001 L311.769145,240" id="Line-Copy-20" stroke="#3A3656" sketch:type="MSShapeGroup"></path>
                        <path d="M0,432.000001 L311.769145,252" id="Line-Copy-21" stroke="#3A3656" sketch:type="MSShapeGroup"></path>
                        <path d="M0,444.000001 L311.769145,264" id="Line-Copy-22" stroke="#3A3656" sketch:type="MSShapeGroup"></path>
                        <path d="M0,456.000001 L311.769145,276" id="Line-Copy-23" stroke="#3A3656" sketch:type="MSShapeGroup"></path>
                        <path d="M0,468.000001 L311.769145,288" id="Line-Copy-24" stroke="#3A3656" sketch:type="MSShapeGroup"></path>
                        <path d="M0,480.000001 L311.769145,300" id="Line-Copy-25" stroke="#3A3656" sketch:type="MSShapeGroup"></path>
                        <path d="M0,492.000001 L311.769145,312" id="Line-Copy-26" stroke="#3A3656" sketch:type="MSShapeGroup"></path>
                        <path d="M0,504.000001 L311.769145,324" id="Line-Copy-27" stroke="#3A3656" sketch:type="MSShapeGroup"></path>
                        <path d="M0,516.000001 L311.769145,336" id="Line-Copy-28" stroke="#3A3656" sketch:type="MSShapeGroup"></path>
                        <path d="M0,528.000001 L311.769145,348" id="Line-Copy-29" stroke="#3A3656" sketch:type="MSShapeGroup"></path>
                        <path d="M0,540.000001 L311.769145,360" id="Line-Copy-30" stroke="#3A3656" sketch:type="MSShapeGroup"></path>
                        <path d="M0,348.000001 L311.769145,168" id="Line-Copy" stroke="#3A3656" sketch:type="MSShapeGroup"></path>
                        <path d="M0,336.000001 L311.769145,156" id="Line-Copy-2" stroke="#3A3656" sketch:type="MSShapeGroup"></path>
                        <path d="M0,324.000001 L311.769145,144" id="Line-Copy-3" stroke="#3A3656" sketch:type="MSShapeGroup"></path>
                        <path d="M0,312.000001 L311.769145,132" id="Line-Copy-4" stroke="#3A3656" sketch:type="MSShapeGroup"></path>
                        <path d="M0,300.000001 L311.769145,120" id="Line-Copy-5" stroke="#3A3656" sketch:type="MSShapeGroup"></path>
                        <path d="M0,288.000001 L311.769145,108" id="Line-Copy-6" stroke="#3A3656" sketch:type="MSShapeGroup"></path>
                        <path d="M0,276.000001 L311.769145,96" id="Line-Copy-7" stroke="#3A3656" sketch:type="MSShapeGroup"></path>
                        <path d="M0,264.000001 L311.769145,84" id="Line-Copy-8" stroke="#3A3656" sketch:type="MSShapeGroup"></path>
                        <path d="M0,252.000001 L311.769145,72" id="Line-Copy-9" stroke="#3A3656" sketch:type="MSShapeGroup"></path>
                        <path d="M0,240.000001 L311.769145,60" id="Line-Copy-10" stroke="#3A3656" sketch:type="MSShapeGroup"></path>
                        <path d="M0,228.000001 L311.769145,48" id="Line-Copy-11" stroke="#3A3656" sketch:type="MSShapeGroup"></path>
                        <path d="M0,216.000001 L311.769145,36" id="Line-Copy-12" stroke="#3A3656" sketch:type="MSShapeGroup"></path>
                        <path d="M0,204.000001 L311.769145,24" id="Line-Copy-13" stroke="#3A3656" sketch:type="MSShapeGroup"></path>
                        <path d="M0,192.000001 L311.769145,12" id="Line-Copy-14" stroke="#3A3656" sketch:type="MSShapeGroup"></path>
                        <path d="M0,180.000001 L311.769145,0" id="Line-Copy-15" stroke="#3A3656" sketch:type="MSShapeGroup"></path>
                    </g>
                    <g id="Lines-Copy-2" transform="translate(0.000000, 420.000000)">
                        <path d="M0,360.000001 L311.769145,180" id="Line" stroke="#3A3656" sketch:type="MSShapeGroup"></path>
                        <path d="M0,372.000001 L311.769145,192" id="Line-Copy-16" stroke="#3A3656" sketch:type="MSShapeGroup"></path>
                        <path d="M0,384.000001 L311.769145,204" id="Line-Copy-17" stroke="#3A3656" sketch:type="MSShapeGroup"></path>
                        <path d="M0,396.000001 L311.769145,216" id="Line-Copy-18" stroke="#3A3656" sketch:type="MSShapeGroup"></path>
                        <path d="M0,408.000001 L311.769145,228" id="Line-Copy-19" stroke="#3A3656" sketch:type="MSShapeGroup"></path>
                        <path d="M0,420.000001 L311.769145,240" id="Line-Copy-20" stroke="#3A3656" sketch:type="MSShapeGroup"></path>
                        <path d="M0,432.000001 L311.769145,252" id="Line-Copy-21" stroke="#3A3656" sketch:type="MSShapeGroup"></path>
                        <path d="M0,444.000001 L311.769145,264" id="Line-Copy-22" stroke="#3A3656" sketch:type="MSShapeGroup"></path>
                        <path d="M0,456.000001 L311.769145,276" id="Line-Copy-23" stroke="#3A3656" sketch:type="MSShapeGroup"></path>
                        <path d="M0,468.000001 L311.769145,288" id="Line-Copy-24" stroke="#3A3656" sketch:type="MSShapeGroup"></path>
                        <path d="M0,480.000001 L311.769145,300" id="Line-Copy-25" stroke="#3A3656" sketch:type="MSShapeGroup"></path>
                        <path d="M0,492.000001 L311.769145,312" id="Line-Copy-26" stroke="#3A3656" sketch:type="MSShapeGroup"></path>
                        <path d="M0,504.000001 L311.769145,324" id="Line-Copy-27" stroke="#3A3656" sketch:type="MSShapeGroup"></path>
                        <path d="M0,516.000001 L311.769145,336" id="Line-Copy-28" stroke="#3A3656" sketch:type="MSShapeGroup"></path>
                        <path d="M0,528.000001 L311.769145,348" id="Line-Copy-29" stroke="#3A3656" sketch:type="MSShapeGroup"></path>
                        <path d="M0,540.000001 L311.769145,360" id="Line-Copy-30" stroke="#3A3656" sketch:type="MSShapeGroup"></path>
                        <path d="M0,348.000001 L311.769145,168" id="Line-Copy" stroke="#3A3656" sketch:type="MSShapeGroup"></path>
                        <path d="M0,336.000001 L311.769145,156" id="Line-Copy-2" stroke="#3A3656" sketch:type="MSShapeGroup"></path>
                        <path d="M0,324.000001 L311.769145,144" id="Line-Copy-3" stroke="#3A3656" sketch:type="MSShapeGroup"></path>
                        <path d="M0,312.000001 L311.769145,132" id="Line-Copy-4" stroke="#3A3656" sketch:type="MSShapeGroup"></path>
                        <path d="M0,300.000001 L311.769145,120" id="Line-Copy-5" stroke="#3A3656" sketch:type="MSShapeGroup"></path>
                        <path d="M0,288.000001 L311.769145,108" id="Line-Copy-6" stroke="#3A3656" sketch:type="MSShapeGroup"></path>
                        <path d="M0,276.000001 L311.769145,96" id="Line-Copy-7" stroke="#3A3656" sketch:type="MSShapeGroup"></path>
                        <path d="M0,264.000001 L311.769145,84" id="Line-Copy-8" stroke="#3A3656" sketch:type="MSShapeGroup"></path>
                        <path d="M0,252.000001 L311.769145,72" id="Line-Copy-9" stroke="#3A3656" sketch:type="MSShapeGroup"></path>
                        <path d="M0,240.000001 L311.769145,60" id="Line-Copy-10" stroke="#3A3656" sketch:type="MSShapeGroup"></path>
                        <path d="M0,228.000001 L311.769145,48" id="Line-Copy-11" stroke="#3A3656" sketch:type="MSShapeGroup"></path>
                        <path d="M0,216.000001 L311.769145,36" id="Line-Copy-12" stroke="#3A3656" sketch:type="MSShapeGroup"></path>
                        <path d="M0,204.000001 L311.769145,24" id="Line-Copy-13" stroke="#3A3656" sketch:type="MSShapeGroup"></path>
                        <path d="M0,192.000001 L311.769145,12" id="Line-Copy-14" stroke="#3A3656" sketch:type="MSShapeGroup"></path>
                        <path d="M0,180.000001 L311.769145,0" id="Line-Copy-15" stroke="#3A3656" sketch:type="MSShapeGroup"></path>
                    </g>
                    <g id="Lines-Copy-5" transform="translate(624.000000, 264.000000)">
                        <path d="M0,360.000001 L311.769145,180" id="Line" stroke="#3A3656" sketch:type="MSShapeGroup"></path>
                        <path d="M0,372.000001 L311.769145,192" id="Line-Copy-16" stroke="#3A3656" sketch:type="MSShapeGroup"></path>
                        <path d="M0,384.000001 L311.769145,204" id="Line-Copy-17" stroke="#3A3656" sketch:type="MSShapeGroup"></path>
                        <path d="M0,396.000001 L311.769145,216" id="Line-Copy-18" stroke="#3A3656" sketch:type="MSShapeGroup"></path>
                        <path d="M0,408.000001 L311.769145,228" id="Line-Copy-19" stroke="#3A3656" sketch:type="MSShapeGroup"></path>
                        <path d="M0,420.000001 L311.769145,240" id="Line-Copy-20" stroke="#3A3656" sketch:type="MSShapeGroup"></path>
                        <path d="M0,432.000001 L311.769145,252" id="Line-Copy-21" stroke="#3A3656" sketch:type="MSShapeGroup"></path>
                        <path d="M0,444.000001 L311.769145,264" id="Line-Copy-22" stroke="#3A3656" sketch:type="MSShapeGroup"></path>
                        <path d="M0,456.000001 L311.769145,276" id="Line-Copy-23" stroke="#3A3656" sketch:type="MSShapeGroup"></path>
                        <path d="M0,468.000001 L311.769145,288" id="Line-Copy-24" stroke="#3A3656" sketch:type="MSShapeGroup"></path>
                        <path d="M0,480.000001 L311.769145,300" id="Line-Copy-25" stroke="#3A3656" sketch:type="MSShapeGroup"></path>
                        <path d="M0,492.000001 L311.769145,312" id="Line-Copy-26" stroke="#3A3656" sketch:type="MSShapeGroup"></path>
                        <path d="M0,504.000001 L311.769145,324" id="Line-Copy-27" stroke="#3A3656" sketch:type="MSShapeGroup"></path>
                        <path d="M0,516.000001 L311.769145,336" id="Line-Copy-28" stroke="#3A3656" sketch:type="MSShapeGroup"></path>
                        <path d="M0,528.000001 L311.769145,348" id="Line-Copy-29" stroke="#3A3656" sketch:type="MSShapeGroup"></path>
                        <path d="M0,540.000001 L311.769145,360" id="Line-Copy-30" stroke="#3A3656" sketch:type="MSShapeGroup"></path>
                        <path d="M0,348.000001 L311.769145,168" id="Line-Copy" stroke="#3A3656" sketch:type="MSShapeGroup"></path>
                        <path d="M0,336.000001 L311.769145,156" id="Line-Copy-2" stroke="#3A3656" sketch:type="MSShapeGroup"></path>
                        <path d="M0,324.000001 L311.769145,144" id="Line-Copy-3" stroke="#3A3656" sketch:type="MSShapeGroup"></path>
                        <path d="M0,312.000001 L311.769145,132" id="Line-Copy-4" stroke="#3A3656" sketch:type="MSShapeGroup"></path>
                        <path d="M0,300.000001 L311.769145,120" id="Line-Copy-5" stroke="#3A3656" sketch:type="MSShapeGroup"></path>
                        <path d="M0,288.000001 L311.769145,108" id="Line-Copy-6" stroke="#3A3656" sketch:type="MSShapeGroup"></path>
                        <path d="M0,276.000001 L311.769145,96" id="Line-Copy-7" stroke="#3A3656" sketch:type="MSShapeGroup"></path>
                        <path d="M0,264.000001 L311.769145,84" id="Line-Copy-8" stroke="#3A3656" sketch:type="MSShapeGroup"></path>
                        <path d="M0,252.000001 L311.769145,72" id="Line-Copy-9" stroke="#3A3656" sketch:type="MSShapeGroup"></path>
                        <path d="M0,240.000001 L311.769145,60" id="Line-Copy-10" stroke="#3A3656" sketch:type="MSShapeGroup"></path>
                        <path d="M0,228.000001 L311.769145,48" id="Line-Copy-11" stroke="#3A3656" sketch:type="MSShapeGroup"></path>
                        <path d="M0,216.000001 L311.769145,36" id="Line-Copy-12" stroke="#3A3656" sketch:type="MSShapeGroup"></path>
                        <path d="M0,204.000001 L311.769145,24" id="Line-Copy-13" stroke="#3A3656" sketch:type="MSShapeGroup"></path>
                        <path d="M0,192.000001 L311.769145,12" id="Line-Copy-14" stroke="#3A3656" sketch:type="MSShapeGroup"></path>
                        <path d="M0,180.000001 L311.769145,0" id="Line-Copy-15" stroke="#3A3656" sketch:type="MSShapeGroup"></path>
                    </g>
                    <g id="Lines-Copy" transform="translate(312.000000, 0.000000)">
                        <path d="M0,360.000001 L311.769145,180" id="Line" stroke="#3A3656" sketch:type="MSShapeGroup"></path>
                        <path d="M0,372.000001 L311.769145,192" id="Line-Copy-16" stroke="#3A3656" sketch:type="MSShapeGroup"></path>
                        <path d="M0,384.000001 L311.769145,204" id="Line-Copy-17" stroke="#3A3656" sketch:type="MSShapeGroup"></path>
                        <path d="M0,396.000001 L311.769145,216" id="Line-Copy-18" stroke="#3A3656" sketch:type="MSShapeGroup"></path>
                        <path d="M0,408.000001 L311.769145,228" id="Line-Copy-19" stroke="#3A3656" sketch:type="MSShapeGroup"></path>
                        <path d="M0,420.000001 L311.769145,240" id="Line-Copy-20" stroke="#3A3656" sketch:type="MSShapeGroup"></path>
                        <path d="M0,432.000001 L311.769145,252" id="Line-Copy-21" stroke="#3A3656" sketch:type="MSShapeGroup"></path>
                        <path d="M0,444.000001 L311.769145,264" id="Line-Copy-22" stroke="#3A3656" sketch:type="MSShapeGroup"></path>
                        <path d="M0,456.000001 L311.769145,276" id="Line-Copy-23" stroke="#3A3656" sketch:type="MSShapeGroup"></path>
                        <path d="M0,468.000001 L311.769145,288" id="Line-Copy-24" stroke="#3A3656" sketch:type="MSShapeGroup"></path>
                        <path d="M0,480.000001 L311.769145,300" id="Line-Copy-25" stroke="#3A3656" sketch:type="MSShapeGroup"></path>
                        <path d="M0,492.000001 L311.769145,312" id="Line-Copy-26" stroke="#3A3656" sketch:type="MSShapeGroup"></path>
                        <path d="M0,504.000001 L311.769145,324" id="Line-Copy-27" stroke="#3A3656" sketch:type="MSShapeGroup"></path>
                        <path d="M0,516.000001 L311.769145,336" id="Line-Copy-28" stroke="#3A3656" sketch:type="MSShapeGroup"></path>
                        <path d="M0,528.000001 L311.769145,348" id="Line-Copy-29" stroke="#3A3656" sketch:type="MSShapeGroup"></path>
                        <path d="M0,540.000001 L311.769145,360" id="Line-Copy-30" stroke="#3A3656" sketch:type="MSShapeGroup"></path>
                        <path d="M0,348.000001 L311.769145,168" id="Line-Copy" stroke="#3A3656" sketch:type="MSShapeGroup"></path>
                        <path d="M0,336.000001 L311.769145,156" id="Line-Copy-2" stroke="#3A3656" sketch:type="MSShapeGroup"></path>
                        <path d="M0,324.000001 L311.769145,144" id="Line-Copy-3" stroke="#3A3656" sketch:type="MSShapeGroup"></path>
                        <path d="M0,312.000001 L311.769145,132" id="Line-Copy-4" stroke="#3A3656" sketch:type="MSShapeGroup"></path>
                        <path d="M0,300.000001 L311.769145,120" id="Line-Copy-5" stroke="#3A3656" sketch:type="MSShapeGroup"></path>
                        <path d="M0,288.000001 L311.769145,108" id="Line-Copy-6" stroke="#3A3656" sketch:type="MSShapeGroup"></path>
                        <path d="M0,276.000001 L311.769145,96" id="Line-Copy-7" stroke="#3A3656" sketch:type="MSShapeGroup"></path>
                        <path d="M0,264.000001 L311.769145,84" id="Line-Copy-8" stroke="#3A3656" sketch:type="MSShapeGroup"></path>
                        <path d="M0,252.000001 L311.769145,72" id="Line-Copy-9" stroke="#3A3656" sketch:type="MSShapeGroup"></path>
                        <path d="M0,240.000001 L311.769145,60" id="Line-Copy-10" stroke="#3A3656" sketch:type="MSShapeGroup"></path>
                        <path d="M0,228.000001 L311.769145,48" id="Line-Copy-11" stroke="#3A3656" sketch:type="MSShapeGroup"></path>
                        <path d="M0,216.000001 L311.769145,36" id="Line-Copy-12" stroke="#3A3656" sketch:type="MSShapeGroup"></path>
                        <path d="M0,204.000001 L311.769145,24" id="Line-Copy-13" stroke="#3A3656" sketch:type="MSShapeGroup"></path>
                        <path d="M0,192.000001 L311.769145,12" id="Line-Copy-14" stroke="#3A3656" sketch:type="MSShapeGroup"></path>
                    </g>
                    <g id="Lines-Copy-3" transform="translate(312.000000, 372.000000)">
                        <path d="M0,360.000001 L311.769145,180" id="Line" stroke="#3A3656" sketch:type="MSShapeGroup"></path>
                        <path d="M0,372.000001 L311.769145,192" id="Line-Copy-16" stroke="#3A3656" sketch:type="MSShapeGroup"></path>
                        <path d="M0,384.000001 L311.769145,204" id="Line-Copy-17" stroke="#3A3656" sketch:type="MSShapeGroup"></path>
                        <path d="M0,396.000001 L311.769145,216" id="Line-Copy-18" stroke="#3A3656" sketch:type="MSShapeGroup"></path>
                        <path d="M0,408.000001 L311.769145,228" id="Line-Copy-19" stroke="#3A3656" sketch:type="MSShapeGroup"></path>
                        <path d="M0,420.000001 L311.769145,240" id="Line-Copy-20" stroke="#3A3656" sketch:type="MSShapeGroup"></path>
                        <path d="M0,432.000001 L311.769145,252" id="Line-Copy-21" stroke="#3A3656" sketch:type="MSShapeGroup"></path>
                        <path d="M0,444.000001 L311.769145,264" id="Line-Copy-22" stroke="#3A3656" sketch:type="MSShapeGroup"></path>
                        <path d="M0,456.000001 L311.769145,276" id="Line-Copy-23" stroke="#3A3656" sketch:type="MSShapeGroup"></path>
                        <path d="M0,468.000001 L311.769145,288" id="Line-Copy-24" stroke="#3A3656" sketch:type="MSShapeGroup"></path>
                        <path d="M0,480.000001 L311.769145,300" id="Line-Copy-25" stroke="#3A3656" sketch:type="MSShapeGroup"></path>
                        <path d="M0,492.000001 L311.769145,312" id="Line-Copy-26" stroke="#3A3656" sketch:type="MSShapeGroup"></path>
                        <path d="M0,504.000001 L311.769145,324" id="Line-Copy-27" stroke="#3A3656" sketch:type="MSShapeGroup"></path>
                        <path d="M0,516.000001 L311.769145,336" id="Line-Copy-28" stroke="#3A3656" sketch:type="MSShapeGroup"></path>
                        <path d="M0,528.000001 L311.769145,348" id="Line-Copy-29" stroke="#3A3656" sketch:type="MSShapeGroup"></path>
                        <path d="M0,540.000001 L311.769145,360" id="Line-Copy-30" stroke="#3A3656" sketch:type="MSShapeGroup"></path>
                        <path d="M0,348.000001 L311.769145,168" id="Line-Copy" stroke="#3A3656" sketch:type="MSShapeGroup"></path>
                        <path d="M0,336.000001 L311.769145,156" id="Line-Copy-2" stroke="#3A3656" sketch:type="MSShapeGroup"></path>
                        <path d="M0,324.000001 L311.769145,144" id="Line-Copy-3" stroke="#3A3656" sketch:type="MSShapeGroup"></path>
                        <path d="M0,312.000001 L311.769145,132" id="Line-Copy-4" stroke="#3A3656" sketch:type="MSShapeGroup"></path>
                        <path d="M0,300.000001 L311.769145,120" id="Line-Copy-5" stroke="#3A3656" sketch:type="MSShapeGroup"></path>
                        <path d="M0,288.000001 L311.769145,108" id="Line-Copy-6" stroke="#3A3656" sketch:type="MSShapeGroup"></path>
                        <path d="M0,276.000001 L311.769145,96" id="Line-Copy-7" stroke="#3A3656" sketch:type="MSShapeGroup"></path>
                        <path d="M0,264.000001 L311.769145,84" id="Line-Copy-8" stroke="#3A3656" sketch:type="MSShapeGroup"></path>
                        <path d="M0,252.000001 L311.769145,72" id="Line-Copy-9" stroke="#3A3656" sketch:type="MSShapeGroup"></path>
                        <path d="M0,240.000001 L311.769145,60" id="Line-Copy-10" stroke="#3A3656" sketch:type="MSShapeGroup"></path>
                        <path d="M0,228.000001 L311.769145,48" id="Line-Copy-11" stroke="#3A3656" sketch:type="MSShapeGroup"></path>
                        <path d="M0,216.000001 L311.769145,36" id="Line-Copy-12" stroke="#3A3656" sketch:type="MSShapeGroup"></path>
                        <path d="M0,204.000001 L311.769145,24" id="Line-Copy-13" stroke="#3A3656" sketch:type="MSShapeGroup"></path>
                        <path d="M0,192.000001 L311.769145,12" id="Line-Copy-14" stroke="#3A3656" sketch:type="MSShapeGroup"></path>
                        <path d="M0,180.000001 L311.769145,0" id="Line-Copy-15" stroke="#3A3656" sketch:type="MSShapeGroup"></path>
                    </g>
                </g>
            </g>
        </g>
    </g>
</svg>