<?xml version="1.0" encoding="utf-8"?>
<!-- Generator: Adobe Illustrator 16.0.0, SVG Export Plug-In . SVG Version: 6.00 Build 0)  -->
<!DOCTYPE svg PUBLIC "-//W3C//DTD SVG 1.1//EN" "http://www.w3.org/Graphics/SVG/1.1/DTD/svg11.dtd">
<svg version="1.1" id="Layer_1" xmlns="http://www.w3.org/2000/svg" xmlns:xlink="http://www.w3.org/1999/xlink" x="0px" y="0px"
	 width="220px" height="75px" viewBox="0 0 220 75" enable-background="new 0 0 220 75" xml:space="preserve">
<g>
	<g>
		<path fill="none" d="M57.175,2.025c6.25,0,12.498,0,18.749,0c0,23.651,0,47.302,0,70.949c-23.651,0-47.301,0-70.952,0
			c0-23.647,0-47.298,0-70.949c14.978,0,29.954,0,44.931,0c-0.64,0.06-1.276,0.156-1.912,0.174
			c-0.506,0.013-0.736,0.218-0.787,0.708c-0.054,0.534-0.11,1.072-0.212,1.597c-0.465,2.413-1.292,4.653-3.368,6.152
			c-3.198,2.312-8.129,3.043-11.547-1.035c-0.927-1.106-1.691-2.36-2.453-3.593c-0.312-0.506-0.599-0.678-1.162-0.492
			c-1.584,0.523-3.193,0.981-4.768,1.531c-6.174,2.155-12.031,4.988-17.588,8.437c-0.904,0.56-1.029,0.898-0.626,1.785
			c2.285,5.021,4.584,10.039,6.882,15.059c0.131,0.284,0.307,0.543,0.487,0.865c3.073-1.539,6.065-3.036,9.159-4.584
			c2.051,8.489,4.068,16.837,6.11,25.284c1.13-0.547,2.089-1.029,3.062-1.479c3.921-1.813,7.989-3.069,12.335-3.253
			c2.825-0.12,5.602,0.107,8.258,1.161c1.809,0.713,2.341,2.364,1.289,4.001c-0.682,1.06-1.593,1.907-2.664,2.551
			c-4.467,2.686-9.347,3.611-14.496,3.296c-0.465-0.028-1.019-0.054-1.352-0.597c0.122-0.107,0.207-0.222,0.318-0.271
			c1.18-0.519,2.332-1.125,3.556-1.521c2.427-0.788,4.949-1.014,7.492-0.987c1.953,0.022,3.466-0.849,4.704-2.271
			c0.236-0.272,0.373-0.629,0.571-0.969c-0.21-0.11-0.322-0.187-0.446-0.226c-0.253-0.088-0.514-0.169-0.774-0.223
			c-5.472-1.115-10.765-0.584-15.86,1.739c-1.321,0.603-2.461,1.441-3.354,2.593c-1.513,1.947-1.105,4.51,0.992,5.813
			c0.695,0.433,1.502,0.753,2.299,0.941c2.172,0.512,4.389,0.455,6.591,0.263c3.857-0.336,7.476-1.519,10.936-3.231
			c0.367-0.183,0.763-0.312,1.177-0.48c0.041,1.11-0.574,2.337-1.549,3.153c-1.447,1.204-3.08,2.121-4.879,2.618
			c-2.46,0.68-4.963,1.205-7.46,1.745c-0.556,0.124-0.793,0.326-0.744,0.9c0.079,0.938,0.139,1.879,0.176,2.818
			c0.021,0.54,0.278,0.709,0.778,0.626c3.375-0.568,6.742-1.155,9.942-2.432c2.255-0.898,4.281-2.146,5.93-3.952
			c1.702-1.869,2.598-4.049,2.222-6.578c-0.243-1.655-0.193-3.176,0.359-4.801c0.769-2.259,0.363-4.484-1.201-6.387
			c-1.322-1.609-3.117-2.452-5.082-2.956c-3.488-0.899-7.024-0.901-10.573-0.411c-2.894,0.4-5.675,1.239-8.44,2.148
			c-0.475,0.158-0.963,0.281-1.527,0.443c-1.979-8.194-3.934-16.289-5.906-24.456c-0.401,0.159-0.701,0.271-0.991,0.396
			c-2.812,1.233-5.62,2.474-8.431,3.705c-0.77,0.333-0.797,0.322-1.141-0.439c-1.24-2.719-2.479-5.438-3.717-8.157
			c-0.426-0.93-0.431-0.998,0.5-1.503c1.844-1.002,3.657-2.082,5.574-2.923c3.053-1.341,6.178-2.517,9.27-3.771
			c0.734-0.297,1.31-0.087,1.795,0.485c0.157,0.186,0.307,0.377,0.461,0.565c5.355,6.607,13.615,5.566,18.115,2.134
			c2.104-1.605,3.405-3.781,4.262-6.25c0.5-1.439,0.532-1.443,2.077-1.466c3.964-0.061,7.909,0.207,11.841,0.713
			c1.758,0.224,3.51,0.527,5.256,0.844c1.101,0.201,1.309,0.552,1.089,1.629c-0.2,0.977-0.438,1.945-0.633,2.922
			c-0.345,1.715-0.668,3.434-1.01,5.149c-0.204,1.028-0.618,1.421-1.481,1.355c-2.76-0.224-5.52-0.479-8.283-0.688
			c-0.844-0.063-1.697-0.01-2.586-0.01c-0.07,0.962-0.155,1.841-0.191,2.725c-0.137,3.2-0.254,6.399-0.385,9.603
			c-0.059,1.504-0.141,3.01-0.205,4.514c-0.089,2.125-0.168,4.25-0.254,6.376c-0.025,0.619,0.234,1.088,0.746,1.433
			c0.849,0.565,1.697,1.14,2.551,1.704c0.119,0.079,0.275,0.101,0.496,0.175c0.022-0.4,0.043-0.717,0.058-1.036
			c0.07-1.692,0.127-3.388,0.21-5.079c0.252-5.192,0.517-10.377,0.769-15.565c0.046-0.972,0.034-0.995,1.026-0.882
			c2.459,0.285,4.916,0.597,7.375,0.892c0.977,0.12,1.958,0.227,2.999,0.346c1.237-6.131,2.46-12.17,3.687-18.237
			c-0.455-0.124-0.735-0.21-1.021-0.278c-5.486-1.297-11.029-2.196-16.669-2.447C57.692,2.158,57.434,2.077,57.175,2.025z"/>
		<path fill-rule="evenodd" clip-rule="evenodd" fill="#FFFFFF" d="M57.175,2.025c0.259,0.052,0.518,0.133,0.779,0.149
			c5.64,0.251,11.183,1.15,16.669,2.447c0.286,0.068,0.566,0.154,1.021,0.278c-1.227,6.067-2.449,12.106-3.687,18.237
			c-1.041-0.119-2.022-0.226-2.999-0.346c-2.459-0.295-4.916-0.606-7.375-0.892c-0.992-0.113-0.98-0.09-1.026,0.882
			c-0.252,5.188-0.517,10.373-0.769,15.565c-0.083,1.691-0.14,3.387-0.21,5.079c-0.015,0.319-0.035,0.636-0.058,1.036
			c-0.221-0.074-0.377-0.096-0.496-0.175c-0.854-0.564-1.702-1.139-2.551-1.704c-0.512-0.345-0.771-0.813-0.746-1.433
			c0.086-2.126,0.165-4.251,0.254-6.376c0.064-1.504,0.146-3.01,0.205-4.514c0.131-3.203,0.248-6.402,0.385-9.603
			c0.036-0.884,0.121-1.763,0.191-2.725c0.889,0,1.742-0.054,2.586,0.01c2.764,0.21,5.523,0.465,8.283,0.688
			c0.863,0.065,1.277-0.327,1.481-1.355c0.342-1.716,0.665-3.435,1.01-5.149c0.194-0.977,0.433-1.945,0.633-2.922
			c0.22-1.077,0.012-1.428-1.089-1.629c-1.746-0.316-3.498-0.62-5.256-0.844C60.48,6.228,56.535,5.96,52.571,6.021
			c-1.545,0.022-1.577,0.026-2.077,1.466c-0.856,2.469-2.158,4.645-4.262,6.25c-4.5,3.433-12.76,4.474-18.115-2.134
			c-0.154-0.188-0.304-0.38-0.461-0.565c-0.485-0.572-1.061-0.782-1.795-0.485c-3.092,1.255-6.217,2.431-9.27,3.771
			c-1.917,0.841-3.73,1.921-5.574,2.923c-0.931,0.505-0.926,0.573-0.5,1.503c1.238,2.72,2.477,5.438,3.717,8.157
			c0.344,0.762,0.371,0.772,1.141,0.439c2.811-1.231,5.619-2.472,8.431-3.705c0.29-0.125,0.59-0.236,0.991-0.396
			c1.973,8.167,3.928,16.262,5.906,24.456c0.564-0.162,1.053-0.285,1.527-0.443c2.766-0.909,5.547-1.748,8.44-2.148
			c3.549-0.49,7.085-0.488,10.573,0.411c1.965,0.504,3.76,1.347,5.082,2.956c1.564,1.902,1.97,4.128,1.201,6.387
			c-0.553,1.625-0.603,3.146-0.359,4.801c0.376,2.529-0.52,4.709-2.222,6.578c-1.648,1.807-3.675,3.054-5.93,3.952
			c-3.2,1.276-6.567,1.863-9.942,2.432c-0.5,0.083-0.729,0.122-0.729,0.122l-0.285-4.289c0,0,0.248-0.054,0.804-0.178
			c2.497-0.54,5-1.065,7.46-1.745c1.799-0.497,3.432-1.414,4.879-2.618c0.975-0.816,1.59-2.043,1.549-3.153
			c-0.414,0.168-0.81,0.298-1.177,0.48c-3.46,1.713-7.078,2.896-10.936,3.231c-2.202,0.192-4.419,0.249-6.591-0.263
			c-0.797-0.188-1.604-0.509-2.299-0.941c-2.098-1.304-2.505-3.866-0.992-5.813c0.893-1.151,2.032-1.99,3.354-2.593
			c5.096-2.323,10.389-2.854,15.86-1.739c0.261,0.054,0.521,0.135,0.774,0.223c0.124,0.039,0.236,0.115,0.446,0.226
			c-0.198,0.34-0.335,0.696-0.571,0.969c-1.238,1.423-2.751,2.294-4.704,2.271c-2.543-0.026-5.065,0.199-7.492,0.987
			c-1.224,0.396-2.376,1.002-3.556,1.521c-0.111,0.049-0.196,0.163-0.318,0.271c0.333,0.543,0.887,0.568,1.352,0.597
			c5.149,0.315,10.029-0.61,14.496-3.296c1.071-0.644,1.982-1.491,2.664-2.551c1.052-1.637,0.52-3.288-1.289-4.001
			c-2.656-1.054-5.433-1.281-8.258-1.161c-4.346,0.184-8.414,1.439-12.335,3.253c-0.974,0.449-1.933,0.932-3.062,1.479
			c-2.042-8.447-4.06-16.795-6.11-25.284c-3.094,1.548-6.086,3.045-9.159,4.584c-0.181-0.322-0.356-0.581-0.487-0.865
			c-2.298-5.02-4.597-10.037-6.882-15.059c-0.403-0.887-0.278-1.226,0.626-1.785c5.557-3.448,11.414-6.281,17.588-8.437
			c1.574-0.55,3.184-1.008,4.768-1.531c0.563-0.186,0.85-0.014,1.162,0.492c0.762,1.232,1.526,2.486,2.453,3.593
			c3.418,4.078,8.349,3.348,11.547,1.035c2.076-1.499,2.903-3.739,3.368-6.152c0.102-0.524,0.158-1.062,0.212-1.597
			c0.051-0.49,0.281-0.695,0.787-0.708c0.636-0.018,1.272-0.114,1.912-0.174C52.326,2.025,54.751,2.025,57.175,2.025z"/>
	</g>
	<g>
		<path fill="#FFFFFF" d="M76.849,44.019V33.951h-2.887v-3.283h2.887v-4.762h3.788v4.762h3.536v3.283h-3.536v9.129
			c0,1.19,0.577,2.093,1.659,2.093c0.722,0,1.372-0.325,1.66-0.649l0.902,2.885c-0.686,0.614-1.805,1.119-3.536,1.119
			C78.363,48.527,76.849,46.939,76.849,44.019z"/>
		<path fill="#FFFFFF" d="M85.437,39.363c0-5.052,3.679-9.128,8.84-9.128c5.23,0,8.55,3.97,8.55,9.453v0.938H89.404
			c0.29,2.598,2.236,4.799,5.521,4.799c1.731,0,3.717-0.685,4.979-1.949l1.73,2.491c-1.768,1.66-4.329,2.561-7.07,2.561
			C89.296,48.527,85.437,44.885,85.437,39.363z M94.239,33.338c-3.211,0-4.728,2.488-4.87,4.583h9.812
			C99.074,35.863,97.668,33.338,94.239,33.338z"/>
		<path fill="#FFFFFF" d="M104.451,39.363c0-5.052,3.682-9.128,8.841-9.128c5.231,0,8.552,3.97,8.552,9.453v0.938h-13.422
			c0.287,2.598,2.236,4.799,5.521,4.799c1.73,0,3.715-0.685,4.978-1.949l1.733,2.491c-1.769,1.66-4.33,2.561-7.073,2.561
			C108.312,48.527,104.451,44.885,104.451,39.363z M113.256,33.338c-3.211,0-4.727,2.488-4.871,4.583h9.814
			C118.091,35.863,116.684,33.338,113.256,33.338z"/>
		<path fill="#FFFFFF" d="M123.035,45.785l1.733-2.705c1.226,1.262,3.644,2.418,5.88,2.418c2.273,0,3.463-0.939,3.463-2.31
			c0-3.428-10.533-0.975-10.533-7.685c0-2.852,2.453-5.269,6.854-5.269c2.959,0,5.195,1.047,6.747,2.417l-1.588,2.67
			c-1.046-1.155-2.957-2.093-5.159-2.093c-1.985,0-3.211,0.938-3.211,2.165c0,3.066,10.535,0.758,10.535,7.686
			c0,3.103-2.562,5.447-7.252,5.447C127.51,48.527,124.84,47.553,123.035,45.785z"/>
		<path fill="#FFFFFF" d="M144.252,45.678v9.057h-3.787V30.668h3.787v2.383c1.3-1.732,3.32-2.815,5.593-2.815
			c4.511,0,7.722,3.392,7.722,9.128s-3.211,9.164-7.722,9.164C147.645,48.527,145.695,47.518,144.252,45.678z M153.67,39.363
			c0-3.392-1.949-5.773-4.943-5.773c-1.768,0-3.607,1.012-4.475,2.31v6.892c0.83,1.298,2.707,2.382,4.475,2.382
			C151.721,45.173,153.67,42.756,153.67,39.363z"/>
		<path fill="#FFFFFF" d="M160.274,48.096V30.668h3.789v2.527c1.335-1.663,3.428-2.96,5.665-2.96v3.751
			c-0.324-0.07-0.686-0.106-1.156-0.106c-1.622,0-3.751,1.081-4.509,2.345v11.871H160.274z"/>
		<path fill="#FFFFFF" d="M171.28,26.194c0-1.3,1.046-2.346,2.346-2.346c1.298,0,2.345,1.046,2.345,2.346
			c0,1.298-1.047,2.346-2.345,2.346C172.326,28.54,171.28,27.492,171.28,26.194z M171.713,48.096V30.668h3.789v17.428H171.713z"/>
		<path fill="#FFFFFF" d="M191.125,48.096V37.199c0-2.742-1.408-3.609-3.536-3.609c-1.911,0-3.571,1.155-4.474,2.31v12.196h-3.788
			V30.668h3.788v2.346c1.155-1.371,3.428-2.778,6.17-2.778c3.752,0,5.628,2.019,5.628,5.591v12.27H191.125z"/>
		<path fill="#FFFFFF" d="M198.523,52.569l1.769-2.742c1.442,1.623,3.247,2.236,5.556,2.236c2.489,0,5.16-1.154,5.16-4.871v-1.984
			c-1.334,1.769-3.319,2.923-5.593,2.923c-4.438,0-7.722-3.211-7.722-8.949c0-5.663,3.211-8.946,7.722-8.946
			c2.2,0,4.186,0.974,5.593,2.85v-2.417h3.788v16.524c0,6.278-4.69,7.974-8.948,7.974C202.889,55.166,200.688,54.517,198.523,52.569
			z M211.008,42.432v-6.532c-0.867-1.262-2.707-2.31-4.474-2.31c-3.032,0-4.943,2.236-4.943,5.592c0,3.356,1.911,5.559,4.943,5.559
			C208.301,44.74,210.141,43.693,211.008,42.432z"/>
	</g>
</g>
<g>
</g>
<g>
</g>
<g>
</g>
<g>
</g>
<g>
</g>
<g>
</g>
<g>
</g>
<g>
</g>
<g>
</g>
<g>
</g>
<g>
</g>
<g>
</g>
<g>
</g>
<g>
</g>
<g>
</g>
</svg>
