<?xml version="1.0" encoding="UTF-8" standalone="no"?>
<svg width="1277px" height="216px" viewBox="0 0 1277 216" version="1.1" xmlns="http://www.w3.org/2000/svg" xmlns:xlink="http://www.w3.org/1999/xlink" xmlns:sketch="http://www.bohemiancoding.com/sketch/ns">
    <!-- Generator: Sketch 3.5.1 (25234) - http://www.bohemiancoding.com/sketch -->
    <title>Group 3</title>
    <desc>Created with Sketch.</desc>
    <defs>
        <path id="path-1" d="M0.736354718,0.00160257893 C0.736354718,0.00160257893 40.7931233,234.84311 185.904436,94.3668023 C331.015748,-46.1095056 382.744178,41.8578354 412.987764,78.5056694 C443.23135,115.153503 478.934719,159.004547 549.181886,78.505669 C628.443084,-12.3227277 725.629482,53.9128127 813.864284,65.5995941 C849.316997,70.2953388 952.496242,69.4792283 985.165615,0.0016025789 C985.16731,-0.00200322364 0.736354718,0.00160257893 0.736354718,0.00160257893 Z"></path>
    </defs>
    <g id="Page-1" stroke="none" stroke-width="1" fill="none" fill-rule="evenodd" sketch:type="MSPage">
        <g id="Artboard-1" sketch:type="MSArtboardGroup">
            <g id="Group-3" sketch:type="MSLayerGroup" transform="translate(-52.000000, -156.000000)">
                <g id="Group-2-Copy-2" transform="translate(345.000000, 156.000000)">
                    <mask id="mask-2" sketch:name="Mask" fill="white">
                        <use xlink:href="#path-1"></use>
                    </mask>
                    <use id="Mask" sketch:type="MSShapeGroup" xlink:href="#path-1"></use>
                    <g mask="url(#mask-2)" stroke-linecap="square">
                        <g transform="translate(492.000000, 0.339653) rotate(-30.000000) translate(-492.000000, -0.339653) translate(-84.500000, -379.660347)">
                            <g id="Group" transform="translate(-0.000000, -0.000000)">
                                <path d="M9.5,1.5 L9.5,379.5" id="Line-Copy-47" stroke="#C3C3C3" sketch:type="MSShapeGroup"></path>
                                <path d="M45.5,1.5 L45.5,379.5" id="Line-Copy-51" stroke="#C3C3C3" sketch:type="MSShapeGroup"></path>
                                <path d="M81.5,1.5 L81.5,379.5" id="Line-Copy-55" stroke="#C3C3C3" sketch:type="MSShapeGroup"></path>
                                <path d="M117.5,1.5 L117.5,379.5" id="Line-Copy-59" stroke="#C3C3C3" sketch:type="MSShapeGroup"></path>
                                <path d="M153.5,1.5 L153.5,379.5" id="Line-Copy-63" stroke="#C3C3C3" sketch:type="MSShapeGroup"></path>
                                <path d="M189.5,1.5 L189.5,379.5" id="Line-Copy-67" stroke="#C3C3C3" sketch:type="MSShapeGroup"></path>
                                <path d="M225.5,1.5 L225.5,379.5" id="Line-Copy-71" stroke="#C3C3C3" sketch:type="MSShapeGroup"></path>
                                <path d="M315.5,1.5 L315.5,379.5" id="Line-Copy-79" stroke="#C3C3C3" sketch:type="MSShapeGroup"></path>
                                <path d="M261.5,1.5 L261.5,379.5" id="Line-Copy-75" stroke="#C3C3C3" sketch:type="MSShapeGroup"></path>
                                <path d="M351.5,1.5 L351.5,379.5" id="Line-Copy-80" stroke="#C3C3C3" sketch:type="MSShapeGroup"></path>
                                <path d="M18.5,1.5 L18.5,379.5" id="Line-Copy-48" stroke="#C3C3C3" sketch:type="MSShapeGroup"></path>
                                <path d="M54.5,1.5 L54.5,379.5" id="Line-Copy-52" stroke="#C3C3C3" sketch:type="MSShapeGroup"></path>
                                <path d="M90.5,1.5 L90.5,379.5" id="Line-Copy-56" stroke="#C3C3C3" sketch:type="MSShapeGroup"></path>
                                <path d="M126.5,1.5 L126.5,379.5" id="Line-Copy-60" stroke="#C3C3C3" sketch:type="MSShapeGroup"></path>
                                <path d="M162.5,1.5 L162.5,379.5" id="Line-Copy-64" stroke="#C3C3C3" sketch:type="MSShapeGroup"></path>
                                <path d="M198.5,1.5 L198.5,379.5" id="Line-Copy-68" stroke="#C3C3C3" sketch:type="MSShapeGroup"></path>
                                <path d="M234.5,1.5 L234.5,379.5" id="Line-Copy-72" stroke="#C3C3C3" sketch:type="MSShapeGroup"></path>
                                <path d="M324.5,1.5 L324.5,379.5" id="Line-Copy-81" stroke="#C3C3C3" sketch:type="MSShapeGroup"></path>
                                <path d="M270.5,1.5 L270.5,379.5" id="Line-Copy-76" stroke="#C3C3C3" sketch:type="MSShapeGroup"></path>
                                <path d="M360.5,1.5 L360.5,379.5" id="Line-Copy-82" stroke="#C3C3C3" sketch:type="MSShapeGroup"></path>
                                <path d="M27.5,1.5 L27.5,379.5" id="Line-Copy-49" stroke="#C3C3C3" sketch:type="MSShapeGroup"></path>
                                <path d="M63.5,1.5 L63.5,379.5" id="Line-Copy-53" stroke="#C3C3C3" sketch:type="MSShapeGroup"></path>
                                <path d="M99.5,1.5 L99.5,379.5" id="Line-Copy-57" stroke="#C3C3C3" sketch:type="MSShapeGroup"></path>
                                <path d="M135.5,1.5 L135.5,379.5" id="Line-Copy-61" stroke="#C3C3C3" sketch:type="MSShapeGroup"></path>
                                <path d="M171.5,1.5 L171.5,379.5" id="Line-Copy-65" stroke="#C3C3C3" sketch:type="MSShapeGroup"></path>
                                <path d="M207.5,1.5 L207.5,379.5" id="Line-Copy-69" stroke="#C3C3C3" sketch:type="MSShapeGroup"></path>
                                <path d="M297.5,1.5 L297.5,379.5" id="Line-Copy-83" stroke="#C3C3C3" sketch:type="MSShapeGroup"></path>
                                <path d="M243.5,1.5 L243.5,379.5" id="Line-Copy-73" stroke="#C3C3C3" sketch:type="MSShapeGroup"></path>
                                <path d="M333.5,1.5 L333.5,379.5" id="Line-Copy-84" stroke="#C3C3C3" sketch:type="MSShapeGroup"></path>
                                <path d="M279.5,1.5 L279.5,379.5" id="Line-Copy-77" stroke="#C3C3C3" sketch:type="MSShapeGroup"></path>
                                <path d="M369.5,1.5 L369.5,379.5" id="Line-Copy-85" stroke="#C3C3C3" sketch:type="MSShapeGroup"></path>
                                <path d="M36.5,1.5 L36.5,379.5" id="Line-Copy-50" stroke="#C3C3C3" sketch:type="MSShapeGroup"></path>
                                <path d="M72.5,1.5 L72.5,379.5" id="Line-Copy-54" stroke="#C3C3C3" sketch:type="MSShapeGroup"></path>
                                <path d="M108.5,1.5 L108.5,379.5" id="Line-Copy-58" stroke="#C3C3C3" sketch:type="MSShapeGroup"></path>
                                <path d="M144.5,1.5 L144.5,379.5" id="Line-Copy-62" stroke="#C3C3C3" sketch:type="MSShapeGroup"></path>
                                <path d="M180.5,1.5 L180.5,379.5" id="Line-Copy-66" stroke="#C3C3C3" sketch:type="MSShapeGroup"></path>
                                <path d="M216.5,1.5 L216.5,379.5" id="Line-Copy-70" stroke="#C3C3C3" sketch:type="MSShapeGroup"></path>
                                <path d="M306.5,1.5 L306.5,379.5" id="Line-Copy-86" stroke="#C3C3C3" sketch:type="MSShapeGroup"></path>
                                <path d="M252.5,1.5 L252.5,379.5" id="Line-Copy-74" stroke="#C3C3C3" sketch:type="MSShapeGroup"></path>
                                <path d="M342.5,1.5 L342.5,379.5" id="Line-Copy-87" stroke="#C3C3C3" sketch:type="MSShapeGroup"></path>
                                <path d="M288.5,1.5 L288.5,379.5" id="Line-Copy-78" stroke="#C3C3C3" sketch:type="MSShapeGroup"></path>
                                <path d="M378.5,1.5 L378.5,379.5" id="Line-Copy-88" stroke="#C3C3C3" sketch:type="MSShapeGroup"></path>
                                <path d="M0.5,1.5 L0.5,379.5" id="Line" stroke="#C3C3C3" sketch:type="MSShapeGroup"></path>
                            </g>
                            <g id="Group-Copy-2" transform="translate(0.000000, 379.000000)">
                                <path d="M153.5,1.5 L153.5,379.5" id="Line-Copy-63" stroke="#C3C3C3" sketch:type="MSShapeGroup"></path>
                                <path d="M189.5,1.5 L189.5,379.5" id="Line-Copy-67" stroke="#C3C3C3" sketch:type="MSShapeGroup"></path>
                                <path d="M225.5,1.5 L225.5,379.5" id="Line-Copy-71" stroke="#C3C3C3" sketch:type="MSShapeGroup"></path>
                                <path d="M315.5,1.5 L315.5,379.5" id="Line-Copy-79" stroke="#C3C3C3" sketch:type="MSShapeGroup"></path>
                                <path d="M261.5,1.5 L261.5,379.5" id="Line-Copy-75" stroke="#C3C3C3" sketch:type="MSShapeGroup"></path>
                                <path d="M351.5,1.5 L351.5,379.5" id="Line-Copy-80" stroke="#C3C3C3" sketch:type="MSShapeGroup"></path>
                                <path d="M162.5,1.5 L162.5,379.5" id="Line-Copy-64" stroke="#C3C3C3" sketch:type="MSShapeGroup"></path>
                                <path d="M198.5,1.5 L198.5,379.5" id="Line-Copy-68" stroke="#C3C3C3" sketch:type="MSShapeGroup"></path>
                                <path d="M234.5,1.5 L234.5,379.5" id="Line-Copy-72" stroke="#C3C3C3" sketch:type="MSShapeGroup"></path>
                                <path d="M324.5,1.5 L324.5,379.5" id="Line-Copy-81" stroke="#C3C3C3" sketch:type="MSShapeGroup"></path>
                                <path d="M270.5,1.5 L270.5,379.5" id="Line-Copy-76" stroke="#C3C3C3" sketch:type="MSShapeGroup"></path>
                                <path d="M360.5,1.5 L360.5,379.5" id="Line-Copy-82" stroke="#C3C3C3" sketch:type="MSShapeGroup"></path>
                                <path d="M171.5,1.5 L171.5,379.5" id="Line-Copy-65" stroke="#C3C3C3" sketch:type="MSShapeGroup"></path>
                                <path d="M207.5,1.5 L207.5,379.5" id="Line-Copy-69" stroke="#C3C3C3" sketch:type="MSShapeGroup"></path>
                                <path d="M297.5,1.5 L297.5,379.5" id="Line-Copy-83" stroke="#C3C3C3" sketch:type="MSShapeGroup"></path>
                                <path d="M243.5,1.5 L243.5,379.5" id="Line-Copy-73" stroke="#C3C3C3" sketch:type="MSShapeGroup"></path>
                                <path d="M333.5,1.5 L333.5,379.5" id="Line-Copy-84" stroke="#C3C3C3" sketch:type="MSShapeGroup"></path>
                                <path d="M279.5,1.5 L279.5,379.5" id="Line-Copy-77" stroke="#C3C3C3" sketch:type="MSShapeGroup"></path>
                                <path d="M369.5,1.5 L369.5,379.5" id="Line-Copy-85" stroke="#C3C3C3" sketch:type="MSShapeGroup"></path>
                                <path d="M144.5,1.5 L144.5,379.5" id="Line-Copy-62" stroke="#C3C3C3" sketch:type="MSShapeGroup"></path>
                                <path d="M180.5,1.5 L180.5,379.5" id="Line-Copy-66" stroke="#C3C3C3" sketch:type="MSShapeGroup"></path>
                                <path d="M216.5,1.5 L216.5,379.5" id="Line-Copy-70" stroke="#C3C3C3" sketch:type="MSShapeGroup"></path>
                                <path d="M306.5,1.5 L306.5,379.5" id="Line-Copy-86" stroke="#C3C3C3" sketch:type="MSShapeGroup"></path>
                                <path d="M252.5,1.5 L252.5,379.5" id="Line-Copy-74" stroke="#C3C3C3" sketch:type="MSShapeGroup"></path>
                                <path d="M342.5,1.5 L342.5,379.5" id="Line-Copy-87" stroke="#C3C3C3" sketch:type="MSShapeGroup"></path>
                                <path d="M288.5,1.5 L288.5,379.5" id="Line-Copy-78" stroke="#C3C3C3" sketch:type="MSShapeGroup"></path>
                                <path d="M378.5,1.5 L378.5,379.5" id="Line-Copy-88" stroke="#C3C3C3" sketch:type="MSShapeGroup"></path>
                            </g>
                            <g id="Group-Copy" transform="translate(387.000000, -0.000000)">
                                <path d="M9.5,1.5 L9.5,379.5" id="Line-Copy-47" stroke="#C3C3C3" sketch:type="MSShapeGroup"></path>
                                <path d="M45.5,1.5 L45.5,379.5" id="Line-Copy-51" stroke="#C3C3C3" sketch:type="MSShapeGroup"></path>
                                <path d="M81.5,1.5 L81.5,379.5" id="Line-Copy-55" stroke="#C3C3C3" sketch:type="MSShapeGroup"></path>
                                <path d="M117.5,1.5 L117.5,379.5" id="Line-Copy-59" stroke="#C3C3C3" sketch:type="MSShapeGroup"></path>
                                <path d="M153.5,1.5 L153.5,379.5" id="Line-Copy-63" stroke="#C3C3C3" sketch:type="MSShapeGroup"></path>
                                <path d="M189.5,1.5 L189.5,379.5" id="Line-Copy-67" stroke="#C3C3C3" sketch:type="MSShapeGroup"></path>
                                <path d="M18.5,1.5 L18.5,379.5" id="Line-Copy-48" stroke="#C3C3C3" sketch:type="MSShapeGroup"></path>
                                <path d="M54.5,1.5 L54.5,379.5" id="Line-Copy-52" stroke="#C3C3C3" sketch:type="MSShapeGroup"></path>
                                <path d="M90.5,1.5 L90.5,379.5" id="Line-Copy-56" stroke="#C3C3C3" sketch:type="MSShapeGroup"></path>
                                <path d="M126.5,1.5 L126.5,379.5" id="Line-Copy-60" stroke="#C3C3C3" sketch:type="MSShapeGroup"></path>
                                <path d="M162.5,1.5 L162.5,379.5" id="Line-Copy-64" stroke="#C3C3C3" sketch:type="MSShapeGroup"></path>
                                <path d="M27.5,1.5 L27.5,379.5" id="Line-Copy-49" stroke="#C3C3C3" sketch:type="MSShapeGroup"></path>
                                <path d="M63.5,1.5 L63.5,379.5" id="Line-Copy-53" stroke="#C3C3C3" sketch:type="MSShapeGroup"></path>
                                <path d="M99.5,1.5 L99.5,379.5" id="Line-Copy-57" stroke="#C3C3C3" sketch:type="MSShapeGroup"></path>
                                <path d="M135.5,1.5 L135.5,379.5" id="Line-Copy-61" stroke="#C3C3C3" sketch:type="MSShapeGroup"></path>
                                <path d="M171.5,1.5 L171.5,379.5" id="Line-Copy-65" stroke="#C3C3C3" sketch:type="MSShapeGroup"></path>
                                <path d="M36.5,1.5 L36.5,379.5" id="Line-Copy-50" stroke="#C3C3C3" sketch:type="MSShapeGroup"></path>
                                <path d="M72.5,1.5 L72.5,379.5" id="Line-Copy-54" stroke="#C3C3C3" sketch:type="MSShapeGroup"></path>
                                <path d="M108.5,1.5 L108.5,379.5" id="Line-Copy-58" stroke="#C3C3C3" sketch:type="MSShapeGroup"></path>
                                <path d="M144.5,1.5 L144.5,379.5" id="Line-Copy-62" stroke="#C3C3C3" sketch:type="MSShapeGroup"></path>
                                <path d="M180.5,1.5 L180.5,379.5" id="Line-Copy-66" stroke="#C3C3C3" sketch:type="MSShapeGroup"></path>
                                <path d="M0.5,1.5 L0.5,379.5" id="Line" stroke="#C3C3C3" sketch:type="MSShapeGroup"></path>
                            </g>
                            <g id="Group-Copy-3" transform="translate(387.000000, 378.000000)">
                                <path d="M9.5,1.5 L9.5,379.5" id="Line-Copy-47" stroke="#C3C3C3" sketch:type="MSShapeGroup"></path>
                                <path d="M45.5,1.5 L45.5,379.5" id="Line-Copy-51" stroke="#C3C3C3" sketch:type="MSShapeGroup"></path>
                                <path d="M81.5,1.5 L81.5,379.5" id="Line-Copy-55" stroke="#C3C3C3" sketch:type="MSShapeGroup"></path>
                                <path d="M117.5,1.5 L117.5,379.5" id="Line-Copy-59" stroke="#C3C3C3" sketch:type="MSShapeGroup"></path>
                                <path d="M153.5,1.5 L153.5,379.5" id="Line-Copy-63" stroke="#C3C3C3" sketch:type="MSShapeGroup"></path>
                                <path d="M189.5,1.5 L189.5,379.5" id="Line-Copy-67" stroke="#C3C3C3" sketch:type="MSShapeGroup"></path>
                                <path d="M225.5,1.5 L225.5,379.5" id="Line-Copy-71" stroke="#C3C3C3" sketch:type="MSShapeGroup"></path>
                                <path d="M315.5,1.5 L315.5,379.5" id="Line-Copy-79" stroke="#C3C3C3" sketch:type="MSShapeGroup"></path>
                                <path d="M261.5,1.5 L261.5,379.5" id="Line-Copy-75" stroke="#C3C3C3" sketch:type="MSShapeGroup"></path>
                                <path d="M351.5,1.5 L351.5,379.5" id="Line-Copy-80" stroke="#C3C3C3" sketch:type="MSShapeGroup"></path>
                                <path d="M18.5,1.5 L18.5,379.5" id="Line-Copy-48" stroke="#C3C3C3" sketch:type="MSShapeGroup"></path>
                                <path d="M54.5,1.5 L54.5,379.5" id="Line-Copy-52" stroke="#C3C3C3" sketch:type="MSShapeGroup"></path>
                                <path d="M90.5,1.5 L90.5,379.5" id="Line-Copy-56" stroke="#C3C3C3" sketch:type="MSShapeGroup"></path>
                                <path d="M126.5,1.5 L126.5,379.5" id="Line-Copy-60" stroke="#C3C3C3" sketch:type="MSShapeGroup"></path>
                                <path d="M162.5,1.5 L162.5,379.5" id="Line-Copy-64" stroke="#C3C3C3" sketch:type="MSShapeGroup"></path>
                                <path d="M198.5,1.5 L198.5,379.5" id="Line-Copy-68" stroke="#C3C3C3" sketch:type="MSShapeGroup"></path>
                                <path d="M234.5,1.5 L234.5,379.5" id="Line-Copy-72" stroke="#C3C3C3" sketch:type="MSShapeGroup"></path>
                                <path d="M324.5,1.5 L324.5,379.5" id="Line-Copy-81" stroke="#C3C3C3" sketch:type="MSShapeGroup"></path>
                                <path d="M270.5,1.5 L270.5,379.5" id="Line-Copy-76" stroke="#C3C3C3" sketch:type="MSShapeGroup"></path>
                                <path d="M360.5,1.5 L360.5,379.5" id="Line-Copy-82" stroke="#C3C3C3" sketch:type="MSShapeGroup"></path>
                                <path d="M27.5,1.5 L27.5,379.5" id="Line-Copy-49" stroke="#C3C3C3" sketch:type="MSShapeGroup"></path>
                                <path d="M63.5,1.5 L63.5,379.5" id="Line-Copy-53" stroke="#C3C3C3" sketch:type="MSShapeGroup"></path>
                                <path d="M99.5,1.5 L99.5,379.5" id="Line-Copy-57" stroke="#C3C3C3" sketch:type="MSShapeGroup"></path>
                                <path d="M135.5,1.5 L135.5,379.5" id="Line-Copy-61" stroke="#C3C3C3" sketch:type="MSShapeGroup"></path>
                                <path d="M171.5,1.5 L171.5,379.5" id="Line-Copy-65" stroke="#C3C3C3" sketch:type="MSShapeGroup"></path>
                                <path d="M207.5,1.5 L207.5,379.5" id="Line-Copy-69" stroke="#C3C3C3" sketch:type="MSShapeGroup"></path>
                                <path d="M297.5,1.5 L297.5,379.5" id="Line-Copy-83" stroke="#C3C3C3" sketch:type="MSShapeGroup"></path>
                                <path d="M243.5,1.5 L243.5,379.5" id="Line-Copy-73" stroke="#C3C3C3" sketch:type="MSShapeGroup"></path>
                                <path d="M333.5,1.5 L333.5,379.5" id="Line-Copy-84" stroke="#C3C3C3" sketch:type="MSShapeGroup"></path>
                                <path d="M279.5,1.5 L279.5,379.5" id="Line-Copy-77" stroke="#C3C3C3" sketch:type="MSShapeGroup"></path>
                                <path d="M369.5,1.5 L369.5,379.5" id="Line-Copy-85" stroke="#C3C3C3" sketch:type="MSShapeGroup"></path>
                                <path d="M36.5,1.5 L36.5,379.5" id="Line-Copy-50" stroke="#C3C3C3" sketch:type="MSShapeGroup"></path>
                                <path d="M72.5,1.5 L72.5,379.5" id="Line-Copy-54" stroke="#C3C3C3" sketch:type="MSShapeGroup"></path>
                                <path d="M108.5,1.5 L108.5,379.5" id="Line-Copy-58" stroke="#C3C3C3" sketch:type="MSShapeGroup"></path>
                                <path d="M144.5,1.5 L144.5,379.5" id="Line-Copy-62" stroke="#C3C3C3" sketch:type="MSShapeGroup"></path>
                                <path d="M180.5,1.5 L180.5,379.5" id="Line-Copy-66" stroke="#C3C3C3" sketch:type="MSShapeGroup"></path>
                                <path d="M216.5,1.5 L216.5,379.5" id="Line-Copy-70" stroke="#C3C3C3" sketch:type="MSShapeGroup"></path>
                                <path d="M306.5,1.5 L306.5,379.5" id="Line-Copy-86" stroke="#C3C3C3" sketch:type="MSShapeGroup"></path>
                                <path d="M252.5,1.5 L252.5,379.5" id="Line-Copy-74" stroke="#C3C3C3" sketch:type="MSShapeGroup"></path>
                                <path d="M342.5,1.5 L342.5,379.5" id="Line-Copy-87" stroke="#C3C3C3" sketch:type="MSShapeGroup"></path>
                                <path d="M288.5,1.5 L288.5,379.5" id="Line-Copy-78" stroke="#C3C3C3" sketch:type="MSShapeGroup"></path>
                                <path d="M378.5,1.5 L378.5,379.5" id="Line-Copy-88" stroke="#C3C3C3" sketch:type="MSShapeGroup"></path>
                                <path d="M0.5,1.5 L0.5,379.5" id="Line" stroke="#C3C3C3" sketch:type="MSShapeGroup"></path>
                            </g>
                            <g id="Group-Copy-5" transform="translate(774.000000, 378.000000)">
                                <path d="M9.5,1.5 L9.5,379.5" id="Line-Copy-47" stroke="#C3C3C3" sketch:type="MSShapeGroup"></path>
                                <path d="M45.5,1.5 L45.5,379.5" id="Line-Copy-51" stroke="#C3C3C3" sketch:type="MSShapeGroup"></path>
                                <path d="M81.5,1.5 L81.5,379.5" id="Line-Copy-55" stroke="#C3C3C3" sketch:type="MSShapeGroup"></path>
                                <path d="M117.5,1.5 L117.5,379.5" id="Line-Copy-59" stroke="#C3C3C3" sketch:type="MSShapeGroup"></path>
                                <path d="M153.5,1.5 L153.5,379.5" id="Line-Copy-63" stroke="#C3C3C3" sketch:type="MSShapeGroup"></path>
                                <path d="M189.5,1.5 L189.5,379.5" id="Line-Copy-67" stroke="#C3C3C3" sketch:type="MSShapeGroup"></path>
                                <path d="M225.5,1.5 L225.5,379.5" id="Line-Copy-71" stroke="#C3C3C3" sketch:type="MSShapeGroup"></path>
                                <path d="M315.5,1.5 L315.5,379.5" id="Line-Copy-79" stroke="#C3C3C3" sketch:type="MSShapeGroup"></path>
                                <path d="M261.5,1.5 L261.5,379.5" id="Line-Copy-75" stroke="#C3C3C3" sketch:type="MSShapeGroup"></path>
                                <path d="M351.5,1.5 L351.5,379.5" id="Line-Copy-80" stroke="#C3C3C3" sketch:type="MSShapeGroup"></path>
                                <path d="M18.5,1.5 L18.5,379.5" id="Line-Copy-48" stroke="#C3C3C3" sketch:type="MSShapeGroup"></path>
                                <path d="M54.5,1.5 L54.5,379.5" id="Line-Copy-52" stroke="#C3C3C3" sketch:type="MSShapeGroup"></path>
                                <path d="M90.5,1.5 L90.5,379.5" id="Line-Copy-56" stroke="#C3C3C3" sketch:type="MSShapeGroup"></path>
                                <path d="M126.5,1.5 L126.5,379.5" id="Line-Copy-60" stroke="#C3C3C3" sketch:type="MSShapeGroup"></path>
                                <path d="M162.5,1.5 L162.5,379.5" id="Line-Copy-64" stroke="#C3C3C3" sketch:type="MSShapeGroup"></path>
                                <path d="M198.5,1.5 L198.5,379.5" id="Line-Copy-68" stroke="#C3C3C3" sketch:type="MSShapeGroup"></path>
                                <path d="M234.5,1.5 L234.5,379.5" id="Line-Copy-72" stroke="#C3C3C3" sketch:type="MSShapeGroup"></path>
                                <path d="M324.5,1.5 L324.5,379.5" id="Line-Copy-81" stroke="#C3C3C3" sketch:type="MSShapeGroup"></path>
                                <path d="M270.5,1.5 L270.5,379.5" id="Line-Copy-76" stroke="#C3C3C3" sketch:type="MSShapeGroup"></path>
                                <path d="M360.5,1.5 L360.5,379.5" id="Line-Copy-82" stroke="#C3C3C3" sketch:type="MSShapeGroup"></path>
                                <path d="M27.5,1.5 L27.5,379.5" id="Line-Copy-49" stroke="#C3C3C3" sketch:type="MSShapeGroup"></path>
                                <path d="M63.5,1.5 L63.5,379.5" id="Line-Copy-53" stroke="#C3C3C3" sketch:type="MSShapeGroup"></path>
                                <path d="M99.5,1.5 L99.5,379.5" id="Line-Copy-57" stroke="#C3C3C3" sketch:type="MSShapeGroup"></path>
                                <path d="M135.5,1.5 L135.5,379.5" id="Line-Copy-61" stroke="#C3C3C3" sketch:type="MSShapeGroup"></path>
                                <path d="M171.5,1.5 L171.5,379.5" id="Line-Copy-65" stroke="#C3C3C3" sketch:type="MSShapeGroup"></path>
                                <path d="M207.5,1.5 L207.5,379.5" id="Line-Copy-69" stroke="#C3C3C3" sketch:type="MSShapeGroup"></path>
                                <path d="M297.5,1.5 L297.5,379.5" id="Line-Copy-83" stroke="#C3C3C3" sketch:type="MSShapeGroup"></path>
                                <path d="M243.5,1.5 L243.5,379.5" id="Line-Copy-73" stroke="#C3C3C3" sketch:type="MSShapeGroup"></path>
                                <path d="M333.5,1.5 L333.5,379.5" id="Line-Copy-84" stroke="#C3C3C3" sketch:type="MSShapeGroup"></path>
                                <path d="M279.5,1.5 L279.5,379.5" id="Line-Copy-77" stroke="#C3C3C3" sketch:type="MSShapeGroup"></path>
                                <path d="M369.5,1.5 L369.5,379.5" id="Line-Copy-85" stroke="#C3C3C3" sketch:type="MSShapeGroup"></path>
                                <path d="M36.5,1.5 L36.5,379.5" id="Line-Copy-50" stroke="#C3C3C3" sketch:type="MSShapeGroup"></path>
                                <path d="M72.5,1.5 L72.5,379.5" id="Line-Copy-54" stroke="#C3C3C3" sketch:type="MSShapeGroup"></path>
                                <path d="M108.5,1.5 L108.5,379.5" id="Line-Copy-58" stroke="#C3C3C3" sketch:type="MSShapeGroup"></path>
                                <path d="M144.5,1.5 L144.5,379.5" id="Line-Copy-62" stroke="#C3C3C3" sketch:type="MSShapeGroup"></path>
                                <path d="M180.5,1.5 L180.5,379.5" id="Line-Copy-66" stroke="#C3C3C3" sketch:type="MSShapeGroup"></path>
                                <path d="M216.5,1.5 L216.5,379.5" id="Line-Copy-70" stroke="#C3C3C3" sketch:type="MSShapeGroup"></path>
                                <path d="M306.5,1.5 L306.5,379.5" id="Line-Copy-86" stroke="#C3C3C3" sketch:type="MSShapeGroup"></path>
                                <path d="M252.5,1.5 L252.5,379.5" id="Line-Copy-74" stroke="#C3C3C3" sketch:type="MSShapeGroup"></path>
                                <path d="M342.5,1.5 L342.5,379.5" id="Line-Copy-87" stroke="#C3C3C3" sketch:type="MSShapeGroup"></path>
                                <path d="M288.5,1.5 L288.5,379.5" id="Line-Copy-78" stroke="#C3C3C3" sketch:type="MSShapeGroup"></path>
                                <path d="M0.5,1.5 L0.5,379.5" id="Line" stroke="#C3C3C3" sketch:type="MSShapeGroup"></path>
                            </g>
                        </g>
                    </g>
                </g>
                <path d="M51.9999989,253.707053 C132.192679,290.232718 201.026622,430.753775 270.608517,343.487403 C314.027737,289.03304 365.612968,164.554405 527.640543,203.324744 C614.266672,224.052847 819.410734,254.038449 819.410712,122.669462 C819.410712,122.669447 8.28133908,122.669462 8.28133908,122.669462 C8.28133908,122.669462 -28.1926814,217.181387 51.9999989,253.707053 Z" id="Path-1" fill="#0F0D20" sketch:type="MSShapeGroup"></path>
                <path d="M702.969742,197.55307 C719.599288,155.03366 717.139414,112.12495 717.139414,112.12495 C717.235203,98.8786925 727.938863,86.5194368 740.99337,84.3068912 C740.99337,84.3068912 769.175463,80.9383331 805.143877,69.2340594 C841.112291,57.5297857 865.19286,38.5933206 865.19286,38.5933206 C876.142741,31.1336853 878.609262,33.7185381 870.745299,44.3702143 C870.745299,44.3702143 813.410053,121.063541 812.129098,129.27724 C811.160813,135.486042 810.475699,147.980841 810.475699,147.980841 C809.568076,161.206406 805.177426,182.036426 800.497769,194.429442 C800.497769,194.429442 789.01894,228.371612 783.266131,229.268783 C774.596438,230.620853 725.988192,244.956639 725.988192,244.956639 C713.275453,248.655114 697.346791,242.65521 695.586459,229.579039 C695.586459,229.579039 686.340196,240.072479 702.969742,197.55307 Z" id="1-—-Start" fill="#FFFFFF" sketch:type="MSShapeGroup" transform="translate(784.182831, 140.182228) rotate(-135.000000) translate(-784.182831, -140.182228) "></path>
            </g>
        </g>
    </g>
</svg>